<svg width="17" height="10" viewBox="0 0 17 10" fill="none" xmlns="http://www.w3.org/2000/svg">
<g clip-path="url(#clip0)">
<path d="M17.0001 0.0102539H0.98291V9.83897H17.0001V0.0102539Z" fill="#C2C2C2"/>
<path d="M6.58021 3.01104L7.0387 4.30988H8.52244L7.32206 5.11262L7.78059 6.41153L6.58021 5.60876L5.37983 6.41153L5.83832 5.11262L4.63794 4.30988H6.12168L6.58021 3.01104Z" fill="#F0F0F0"/>
<path d="M9.47008 7.331L9.01991 7.02995L8.56981 7.33097L8.74171 6.84394L8.29157 6.54289H8.84798L9.01991 6.05579L9.19191 6.54289H9.74829L9.29815 6.84391L9.47008 7.331Z" fill="#F0F0F0"/>
<path d="M10.6444 5.84329H10.088L9.91606 6.33032L9.74413 5.84332L9.18769 5.84329L9.63789 5.54224L9.46589 5.05518L9.91606 5.35617L10.3662 5.05518L10.1943 5.54224L10.6444 5.84329Z" fill="#F0F0F0"/>
<path d="M10.6444 4.00434L10.1943 4.30539L10.3662 4.79242L9.91606 4.49143L9.46589 4.79248L9.63789 4.30536L9.18769 4.0044L9.74416 4.00434L9.91606 3.51725L10.088 4.00434H10.6444Z" fill="#F0F0F0"/>
<path d="M9.47008 2.51663L9.29818 3.00372L9.74829 3.30471L9.19191 3.30474L9.01991 3.79186L8.84798 3.30471L8.2916 3.30477L8.74174 3.00369L8.56981 2.5166L9.01991 2.81765L9.47008 2.51663Z" fill="#F0F0F0"/>
</g>
<defs>
<clipPath id="clip0">
<rect width="16.0171" height="9.84781" fill="white" transform="translate(0.98291)"/>
</clipPath>
</defs>
</svg>
