<svg width="135" height="128" viewBox="0 0 135 128" fill="none" xmlns="http://www.w3.org/2000/svg">
<circle cx="66" cy="64" r="64" fill="url(#paint0_linear)"/>
<path d="M34.901 99.7423C35.2516 99.9435 35.2516 100.27 34.901 100.471C34.5504 100.674 33.9811 100.674 33.6305 100.471C33.2799 100.27 33.2799 99.9435 33.6305 99.7423C33.9811 99.541 34.5504 99.541 34.901 99.7423Z" fill="#1A1613"/>
<path d="M38.2222 97.835C38.5728 98.0363 38.5728 98.3639 38.2222 98.5652C37.8704 98.7664 37.3022 98.7664 36.9516 98.5652C36.6011 98.3639 36.6011 98.0363 36.9516 97.835C37.3022 97.6338 37.8704 97.6338 38.2222 97.835Z" fill="#1A1613"/>
<path d="M41.5422 95.929C41.8928 96.1303 41.8928 96.4567 41.5422 96.658C41.1916 96.8592 40.6234 96.8592 40.2728 96.658C39.9222 96.4567 39.9222 96.1303 40.2728 95.929C40.6234 95.7278 41.1916 95.7278 41.5422 95.929Z" fill="#1A1613"/>
<path d="M44.8634 94.0218C45.214 94.223 45.214 94.5495 44.8634 94.7507C44.5128 94.952 43.9446 94.952 43.5928 94.7507C43.2422 94.5495 43.2422 94.223 43.5928 94.0218C43.9446 93.8205 44.5128 93.8205 44.8634 94.0218Z" fill="#1A1613"/>
<path d="M31.5799 97.835C31.9305 98.0363 31.9305 98.3639 31.5799 98.5652C31.2293 98.7664 30.661 98.7664 30.3093 98.5652C29.9587 98.3639 29.9587 98.0363 30.3093 97.835C30.661 97.6338 31.2293 97.6338 31.5799 97.835Z" fill="#1A1613"/>
<path d="M34.901 95.929C35.2516 96.1303 35.2516 96.4567 34.901 96.658C34.5504 96.8592 33.9811 96.8592 33.6305 96.658C33.2799 96.4567 33.2799 96.1303 33.6305 95.929C33.9811 95.7278 34.5504 95.7278 34.901 95.929Z" fill="#1A1613"/>
<path d="M38.2222 94.0218C38.5728 94.223 38.5728 94.5495 38.2222 94.7507C37.8704 94.952 37.3022 94.952 36.9516 94.7507C36.6011 94.5495 36.6011 94.223 36.9516 94.0218C37.3022 93.8205 37.8704 93.8205 38.2222 94.0218Z" fill="#1A1613"/>
<path d="M41.5422 92.8447C41.1916 93.046 40.6234 93.046 40.2728 92.8447C39.9222 92.6423 39.9222 92.3158 40.2728 92.1146C40.6234 91.9133 41.8928 92.6423 41.5422 92.8447Z" fill="#1A1613"/>
<path d="M28.2587 95.929C28.6093 96.1303 28.6093 96.4567 28.2587 96.658C27.9081 96.8592 27.3399 96.8592 26.9893 96.658C26.6375 96.4567 26.6375 96.1303 26.9893 95.929C27.3399 95.7278 27.9081 95.7278 28.2587 95.929Z" fill="#1A1613"/>
<path d="M31.5799 94.0218C31.9305 94.223 31.9305 94.5495 31.5799 94.7507C31.2293 94.952 30.661 94.952 30.3093 94.7507C29.9587 94.5495 29.9587 94.223 30.3093 94.0218C30.661 93.8205 31.2293 93.8205 31.5799 94.0218Z" fill="#1A1613"/>
<path d="M34.901 92.1146C35.2516 92.3158 35.2516 92.6423 34.901 92.8447C34.5504 93.046 33.9811 93.046 33.6305 92.8447C33.2799 92.6423 33.2799 92.3158 33.6305 92.1146C33.9811 91.9133 34.5504 91.9133 34.901 92.1146Z" fill="#1A1613"/>
<path d="M38.2222 90.9375C37.8704 91.1387 37.3022 91.1387 36.9516 90.9375C36.6011 90.7362 36.6011 90.4098 36.9516 90.2085C37.3022 90.0061 38.5728 90.7362 38.2222 90.9375Z" fill="#1A1613"/>
<path d="M24.9375 94.0218C25.2893 94.223 25.2893 94.5495 24.9375 94.7507C24.5869 94.952 24.0187 94.952 23.6681 94.7507C23.3175 94.5495 23.3175 94.223 23.6681 94.0218C24.0187 93.8205 24.5869 93.8205 24.9375 94.0218Z" fill="#1A1613"/>
<path d="M28.2587 92.1146C28.6093 92.3158 28.6093 92.6423 28.2587 92.8447C27.9081 93.046 27.3399 93.046 26.9893 92.8447C26.6375 92.6423 26.6375 92.3158 26.9893 92.1146C27.3399 91.9133 27.9081 91.9133 28.2587 92.1146Z" fill="#1A1613"/>
<path d="M31.5799 90.2085C31.9305 90.4098 31.9305 90.7362 31.5799 90.9375C31.2293 91.1387 30.661 91.1387 30.3093 90.9375C29.9587 90.7362 29.9587 90.4098 30.3093 90.2085C30.661 90.0061 31.2293 90.0061 31.5799 90.2085Z" fill="#1A1613"/>
<path d="M34.901 89.0303C34.5504 89.2315 33.9811 89.2315 33.6305 89.0303C33.2799 88.829 33.2799 88.5026 33.6305 88.3013C33.9811 88.1001 35.2516 88.829 34.901 89.0303Z" fill="#1A1613"/>
<path d="M21.6175 92.1146C21.9681 92.3158 21.9681 92.6423 21.6175 92.8447C21.2669 93.046 20.6975 93.046 20.3469 92.8447C19.9963 92.6423 19.9963 92.3158 20.3469 92.1146C20.6975 91.9133 21.2669 91.9133 21.6175 92.1146Z" fill="#1A1613"/>
<path d="M24.9375 90.2085C25.2893 90.4098 25.2893 90.7362 24.9375 90.9375C24.5869 91.1387 24.0187 91.1387 23.6681 90.9375C23.3175 90.7362 23.3175 90.4098 23.6681 90.2085C24.0187 90.0061 24.5869 90.0061 24.9375 90.2085Z" fill="#1A1613"/>
<path d="M28.2587 88.3013C28.6093 88.5026 28.6093 88.829 28.2587 89.0303C27.9081 89.2315 27.3399 89.2315 26.9893 89.0303C26.6375 88.829 26.6375 88.5026 26.9893 88.3013C27.3399 88.1001 27.9081 88.1001 28.2587 88.3013Z" fill="#1A1613"/>
<path d="M18.2669 90.1875C18.6187 90.3887 18.6187 90.7163 18.2669 90.9176C17.9163 91.1188 17.3481 91.1188 16.9975 90.9176C16.6469 90.7163 16.6469 90.3887 16.9975 90.1875C17.3481 89.9862 17.9163 89.9862 18.2669 90.1875Z" fill="#1A1613"/>
<path d="M21.5881 88.2814C21.9387 88.4827 21.9387 88.8091 21.5881 89.0104C21.2375 89.2117 20.6693 89.2117 20.3187 89.0104C19.9681 88.8091 19.9681 88.4827 20.3187 88.2814C20.6693 88.0802 21.2375 88.0802 21.5881 88.2814Z" fill="#1A1613"/>
<path d="M24.9093 86.3742C25.2599 86.5755 25.2599 86.9019 24.9093 87.1032C24.5587 87.3044 23.9905 87.3044 23.6399 87.1032C23.2881 86.9019 23.2881 86.5755 23.6399 86.3742C23.9905 86.173 24.5587 86.173 24.9093 86.3742Z" fill="#1A1613"/>
<path d="M21.5881 84.467C21.9387 84.6683 21.9387 84.9947 21.5881 85.196C21.2375 85.3984 20.6693 85.3984 20.3187 85.196C19.9681 84.9947 19.9681 84.6683 20.3187 84.467C20.6693 84.2658 21.2375 84.2658 21.5881 84.467Z" fill="#1A1613"/>
<path d="M11.6258 86.3742C11.9764 86.5755 11.9764 86.9019 11.6258 87.1032C11.2752 87.3044 10.7069 87.3044 10.3552 87.1032C10.0046 86.9019 10.0046 86.5755 10.3552 86.3742C10.7069 86.173 11.2752 86.173 11.6258 86.3742Z" fill="#1A1613"/>
<path d="M14.9469 84.467C15.2975 84.6683 15.2975 84.9947 14.9469 85.196C14.5963 85.3984 14.0269 85.3984 13.6763 85.196C13.3258 84.9947 13.3258 84.6683 13.6763 84.467C14.0269 84.2658 14.5963 84.2658 14.9469 84.467Z" fill="#1A1613"/>
<path d="M18.2681 82.561C18.6187 82.7622 18.6187 83.0887 18.2681 83.2899C17.9163 83.4912 17.3481 83.4912 16.9975 83.2899C16.6469 83.0887 16.6469 82.7622 16.9975 82.561C17.3481 82.3586 17.9163 82.3586 18.2681 82.561Z" fill="#1A1613"/>
<path d="M8.30461 84.467C8.6552 84.6683 8.6552 84.9947 8.30461 85.196C7.95402 85.3984 7.38578 85.3984 7.03519 85.196C6.68343 84.9947 6.68343 84.6683 7.03519 84.467C7.38578 84.2658 7.95402 84.2658 8.30461 84.467Z" fill="#1A1613"/>
<path d="M11.6258 82.561C11.9764 82.7622 11.9764 83.0887 11.6258 83.2899C11.2752 83.4912 10.7069 83.4912 10.3552 83.2899C10.0046 83.0887 10.0046 82.7622 10.3552 82.561C10.7069 82.3586 11.2752 82.3586 11.6258 82.561Z" fill="#1A1613"/>
<path d="M14.9469 80.6538C15.2975 80.855 15.2975 81.1815 14.9469 81.3827C14.5963 81.584 14.0269 81.584 13.6763 81.3827C13.3258 81.1815 13.3258 80.855 13.6763 80.6538C14.0269 80.4525 14.5963 80.4525 14.9469 80.6538C14.5963 80.4525 15.2975 80.855 14.9469 80.6538Z" fill="#1A1613"/>
<path d="M4.98459 82.561C5.33518 82.7622 5.33518 83.0887 4.98459 83.2899C4.63283 83.4912 4.06459 83.4912 3.714 83.2899C3.36341 83.0887 3.36341 82.7622 3.714 82.561C4.06459 82.3586 4.63283 82.3586 4.98459 82.561Z" fill="#1A1613"/>
<path d="M8.30459 80.6538C8.65518 80.855 8.65518 81.1815 8.30459 81.3827C7.954 81.584 7.38576 81.584 7.03517 81.3827C6.68459 81.1815 6.68459 80.855 7.03517 80.6538C7.38576 80.4525 7.954 80.4525 8.30459 80.6538Z" fill="#1A1613"/>
<path d="M11.6258 79.4755C11.2752 79.6779 10.7069 79.6779 10.3552 79.4755C10.0046 79.2743 10.0046 78.9478 10.3552 78.7466C10.7069 78.5453 11.9764 79.2743 11.6258 79.4755Z" fill="#1A1613"/>
<path d="M1.66339 80.6538C2.01398 80.855 2.01398 81.1815 1.66339 81.3827C1.3128 81.584 0.743412 81.584 0.392824 81.3827C0.0422357 81.1815 0.0422357 80.855 0.392824 80.6538C0.743412 80.4525 1.3128 80.4525 1.66339 80.6538Z" fill="#1A1613"/>
<path d="M4.98459 78.7466C5.33518 78.9478 5.33518 79.2743 4.98459 79.4755C4.63283 79.6779 4.06459 79.6779 3.714 79.4755C3.36341 79.2743 3.36341 78.9478 3.714 78.7466C4.06459 78.5453 4.63283 78.5453 4.98459 78.7466Z" fill="#1A1613"/>
<path d="M8.30459 76.8393C8.65518 77.0406 8.65518 77.367 8.30459 77.5695C7.954 77.7707 7.38576 77.7707 7.03517 77.5695C6.68459 77.367 6.68459 77.0406 7.03517 76.8393C7.38576 76.6381 7.954 76.6381 8.30459 76.8393C7.954 76.6381 8.65518 77.0406 8.30459 76.8393Z" fill="#1A1613"/>
<path d="M1.66339 76.8393C2.01398 77.0406 2.01398 77.367 1.66339 77.5695C1.3128 77.7707 0.743412 77.7707 0.392824 77.5695C0.0422357 77.367 0.0422357 77.0406 0.392824 76.8393C0.743412 76.6381 1.3128 76.6381 1.66339 76.8393Z" fill="#1A1613"/>
<path d="M4.98459 75.6622C4.63283 75.8635 4.06459 75.8635 3.714 75.6622C3.36341 75.461 3.36341 75.1346 3.714 74.9333C4.06459 74.7309 5.33518 75.461 4.98459 75.6622Z" fill="#1A1613"/>
<path d="M61.6269 110.899C61.9775 111.1 61.9775 111.427 61.6269 111.628C61.2763 111.829 60.7069 111.829 60.3563 111.628C60.0058 111.427 60.0058 111.1 60.3563 110.899C60.7069 110.698 61.2763 110.698 61.6269 110.899Z" fill="#1A1613"/>
<path d="M64.9481 108.992C65.2987 109.193 65.2987 109.519 64.9481 109.721C64.5975 109.922 64.0281 109.922 63.6775 109.721C63.3269 109.519 63.3269 109.193 63.6775 108.992C64.0281 108.79 64.5975 108.79 64.9481 108.992Z" fill="#1A1613"/>
<path d="M68.2681 107.084C68.6199 107.286 68.6199 107.613 68.2681 107.815C67.9175 108.016 67.3493 108.016 66.9987 107.815C66.6481 107.613 66.6481 107.286 66.9987 107.084C67.3493 106.883 67.9175 106.883 68.2681 107.084Z" fill="#1A1613"/>
<path d="M71.5893 105.178C71.9399 105.38 71.9399 105.706 71.5893 105.907C71.2387 106.109 70.6704 106.109 70.3187 105.907C69.9681 105.706 69.9681 105.38 70.3187 105.178C70.6704 104.976 71.2387 104.976 71.5893 105.178Z" fill="#1A1613"/>
<path d="M74.9105 103.271C75.261 103.472 75.261 103.799 74.9105 104C74.5599 104.201 73.9904 104.201 73.6399 104C73.2893 103.799 73.2893 103.472 73.6399 103.271C73.9904 103.07 74.5599 103.07 74.9105 103.271Z" fill="#1A1613"/>
<path d="M54.9846 110.899C55.3352 111.1 55.3352 111.427 54.9846 111.628C54.634 111.829 54.0658 111.829 53.7152 111.628C53.3646 111.427 53.3646 111.1 53.7152 110.899C54.0658 110.698 54.634 110.698 54.9846 110.899Z" fill="#1A1613"/>
<path d="M58.3058 108.992C58.6563 109.193 58.6563 109.519 58.3058 109.721C57.9552 109.922 57.3869 109.922 57.0352 109.721C56.6846 109.519 56.6846 109.193 57.0352 108.992C57.3869 108.79 57.9552 108.79 58.3058 108.992Z" fill="#1A1613"/>
<path d="M61.6269 107.084C61.9775 107.286 61.9775 107.613 61.6269 107.815C61.2763 108.016 60.7069 108.016 60.3563 107.815C60.0058 107.613 60.0058 107.286 60.3563 107.084C60.7069 106.883 61.2763 106.883 61.6269 107.084Z" fill="#1A1613"/>
<path d="M64.9481 105.178C65.2987 105.38 65.2987 105.706 64.9481 105.907C64.5975 106.109 64.0281 106.109 63.6775 105.907C63.3269 105.706 63.3269 105.38 63.6775 105.178C64.0281 104.976 64.5975 104.976 64.9481 105.178Z" fill="#1A1613"/>
<path d="M68.2681 103.271C68.6199 103.472 68.6199 103.799 68.2681 104C67.9175 104.201 67.3493 104.201 66.9987 104C66.6481 103.799 66.6481 103.472 66.9987 103.271C67.3493 103.07 67.9175 103.07 68.2681 103.271Z" fill="#1A1613"/>
<path d="M71.5893 101.364C71.9399 101.565 71.9399 101.892 71.5893 102.093C71.2387 102.295 70.6705 102.295 70.3199 102.093C69.9681 101.892 69.9681 101.565 70.3199 101.364C70.6705 101.163 71.2387 101.163 71.5893 101.364Z" fill="#1A1613"/>
<path d="M51.6646 108.992C52.0152 109.193 52.0152 109.519 51.6634 109.721C51.3128 109.923 50.7446 109.923 50.394 109.721C50.0434 109.519 50.0434 109.193 50.394 108.992C50.7446 108.79 51.3128 108.79 51.6646 108.992Z" fill="#1A1613"/>
<path d="M54.9846 107.084C55.3352 107.286 55.3352 107.613 54.9846 107.815C54.634 108.016 54.0658 108.016 53.7152 107.815C53.3646 107.613 53.3646 107.286 53.7152 107.084C54.0658 106.883 54.634 106.883 54.9846 107.084Z" fill="#1A1613"/>
<path d="M58.3058 105.178C58.6563 105.38 58.6563 105.706 58.3058 105.907C57.9552 106.109 57.3869 106.109 57.0352 105.907C56.6846 105.706 56.6846 105.38 57.0352 105.178C57.3869 104.976 57.9552 104.976 58.3058 105.178Z" fill="#1A1613"/>
<path d="M61.6269 103.271C61.9775 103.472 61.9775 103.799 61.6269 104C61.2763 104.201 60.7069 104.201 60.3563 104C60.0058 103.799 60.0058 103.472 60.3563 103.271C60.7069 103.07 61.2763 103.07 61.6269 103.271Z" fill="#1A1613"/>
<path d="M64.9481 101.364C65.2987 101.565 65.2987 101.892 64.9481 102.093C64.5975 102.295 64.0281 102.295 63.6775 102.093C63.3269 101.892 63.3269 101.565 63.6775 101.364C64.0281 101.163 64.5975 101.163 64.9481 101.364Z" fill="#1A1613"/>
<path d="M68.2681 99.4568C68.6199 99.6592 68.6199 99.9856 68.2681 100.187C67.9175 100.388 67.3493 100.388 66.9987 100.187C66.6481 99.9856 66.6481 99.6592 66.9987 99.4568C67.3493 99.2555 67.9175 99.2555 68.2681 99.4568Z" fill="#1A1613"/>
<path d="M48.314 107.065C48.6646 107.266 48.6646 107.592 48.314 107.795C47.9634 107.996 47.3951 107.996 47.0446 107.795C46.694 107.592 46.694 107.266 47.0446 107.065C47.3951 106.863 47.9634 106.863 48.314 107.065Z" fill="#1A1613"/>
<path d="M51.6351 105.159C51.9857 105.36 51.9857 105.686 51.6351 105.887C51.2846 106.089 50.7163 106.089 50.3646 105.887C50.014 105.686 50.014 105.36 50.3646 105.159C50.7163 104.956 51.2846 104.956 51.6351 105.159Z" fill="#1A1613"/>
<path d="M54.9563 103.251C55.3069 103.453 55.3069 103.779 54.9563 103.98C54.6057 104.181 54.0363 104.181 53.6858 103.98C53.3352 103.779 53.3352 103.453 53.6858 103.251C54.0363 103.05 54.6057 103.05 54.9563 103.251Z" fill="#1A1613"/>
<path d="M58.2775 101.344C58.6281 101.545 58.6281 101.872 58.2775 102.073C57.9269 102.274 57.3575 102.274 57.0069 102.073C56.6563 101.872 56.6563 101.545 57.0069 101.344C57.3575 101.143 57.9269 101.143 58.2775 101.344Z" fill="#1A1613"/>
<path d="M61.5975 99.4369C61.9493 99.6381 61.9493 99.9657 61.5975 100.167C61.2469 100.368 60.6787 100.368 60.3281 100.167C59.9775 99.9657 59.9775 99.6381 60.3281 99.4369C60.6787 99.2356 61.2469 99.2356 61.5975 99.4369Z" fill="#1A1613"/>
<path d="M64.9187 97.5308C65.2693 97.7321 65.2693 98.0585 64.9187 98.2598C64.5681 98.461 63.9999 98.461 63.6493 98.2598C63.2975 98.0585 63.2975 97.7321 63.6493 97.5308C63.9999 97.3284 64.5681 97.3284 64.9187 97.5308Z" fill="#1A1613"/>
<path d="M44.994 105.159C45.3446 105.36 45.3446 105.686 44.994 105.887C44.6422 106.089 44.074 106.089 43.7234 105.887C43.3728 105.686 43.3728 105.36 43.7234 105.159C44.074 104.956 44.6422 104.956 44.994 105.159Z" fill="#1A1613"/>
<path d="M48.314 103.251C48.6646 103.453 48.6646 103.779 48.314 103.98C47.9634 104.181 47.3951 104.181 47.0446 103.98C46.694 103.779 46.694 103.453 47.0446 103.251C47.3951 103.05 47.9634 103.05 48.314 103.251Z" fill="#1A1613"/>
<path d="M51.6351 101.344C51.9857 101.545 51.9857 101.872 51.6351 102.073C51.2846 102.274 50.7163 102.274 50.3646 102.073C50.014 101.872 50.014 101.545 50.3646 101.344C50.7163 101.143 51.2846 101.143 51.6351 101.344Z" fill="#1A1613"/>
<path d="M54.9563 99.4369C55.3069 99.6381 55.3069 99.9657 54.9563 100.167C54.6057 100.368 54.0363 100.368 53.6858 100.167C53.3352 99.9657 53.3352 99.6381 53.6858 99.4369C54.0363 99.2356 54.6057 99.2356 54.9563 99.4369Z" fill="#1A1613"/>
<path d="M58.2775 97.5308C58.6281 97.7321 58.6281 98.0585 58.2775 98.2598C57.9269 98.461 57.3575 98.461 57.0069 98.2598C56.6563 98.0585 56.6563 97.7321 57.0069 97.5308C57.3575 97.3284 57.9269 97.3284 58.2775 97.5308Z" fill="#1A1613"/>
<path d="M61.5975 95.6236C61.9493 95.8249 61.9493 96.1513 61.5975 96.3526C61.2469 96.5538 60.6787 96.5538 60.3281 96.3526C59.9775 96.1513 59.9775 95.8249 60.3281 95.6236C60.6787 95.4224 61.2469 95.4224 61.5975 95.6236Z" fill="#1A1613"/>
<path d="M41.6728 103.251C42.0234 103.453 42.0234 103.779 41.6728 103.98C41.3222 104.181 40.7528 104.181 40.4022 103.98C40.0516 103.779 40.0516 103.453 40.4022 103.251C40.7528 103.05 41.3222 103.05 41.6728 103.251Z" fill="#1A1613"/>
<path d="M44.994 101.344C45.3446 101.545 45.3446 101.872 44.994 102.073C44.6422 102.274 44.074 102.274 43.7234 102.073C43.3728 101.872 43.3728 101.545 43.7234 101.344C44.074 101.143 44.6422 101.143 44.994 101.344Z" fill="#1A1613"/>
<path d="M48.314 99.4369C48.6646 99.6381 48.6646 99.9657 48.314 100.167C47.9634 100.368 47.3951 100.368 47.0446 100.167C46.694 99.9657 46.694 99.6381 47.0446 99.4369C47.3951 99.2356 47.9634 99.2356 48.314 99.4369Z" fill="#1A1613"/>
<path d="M51.6352 97.5308C51.9858 97.7321 51.9858 98.0585 51.6352 98.2598C51.2846 98.461 50.7164 98.461 50.3658 98.2598C50.014 98.0585 50.014 97.7321 50.3658 97.5308C50.7164 97.3284 51.2846 97.3284 51.6352 97.5308Z" fill="#1A1613"/>
<path d="M54.9563 95.6236C55.3069 95.8249 55.3069 96.1513 54.9563 96.3526C54.6057 96.5538 54.0363 96.5538 53.6858 96.3526C53.3352 96.1513 53.3352 95.8249 53.6858 95.6236C54.0363 95.4224 54.6057 95.4224 54.9563 95.6236Z" fill="#1A1613"/>
<path d="M58.2775 93.7164C58.6281 93.9177 58.6281 94.2441 58.2775 94.4454C57.9269 94.6466 57.3575 94.6466 57.0069 94.4454C56.6564 94.2441 57.9269 93.5152 58.2775 93.7164Z" fill="#1A1613"/>
<path d="M38.3516 101.344C38.7022 101.545 38.7022 101.872 38.3516 102.073C38.001 102.274 37.4328 102.274 37.081 102.073C36.7305 101.872 36.7305 101.545 37.081 101.344C37.4328 101.143 38.001 101.143 38.3516 101.344Z" fill="#1A1613"/>
<path d="M41.6728 99.4369C42.0234 99.6381 42.0234 99.9657 41.6728 100.167C41.3222 100.368 40.7528 100.368 40.4022 100.167C40.0516 99.9657 40.0516 99.6381 40.4022 99.4369C40.7528 99.2356 41.3222 99.2356 41.6728 99.4369Z" fill="#1A1613"/>
<path d="M44.994 97.5308C45.3446 97.7321 45.3446 98.0585 44.994 98.2598C44.6422 98.461 44.074 98.461 43.7234 98.2598C43.3728 98.0585 43.3728 97.7321 43.7234 97.5308C44.074 97.3284 44.6422 97.3284 44.994 97.5308Z" fill="#1A1613"/>
<path d="M48.314 95.6236C48.6646 95.8249 48.6646 96.1513 48.314 96.3526C47.9634 96.5538 47.3951 96.5538 47.0446 96.3526C46.694 96.1513 46.694 95.8249 47.0446 95.6236C47.3951 95.4224 47.9634 95.4224 48.314 95.6236Z" fill="#1A1613"/>
<path d="M76.9669 101.391C77.3175 101.19 77.8858 101.188 78.2375 101.39C78.5893 101.591 78.5893 101.917 78.2399 102.12C77.8893 102.321 77.321 102.321 76.9693 102.121C76.6175 101.92 76.6175 101.593 76.9669 101.391Z" fill="#1A1613"/>
<path d="M81.5622 99.4813C81.9128 99.6838 81.9128 100.01 81.5622 100.211C81.2117 100.413 80.6434 100.413 80.2928 100.211C79.9411 100.01 79.9411 99.6838 80.2928 99.4813C80.6434 99.2801 81.2117 99.2801 81.5622 99.4813Z" fill="#1A1613"/>
<path d="M84.8834 97.5753C85.234 97.7765 85.234 98.103 84.8834 98.3042C84.5328 98.5055 83.9634 98.5055 83.6128 98.3042C83.2622 98.103 83.2622 97.7765 83.6128 97.5753C83.9634 97.374 84.5328 97.374 84.8834 97.5753Z" fill="#1A1613"/>
<path d="M88.2046 95.6681C88.5552 95.8693 88.5552 96.1958 88.2046 96.397C87.854 96.5983 87.2846 96.5983 86.934 96.397C86.5834 96.1958 86.5834 95.8693 86.934 95.6681C87.2846 95.4668 87.854 95.4668 88.2046 95.6681Z" fill="#1A1613"/>
<path d="M91.5257 93.7609C91.8763 93.9621 91.8763 94.2886 91.5257 94.491C91.174 94.6922 90.6057 94.6922 90.2552 94.491C89.9046 94.2886 89.9046 93.9621 90.2552 93.7609C90.6057 93.5596 91.174 93.5596 91.5257 93.7609Z" fill="#1A1613"/>
<path d="M94.8457 91.8537C95.1963 92.0561 95.1963 92.3825 94.8457 92.5838C94.4952 92.785 93.9269 92.785 93.5763 92.5838C93.2257 92.3825 93.2257 92.0561 93.5763 91.8537C93.9269 91.6524 94.4952 91.6524 94.8457 91.8537Z" fill="#1A1613"/>
<path d="M98.1669 89.9476C98.5175 90.1489 98.5175 90.4753 98.1669 90.6766C97.8163 90.8778 97.2481 90.8778 96.8964 90.6766C96.5458 90.4753 96.5458 90.1489 96.8964 89.9476C97.2481 89.7464 97.8163 89.7464 98.1669 89.9476Z" fill="#1A1613"/>
<path d="M101.488 88.0404C101.839 88.2417 101.839 88.5681 101.488 88.7693C101.138 88.9718 100.568 88.9718 100.218 88.7693C99.8669 88.5681 99.8669 88.2417 100.218 88.0404C100.568 87.8392 101.138 87.8392 101.488 88.0404Z" fill="#1A1613"/>
<path d="M104.809 86.1332C105.16 86.3356 105.16 86.6621 104.809 86.8633C104.457 87.0646 103.889 87.0646 103.539 86.8633C103.188 86.6621 103.188 86.3356 103.539 86.1332C103.889 85.932 104.457 85.932 104.809 86.1332Z" fill="#1A1613"/>
<path d="M108.129 84.2272C108.481 84.4284 108.481 84.7549 108.129 84.9561C107.779 85.1574 107.21 85.1574 106.86 84.9561C106.509 84.7549 106.509 84.4284 106.86 84.2272C107.21 84.0259 107.779 84.0259 108.129 84.2272Z" fill="#1A1613"/>
<path d="M111.45 82.3199C111.801 82.5212 111.801 82.8476 111.45 83.0489C111.1 83.2501 110.532 83.2501 110.181 83.0489C109.829 82.8476 109.829 82.5212 110.181 82.3199C110.532 82.1187 111.1 82.1187 111.45 82.3199Z" fill="#1A1613"/>
<path d="M114.772 80.4127C115.122 80.614 115.122 80.9404 114.772 81.1429C114.421 81.3441 113.852 81.3441 113.501 81.1429C113.15 80.9404 113.15 80.614 113.501 80.4127C113.852 80.2115 114.421 80.2115 114.772 80.4127Z" fill="#1A1613"/>
<path d="M118.093 78.5055C118.443 78.7079 118.443 79.0344 118.093 79.2356C117.742 79.4369 117.173 79.4369 116.822 79.2356C116.472 79.0344 116.472 78.7079 116.822 78.5055C117.173 78.3043 117.742 78.3043 118.093 78.5055Z" fill="#1A1613"/>
<path d="M121.413 76.5995C121.765 76.8007 121.765 77.1272 121.413 77.3284C121.062 77.5297 120.494 77.5297 120.143 77.3284C119.793 77.1272 119.793 76.8007 120.143 76.5995C120.494 76.3982 121.062 76.3982 121.413 76.5995Z" fill="#1A1613"/>
<path d="M124.734 74.6923C125.085 74.8935 125.085 75.22 124.734 75.4212C124.383 75.6236 123.815 75.6236 123.465 75.4212C123.113 75.22 123.113 74.8935 123.465 74.6923C123.815 74.491 124.383 74.491 124.734 74.6923Z" fill="#1A1613"/>
<path d="M128.055 72.7851C128.406 72.9863 128.406 73.3128 128.055 73.5152C127.705 73.7164 127.136 73.7164 126.785 73.5152C126.434 73.3128 126.434 72.9863 126.785 72.7851C127.136 72.5838 127.705 72.5838 128.055 72.7851Z" fill="#1A1613"/>
<path d="M131.376 70.879C131.727 71.0803 131.727 71.4067 131.376 71.608C131.026 71.8092 130.456 71.8092 130.106 71.608C129.755 71.4067 129.755 71.0803 130.106 70.879C130.456 70.6766 131.026 70.6766 131.376 70.879Z" fill="#1A1613"/>
<path d="M73.6458 99.4848C73.9964 99.2824 74.5646 99.2824 74.9164 99.4825C75.2681 99.6838 75.2693 100.01 74.9187 100.213C74.5693 100.414 73.9999 100.415 73.6481 100.214C73.2975 100.013 73.2964 99.6861 73.6458 99.4848Z" fill="#1A1613"/>
<path d="M78.2411 97.5753C78.5928 97.7765 78.5928 98.103 78.2411 98.3042C77.8905 98.5055 77.3222 98.5055 76.9716 98.3042C76.621 98.103 76.621 97.7765 76.9716 97.5753C77.3222 97.374 77.8905 97.374 78.2411 97.5753Z" fill="#1A1613"/>
<path d="M81.5622 95.6681C81.9128 95.8693 81.9128 96.1958 81.5622 96.397C81.2117 96.5983 80.6434 96.5983 80.2928 96.397C79.9411 96.1958 79.9411 95.8693 80.2928 95.6681C80.6434 95.4668 81.2117 95.4668 81.5622 95.6681Z" fill="#1A1613"/>
<path d="M84.8834 93.7609C85.234 93.9621 85.234 94.2886 84.8834 94.491C84.5328 94.6922 83.9634 94.6922 83.6128 94.491C83.2622 94.2886 83.2622 93.9621 83.6128 93.7609C83.9634 93.5596 84.5328 93.5596 84.8834 93.7609Z" fill="#1A1613"/>
<path d="M88.2046 91.8537C88.5552 92.0561 88.5552 92.3825 88.2046 92.5838C87.854 92.785 87.2846 92.785 86.934 92.5838C86.5834 92.3825 86.5834 92.0561 86.934 91.8537C87.2846 91.6524 87.854 91.6524 88.2046 91.8537Z" fill="#1A1613"/>
<path d="M91.5257 89.9476C91.8763 90.1489 91.8763 90.4753 91.5257 90.6766C91.1752 90.8778 90.6057 90.8778 90.2552 90.6766C89.9046 90.4753 89.9046 90.1489 90.2552 89.9476C90.6057 89.7464 91.1752 89.7464 91.5257 89.9476Z" fill="#1A1613"/>
<path d="M94.8457 88.0404C95.1963 88.2417 95.1963 88.5681 94.8457 88.7693C94.4952 88.9718 93.9269 88.9718 93.5763 88.7693C93.2257 88.5681 93.2257 88.2417 93.5763 88.0404C93.9269 87.8392 94.4952 87.8392 94.8457 88.0404Z" fill="#1A1613"/>
<path d="M98.1669 86.1332C98.5175 86.3356 98.5175 86.6621 98.1669 86.8633C97.8163 87.0646 97.2481 87.0646 96.8964 86.8633C96.5458 86.6621 96.5458 86.3356 96.8964 86.1332C97.2481 85.932 97.8163 85.932 98.1669 86.1332Z" fill="#1A1613"/>
<path d="M101.488 84.2272C101.839 84.4284 101.839 84.7549 101.488 84.9561C101.138 85.1574 100.568 85.1574 100.218 84.9561C99.8669 84.7549 99.8669 84.4284 100.218 84.2272C100.568 84.0259 101.138 84.0259 101.488 84.2272Z" fill="#1A1613"/>
<path d="M104.809 82.3199C105.16 82.5212 105.16 82.8476 104.809 83.0489C104.457 83.2501 103.889 83.2501 103.539 83.0489C103.188 82.8476 103.188 82.5212 103.539 82.3199C103.889 82.1187 104.457 82.1187 104.809 82.3199Z" fill="#1A1613"/>
<path d="M108.129 80.4127C108.481 80.614 108.481 80.9404 108.129 81.1429C107.779 81.3441 107.21 81.3441 106.86 81.1429C106.509 80.9404 106.509 80.614 106.86 80.4127C107.21 80.2115 107.779 80.2115 108.129 80.4127Z" fill="#1A1613"/>
<path d="M111.45 78.5055C111.801 78.7079 111.801 79.0344 111.45 79.2356C111.1 79.4369 110.532 79.4369 110.181 79.2356C109.829 79.0344 109.829 78.7079 110.181 78.5055C110.532 78.3043 111.1 78.3043 111.45 78.5055Z" fill="#1A1613"/>
<path d="M114.772 76.5995C115.122 76.8007 115.122 77.1272 114.772 77.3284C114.421 77.5297 113.852 77.5297 113.501 77.3284C113.15 77.1272 113.15 76.8007 113.501 76.5995C113.852 76.3982 114.421 76.3982 114.772 76.5995Z" fill="#1A1613"/>
<path d="M118.093 74.6923C118.443 74.8935 118.443 75.22 118.093 75.4212C117.742 75.6236 117.173 75.6236 116.822 75.4212C116.472 75.22 116.472 74.8935 116.822 74.6923C117.173 74.491 117.742 74.491 118.093 74.6923Z" fill="#1A1613"/>
<path d="M121.413 72.7851C121.765 72.9863 121.765 73.3128 121.413 73.5152C121.062 73.7164 120.494 73.7164 120.143 73.5152C119.793 73.3128 119.793 72.9863 120.143 72.7851C120.494 72.5838 121.062 72.5838 121.413 72.7851Z" fill="#1A1613"/>
<path d="M124.734 70.879C125.085 71.0803 125.085 71.4067 124.734 71.608C124.383 71.8092 123.815 71.8092 123.465 71.608C123.114 71.4067 123.114 71.0803 123.465 70.879C123.815 70.6766 124.383 70.6766 124.734 70.879Z" fill="#1A1613"/>
<path d="M128.055 68.9718C128.406 69.1731 128.406 69.4995 128.055 69.7008C127.705 69.902 127.136 69.902 126.785 69.7008C126.434 69.4995 126.434 69.1731 126.785 68.9718C127.136 68.7706 127.705 68.7706 128.055 68.9718Z" fill="#1A1613"/>
<path d="M70.3258 97.5776C70.6752 97.3752 71.2446 97.3752 71.5952 97.5765C71.9469 97.7777 71.9481 98.1041 71.5975 98.3054C71.2481 98.5078 70.6787 98.5078 70.3281 98.3066C69.9764 98.1053 69.9752 97.7789 70.3258 97.5776Z" fill="#1A1613"/>
<path d="M74.9211 95.6681C75.2716 95.8693 75.2716 96.1958 74.9211 96.397C74.5705 96.5983 74.001 96.5983 73.6505 96.397C73.2999 96.1958 73.2999 95.8693 73.6505 95.6681C74.001 95.4668 74.5705 95.4668 74.9211 95.6681Z" fill="#1A1613"/>
<path d="M78.2411 93.7609C78.5928 93.9621 78.5928 94.2886 78.2411 94.491C77.8905 94.6922 77.3222 94.6922 76.9716 94.491C76.621 94.2886 76.621 93.9621 76.9716 93.7609C77.3222 93.5596 77.8905 93.5596 78.2411 93.7609Z" fill="#1A1613"/>
<path d="M81.5622 91.8548C81.9128 92.0561 81.9128 92.3825 81.5622 92.5838C81.2117 92.785 80.6434 92.785 80.2928 92.5838C79.9411 92.3825 79.9411 92.0561 80.2928 91.8548C80.6434 91.6524 81.2117 91.6524 81.5622 91.8548Z" fill="#1A1613"/>
<path d="M84.8834 89.9476C85.234 90.1489 85.234 90.4753 84.8834 90.6766C84.5328 90.8778 83.9634 90.8778 83.6128 90.6766C83.2622 90.4753 83.2622 90.1489 83.6128 89.9476C83.9634 89.7464 84.5328 89.7464 84.8834 89.9476Z" fill="#1A1613"/>
<path d="M88.2046 88.0404C88.5552 88.2417 88.5552 88.5681 88.2046 88.7693C87.854 88.9718 87.2846 88.9718 86.934 88.7693C86.5834 88.5681 86.5834 88.2417 86.934 88.0404C87.2846 87.8392 87.854 87.8392 88.2046 88.0404Z" fill="#1A1613"/>
<path d="M91.5257 86.1332C91.8763 86.3356 91.8763 86.6621 91.5257 86.8633C91.1752 87.0646 90.6057 87.0646 90.2552 86.8633C89.9046 86.6621 89.9046 86.3356 90.2552 86.1332C90.6057 85.932 91.1752 85.932 91.5257 86.1332Z" fill="#1A1613"/>
<path d="M94.8457 84.2272C95.1963 84.4284 95.1963 84.7549 94.8457 84.9561C94.4952 85.1574 93.9269 85.1574 93.5763 84.9561C93.2257 84.7549 93.2257 84.4284 93.5763 84.2272C93.9269 84.0259 94.4952 84.0259 94.8457 84.2272Z" fill="#1A1613"/>
<path d="M98.1669 82.3199C98.5175 82.5212 98.5175 82.8476 98.1669 83.0489C97.8163 83.2501 97.2481 83.2501 96.8975 83.0489C96.5457 82.8476 96.5457 82.5212 96.8975 82.3199C97.2481 82.1187 97.8163 82.1187 98.1669 82.3199Z" fill="#1A1613"/>
<path d="M101.488 80.4127C101.839 80.614 101.839 80.9404 101.488 81.1429C101.138 81.3441 100.568 81.3441 100.218 81.1429C99.8669 80.9404 99.8669 80.614 100.218 80.4127C100.568 80.2115 101.138 80.2115 101.488 80.4127Z" fill="#1A1613"/>
<path d="M104.809 78.5067C105.16 78.7079 105.16 79.0344 104.809 79.2356C104.459 79.4369 103.889 79.4369 103.539 79.2356C103.188 79.0344 103.188 78.7079 103.539 78.5067C103.889 78.3043 104.459 78.3043 104.809 78.5067Z" fill="#1A1613"/>
<path d="M108.129 76.5995C108.481 76.8007 108.481 77.1272 108.129 77.3284C107.779 77.5297 107.21 77.5297 106.86 77.3284C106.509 77.1272 106.509 76.8007 106.86 76.5995C107.21 76.3982 107.779 76.3982 108.129 76.5995Z" fill="#1A1613"/>
<path d="M111.45 74.6923C111.801 74.8935 111.801 75.22 111.45 75.4212C111.1 75.6236 110.532 75.6236 110.181 75.4212C109.829 75.22 109.829 74.8935 110.181 74.6923C110.532 74.491 111.1 74.491 111.45 74.6923Z" fill="#1A1613"/>
<path d="M114.772 72.7851C115.122 72.9863 115.122 73.3128 114.772 73.5152C114.421 73.7164 113.852 73.7164 113.501 73.5152C113.15 73.3128 113.15 72.9863 113.501 72.7851C113.852 72.5838 114.421 72.5838 114.772 72.7851Z" fill="#1A1613"/>
<path d="M118.093 70.879C118.443 71.0803 118.443 71.4067 118.093 71.608C117.742 71.8092 117.173 71.8092 116.822 71.608C116.472 71.4067 116.472 71.0803 116.822 70.879C117.173 70.6766 117.742 70.6766 118.093 70.879Z" fill="#1A1613"/>
<path d="M121.413 68.9718C121.765 69.1731 121.765 69.4995 121.413 69.7008C121.062 69.902 120.494 69.902 120.143 69.7008C119.793 69.4995 119.793 69.1731 120.143 68.9718C120.494 68.7706 121.062 68.7706 121.413 68.9718Z" fill="#1A1613"/>
<path d="M124.734 67.0646C125.085 67.2658 125.085 67.5923 124.734 67.7935C124.383 67.996 123.815 67.996 123.465 67.7935C123.114 67.5923 123.114 67.2658 123.465 67.0646C123.815 66.8633 124.383 66.8633 124.734 67.0646Z" fill="#1A1613"/>
<path d="M66.9764 95.6505C67.3258 95.4493 67.894 95.4481 68.2458 95.6494C68.5975 95.8506 68.5987 96.1771 68.2481 96.3783C67.8975 96.5807 67.3293 96.5807 66.9787 96.3795C66.6269 96.1794 66.6258 95.8518 66.9764 95.6505Z" fill="#1A1613"/>
<path d="M71.5716 93.741C71.9222 93.9422 71.9222 94.2687 71.5716 94.4699C71.2199 94.6724 70.6516 94.6724 70.3011 94.4699C69.9505 94.2687 69.9505 93.9422 70.3011 93.741C70.6516 93.5397 71.2199 93.5397 71.5716 93.741Z" fill="#1A1613"/>
<path d="M74.8917 91.8338C75.2423 92.0362 75.2423 92.3626 74.8917 92.5639C74.5411 92.7651 73.9728 92.7651 73.6222 92.5639C73.2705 92.3626 73.2705 92.0362 73.6222 91.8338C73.9728 91.6325 74.5411 91.6325 74.8917 91.8338Z" fill="#1A1613"/>
<path d="M78.2128 89.9277C78.5634 90.129 78.5634 90.4554 78.2128 90.6567C77.8622 90.8579 77.2928 90.8579 76.9422 90.6567C76.5916 90.4554 76.5916 90.129 76.9422 89.9277C77.2928 89.7265 77.8622 89.7265 78.2128 89.9277Z" fill="#1A1613"/>
<path d="M81.534 88.0205C81.8846 88.2218 81.8846 88.5482 81.534 88.7495C81.1834 88.9507 80.614 88.9507 80.2634 88.7495C79.9128 88.5482 79.9128 88.2218 80.2634 88.0205C80.614 87.8193 81.1834 87.8193 81.534 88.0205Z" fill="#1A1613"/>
<path d="M84.854 86.1133C85.2058 86.3146 85.2058 86.641 84.854 86.8434C84.5034 87.0447 83.9352 87.0447 83.5846 86.8434C83.234 86.641 83.234 86.3146 83.5846 86.1133C83.9352 85.9121 84.5034 85.9121 84.854 86.1133Z" fill="#1A1613"/>
<path d="M88.1752 84.2061C88.5257 84.4085 88.5257 84.735 88.1752 84.9362C87.8246 85.1375 87.2563 85.1375 86.9057 84.9362C86.5552 84.735 86.5552 84.4085 86.9057 84.2061C87.2563 84.0048 87.8246 84.0048 88.1752 84.2061Z" fill="#1A1613"/>
<path d="M91.4963 82.3001C91.8469 82.5013 91.8469 82.8278 91.4963 83.029C91.1457 83.2303 90.5775 83.2303 90.2257 83.029C89.8752 82.8278 89.8752 82.5013 90.2257 82.3001C90.5775 82.0988 91.1457 82.0988 91.4963 82.3001Z" fill="#1A1613"/>
<path d="M94.8175 80.3928C95.1681 80.5941 95.1681 80.9205 94.8175 81.1218C94.4669 81.323 93.8975 81.323 93.5469 81.1218C93.1963 80.9205 93.1963 80.5941 93.5469 80.3928C93.8975 80.1916 94.4669 80.1916 94.8175 80.3928Z" fill="#1A1613"/>
<path d="M98.1387 78.4856C98.4893 78.6869 98.4893 79.0145 98.1387 79.2158C97.7881 79.417 97.2187 79.417 96.8681 79.2158C96.5175 79.0145 96.5175 78.6869 96.8681 78.4856C97.2187 78.2844 97.7881 78.2844 98.1387 78.4856Z" fill="#1A1613"/>
<path d="M101.459 76.5796C101.809 76.7808 101.809 77.1073 101.459 77.3085C101.108 77.5098 100.54 77.5098 100.189 77.3085C99.8387 77.1073 99.8387 76.7808 100.189 76.5796C100.54 76.3783 101.108 76.3783 101.459 76.5796Z" fill="#1A1613"/>
<path d="M104.78 74.6724C105.13 74.8736 105.13 75.2001 104.78 75.4013C104.429 75.6026 103.861 75.6026 103.51 75.4013C103.159 75.2001 103.159 74.8736 103.51 74.6724C103.861 74.4711 104.429 74.4711 104.78 74.6724Z" fill="#1A1613"/>
<path d="M108.101 72.7652C108.452 72.9664 108.452 73.2929 108.101 73.4953C107.75 73.6965 107.182 73.6965 106.83 73.4953C106.48 73.2929 106.48 72.9664 106.83 72.7652C107.182 72.5639 107.75 72.5639 108.101 72.7652Z" fill="#1A1613"/>
<path d="M111.422 70.858C111.773 71.0604 111.773 71.3868 111.422 71.5881C111.072 71.7893 110.502 71.7893 110.152 71.5881C109.801 71.3868 109.801 71.0604 110.152 70.858C110.502 70.6567 111.072 70.6567 111.422 70.858Z" fill="#1A1613"/>
<path d="M114.743 68.9519C115.094 69.1532 115.094 69.4796 114.743 69.6809C114.392 69.8821 113.823 69.8821 113.473 69.6809C113.122 69.4796 113.122 69.1532 113.473 68.9519C113.823 68.7507 114.392 68.7507 114.743 68.9519Z" fill="#1A1613"/>
<path d="M118.063 67.0447C118.414 67.246 118.414 67.5724 118.063 67.7737C117.713 67.9749 117.145 67.9749 116.794 67.7737C116.443 67.5724 116.443 67.246 116.794 67.0447C117.145 66.8435 117.713 66.8435 118.063 67.0447Z" fill="#1A1613"/>
<path d="M121.385 65.1375C121.735 65.3387 121.735 65.6652 121.385 65.8676C121.034 66.0689 120.465 66.0689 120.114 65.8676C119.763 65.6652 119.763 65.3387 120.114 65.1375C120.466 64.9362 121.034 64.9362 121.385 65.1375Z" fill="#1A1613"/>
<path d="M63.6552 93.7433C64.0046 93.5421 64.574 93.5409 64.9246 93.7421C65.2764 93.9434 65.2775 94.2698 64.9269 94.4711C64.5775 94.6735 64.0081 94.6735 63.6575 94.4734C63.3058 94.2722 63.3046 93.9457 63.6552 93.7433Z" fill="#1A1613"/>
<path d="M68.2504 91.8338C68.601 92.0362 68.601 92.3626 68.2504 92.5639C67.8999 92.7651 67.3305 92.7651 66.9799 92.5639C66.6293 92.3626 66.6293 92.0362 66.9799 91.8338C67.3305 91.6325 67.8999 91.6325 68.2504 91.8338Z" fill="#1A1613"/>
<path d="M71.5716 89.9277C71.9222 90.129 71.9222 90.4554 71.5716 90.6567C71.2199 90.8579 70.6516 90.8579 70.3011 90.6567C69.9505 90.4554 69.9505 90.129 70.3011 89.9277C70.6516 89.7265 71.2199 89.7265 71.5716 89.9277Z" fill="#1A1613"/>
<path d="M73.6222 88.0205C73.9728 87.8193 74.5411 87.8193 74.8917 88.0205C75.2423 88.2218 75.2423 88.5482 74.8917 88.7495C74.5411 88.9507 73.9728 88.9507 73.6222 88.7495C73.2705 88.5482 73.2705 88.2218 73.6222 88.0205C73.2705 88.2218 73.9728 87.8193 73.6222 88.0205Z" fill="#1A1613"/>
<path d="M98.1387 74.6724C98.4893 74.8736 98.4893 75.2001 98.1387 75.4013C97.7881 75.6026 97.2187 75.6026 96.8681 75.4013C96.5175 75.2001 97.7881 74.4711 98.1387 74.6724Z" fill="#1A1613"/>
<path d="M101.459 72.7652C101.809 72.9664 101.809 73.2929 101.459 73.4953C101.108 73.6965 100.54 73.6965 100.189 73.4953C99.8387 73.2929 101.108 72.5639 101.459 72.7652Z" fill="#1A1613"/>
<path d="M103.51 70.858C103.861 70.6567 104.429 70.6567 104.78 70.858C105.13 71.0604 105.13 71.3868 104.78 71.5881C104.429 71.7893 103.861 71.7893 103.51 71.5881C103.16 71.3868 103.16 71.0604 103.51 70.858C103.16 71.0604 103.861 70.6567 103.51 70.858Z" fill="#1A1613"/>
<path d="M108.101 68.9519C108.452 69.1532 108.452 69.4796 108.101 69.6809C107.75 69.8821 107.182 69.8821 106.83 69.6809C106.48 69.4796 106.48 69.1532 106.83 68.9519C107.182 68.7507 107.75 68.7507 108.101 68.9519Z" fill="#1A1613"/>
<path d="M111.422 67.0447C111.773 67.246 111.773 67.5724 111.422 67.7737C111.072 67.9761 110.502 67.9761 110.152 67.7737C109.801 67.5724 109.801 67.246 110.152 67.0447C110.502 66.8435 111.072 66.8435 111.422 67.0447Z" fill="#1A1613"/>
<path d="M114.743 65.1375C115.094 65.3387 115.094 65.6652 114.743 65.8676C114.392 66.0689 113.823 66.0689 113.473 65.8676C113.122 65.6652 113.122 65.3387 113.473 65.1375C113.823 64.9362 114.392 64.9362 114.743 65.1375Z" fill="#1A1613"/>
<path d="M118.063 63.2314C118.414 63.4327 118.414 63.7592 118.063 63.9604C117.713 64.1617 117.145 64.1617 116.794 63.9604C116.443 63.7592 116.443 63.4327 116.794 63.2314C117.145 63.029 117.713 63.029 118.063 63.2314Z" fill="#1A1613"/>
<path d="M133.449 68.9905C133.8 68.7881 134.368 68.7881 134.72 68.9894C135.07 69.1894 135.072 69.5159 134.722 69.7183C134.372 69.9196 133.803 69.9207 133.452 69.7195C133.101 69.5182 133.1 69.1918 133.449 68.9905Z" fill="#1A1613"/>
<path d="M130.128 67.0833C130.479 66.8809 131.047 66.8809 131.399 67.0821C131.75 67.2834 131.752 67.6098 131.401 67.8111C131.05 68.0135 130.482 68.0135 130.13 67.8123C129.78 67.611 129.779 67.2846 130.128 67.0833Z" fill="#1A1613"/>
<path d="M134.723 65.1738C135.075 65.375 135.075 65.7015 134.723 65.9027C134.373 66.1051 133.805 66.1051 133.454 65.9039C133.103 65.7015 133.103 65.375 133.454 65.1738C133.805 64.9725 134.373 64.9725 134.723 65.1738Z" fill="#1A1613"/>
<path d="M126.808 65.1761C127.158 64.9748 127.727 64.9737 128.078 65.1749C128.429 65.3762 128.43 65.7026 128.08 65.9039C127.73 66.1063 127.161 66.1063 126.81 65.9062C126.459 65.705 126.458 65.3785 126.808 65.1761Z" fill="#1A1613"/>
<path d="M131.403 63.2666C131.754 63.469 131.754 63.7954 131.403 63.9967C131.053 64.1979 130.483 64.1979 130.133 63.9967C129.782 63.7954 129.782 63.469 130.133 63.2666C130.483 63.0653 131.053 63.0653 131.403 63.2666Z" fill="#1A1613"/>
<path d="M123.458 63.249C123.808 63.0477 124.376 63.0466 124.728 63.2478C125.08 63.4491 125.081 63.7755 124.73 63.9779C124.38 64.1792 123.812 64.1804 123.46 63.9791C123.109 63.7779 123.108 63.4514 123.458 63.249Z" fill="#1A1613"/>
<path d="M128.053 61.3406C128.403 61.5419 128.403 61.8683 128.053 62.0696C127.702 62.2708 127.134 62.2708 126.783 62.0696C126.433 61.8683 126.433 61.5419 126.783 61.3406C127.134 61.1394 127.702 61.1394 128.053 61.3406Z" fill="#1A1613"/>
<path d="M131.374 59.4334C131.725 59.6347 131.725 59.9611 131.374 60.1624C131.023 60.3636 130.455 60.3636 130.105 60.1624C129.753 59.9611 129.753 59.6347 130.105 59.4334C130.455 59.2322 131.023 59.2322 131.374 59.4334Z" fill="#1A1613"/>
<path d="M120.138 61.343C120.487 61.1405 121.056 61.1405 121.407 61.3418C121.759 61.5419 121.76 61.8683 121.409 62.0707C121.06 62.272 120.49 62.2732 120.14 62.0719C119.788 61.8707 119.787 61.5442 120.138 61.343C119.787 61.5442 120.487 61.1405 120.138 61.343Z" fill="#1A1613"/>
<path d="M124.733 59.4334C125.083 59.6347 125.083 59.9611 124.733 60.1624C124.382 60.3636 123.813 60.3636 123.462 60.1624C123.112 59.9611 124.382 59.2322 124.733 59.4334Z" fill="#1A1613"/>
<path d="M133.34 59.6195C133.34 59.5891 133.342 59.5587 133.34 59.5271V57.6643H132.123C132.039 57.6082 131.956 57.5508 131.863 57.497L81.7692 28.7332C79.5739 27.4731 75.7409 27.631 73.2057 29.0854L3.72447 68.9836C3.27035 69.2433 2.89153 69.5288 2.58447 69.8272H1.63037V74.1553C1.65155 74.9381 2.13623 75.6811 3.10917 76.2404L53.2033 105.004C55.3974 106.264 59.2315 106.106 61.7657 104.652L131.248 64.7538C132.588 63.9851 133.289 63.0081 133.335 62.0708L133.34 60.9031V59.6195" fill="#379BA7"/>
<path d="M133.335 62.0534L133.34 60.8856V59.6021C133.34 59.5716 133.342 59.5401 133.34 59.5096V57.6469H132.123C132.039 57.5907 131.956 57.5334 131.863 57.4796L113.281 46.8097C111.867 46.8413 110.839 46.9209 110.409 47.0624C107.766 47.9353 59.681 75.4635 58.821 79.2019C57.961 82.9391 56.3669 101.655 56.3669 101.655V105.815C58.2081 105.916 60.2257 105.518 61.7657 104.633L131.248 64.7363C132.588 63.9676 133.289 62.9906 133.335 62.0534" fill="#1A1613"/>
<path d="M2.07156 70.2669V74.1563C2.08921 74.8045 2.5245 75.3965 3.33038 75.8599L53.4233 104.624C55.4939 105.814 59.1374 105.654 61.5456 104.27L131.027 64.3733C132.174 63.7157 132.854 62.8686 132.894 62.0496L132.9 59.5772L132.899 58.1029H131.99L131.88 58.0304C131.76 57.9497 131.706 57.9134 131.647 57.8806L81.5492 29.1133C79.4786 27.9245 75.8374 28.0813 73.4268 29.4655L3.94449 69.3637C3.53626 69.5977 3.18215 69.8598 2.89274 70.1406L2.76449 70.2669H2.07156ZM56.921 106.285C55.4457 106.285 54.0363 105.989 52.9821 105.384L2.8892 76.6204C1.81861 76.0061 1.21509 75.1344 1.18921 74.168V69.3894H2.40919C2.72331 69.1039 3.09038 68.8406 3.50332 68.6031L72.9856 28.705C75.6362 27.1815 79.6751 27.0248 81.9903 28.3516L132.083 57.1166C132.143 57.1517 132.2 57.1879 132.257 57.2254H133.781L133.776 62.0741C133.72 63.2325 132.901 64.3125 131.468 65.135L61.9868 105.032C60.5421 105.86 58.6857 106.285 56.921 106.285" fill="#1A1613"/>
<path d="M53.2033 100.822L3.10922 72.0585C0.913924 70.7983 1.18922 68.5962 3.72451 67.1418L73.2057 27.2437C75.741 25.7893 79.5739 25.6313 81.7692 26.8915L131.863 55.6553C134.057 56.9154 133.782 59.1175 131.248 60.5719L61.7657 100.47C59.2316 101.924 55.3975 102.082 53.2033 100.822Z" fill="#379BA7"/>
<path d="M78.0516 26.4738C76.448 26.4738 74.7515 26.8635 73.4268 27.624L3.9445 67.5222C2.75273 68.2055 2.06921 69.0807 2.06921 69.9231C2.06921 70.5877 2.51627 71.2114 3.32921 71.6782L53.4233 100.442C55.4939 101.632 59.1374 101.473 61.5457 100.09L131.027 60.1917C132.22 59.5072 132.903 58.632 132.903 57.7907C132.903 57.1261 132.455 56.5025 131.642 56.0356L81.5492 27.2718C80.6174 26.7348 79.3657 26.4738 78.0516 26.4738V26.4738ZM56.9222 102.104C55.4469 102.104 54.0363 101.807 52.9822 101.203L2.88803 72.4388C1.79038 71.8081 1.18686 70.9142 1.18686 69.9231C1.18686 68.7589 2.03156 67.6064 3.50332 66.7616L72.9857 26.8635C75.6386 25.3436 79.6774 25.1844 81.9904 26.5101L132.083 55.2751C133.181 55.9057 133.786 56.7996 133.786 57.7907C133.786 58.9549 132.941 60.1063 131.468 60.9534L61.9868 100.85C60.5421 101.679 58.6857 102.104 56.9222 102.104" fill="#1A1613"/>
<path d="M57.9822 98.0259L57.768 97.9042L9.46332 70.1666L75.828 32.0598L76.0422 32.1815L124.347 59.9191L57.9822 98.0259Z" fill="#056575"/>
<path d="M58.2422 95.2305L9.08096 67.0014L76.6492 28.2031L125.81 56.431L58.2422 95.2305" fill="#DDECF0"/>
<path d="M9.96331 67.0016L58.2422 94.724L124.929 56.4312L76.6504 28.7087L9.96331 67.0016ZM58.2422 95.7361L58.0221 95.6109L8.19861 67.0016L76.6504 27.6966L76.8704 27.8218L126.694 56.4312L58.2422 95.7361Z" fill="#1A1613"/>
<path d="M66.4645 43.7859L67.5269 39.679C67.6363 39.2566 68.321 38.9652 69.0563 39.0284C69.7904 39.0904 70.2987 39.4836 70.1893 39.906L69.5646 42.3233C69.5057 42.548 69.8304 42.7446 70.2245 42.7235L80.7528 42.156C81.4928 42.1162 82.1493 42.4275 82.2187 42.8534C82.2881 43.2781 81.7446 43.6549 81.0046 43.6947L67.514 44.4224C66.8881 44.4552 66.3728 44.1428 66.4645 43.7859" fill="#379BA7"/>
<path d="M66.9045 43.8458C66.9751 43.9055 67.1716 44.0014 67.4904 43.985L80.9798 43.2573C81.3763 43.235 81.6563 43.1005 81.7551 42.9753C81.7645 42.8091 81.3622 42.5775 80.7763 42.5938L70.2493 43.1625C69.8481 43.1918 69.4751 43.0455 69.274 42.8033C69.134 42.6324 69.0845 42.4195 69.1363 42.2159L69.7622 39.7974C69.661 39.6382 69.3998 39.4978 69.0175 39.4651C68.4375 39.4159 67.9904 39.6499 67.9551 39.7892L66.9045 43.8458ZM67.4222 44.8638C66.9104 44.8638 66.4528 44.6836 66.2045 44.3829C66.0328 44.1734 65.9728 43.923 66.0375 43.6761L67.0999 39.5692C67.2657 38.9292 68.1293 38.5068 69.0928 38.5899C69.6951 38.6413 70.2081 38.8871 70.4645 39.2463C70.6304 39.4791 70.6845 39.7529 70.6175 40.0162L70.0328 42.2709C70.0763 42.2814 70.1304 42.2873 70.2022 42.2873L80.7281 41.7186C81.7234 41.6484 82.5445 42.1223 82.654 42.7822C82.6963 43.042 82.621 43.3064 82.4422 43.5252C82.1622 43.8727 81.6328 44.0997 81.0281 44.1325L67.5387 44.8603C67.4987 44.8626 67.4599 44.8638 67.4222 44.8638" fill="#1A1613"/>
<path d="M103.984 62.0672L82.8727 49.9441C82.3468 49.6422 82.3468 49.1532 82.8727 48.8513C83.3974 48.5494 84.2504 48.5494 84.7751 48.8513L105.887 60.9744C106.413 61.2762 106.413 61.7653 105.887 62.0672C105.362 62.3679 104.509 62.3679 103.984 62.0672Z" fill="#379BA7"/>
<path d="M83.8245 49.0643C83.5563 49.0643 83.2869 49.1193 83.0928 49.2316C82.9504 49.3123 82.9198 49.3849 82.9198 49.3977C82.9198 49.4106 82.9504 49.4832 83.0928 49.5639L104.205 61.687C104.594 61.9104 105.279 61.9104 105.667 61.687C105.809 61.6051 105.84 61.5337 105.84 61.5208C105.84 61.5068 105.809 61.4354 105.666 61.3523L84.5551 49.2316C84.361 49.1193 84.0928 49.0643 83.8245 49.0643V49.0643ZM104.936 62.7295C104.514 62.7295 104.093 62.6359 103.763 62.4475L82.6516 50.3256C82.261 50.0998 82.0375 49.7628 82.0375 49.3977C82.0375 49.0327 82.261 48.6957 82.6516 48.471C83.3092 48.0943 84.3398 48.0919 84.9963 48.471L106.108 60.5929C106.499 60.8188 106.722 61.1569 106.722 61.522C106.721 61.8859 106.499 62.2228 106.108 62.4475C105.779 62.6359 105.357 62.7295 104.936 62.7295Z" fill="#1A1613"/>
<path d="M53.1881 51.4091L54.2504 47.3021C54.3598 46.8809 55.0445 46.5895 55.7798 46.6516C56.5151 46.7147 57.0222 47.1079 56.9128 47.5291L56.2881 49.9465C56.2292 50.1711 56.554 50.3689 56.9481 50.3466L67.4763 49.7791C68.2163 49.7394 68.8728 50.0518 68.9422 50.4765C69.0116 50.9012 68.4681 51.278 67.7281 51.3178L54.2375 52.0456C53.6116 52.0795 53.0963 51.7671 53.1881 51.4091" fill="#379BA7"/>
<path d="M53.628 51.4689C53.6986 51.5297 53.8928 51.6245 54.2139 51.6081L67.7033 50.8803C68.0986 50.8593 68.3775 50.7224 68.4786 50.5983C68.4869 50.4298 68.068 50.1947 67.4998 50.2169L56.9727 50.7844C56.5563 50.8124 56.1986 50.6685 55.9974 50.4263C55.8574 50.2555 55.808 50.0402 55.861 49.8378L56.4857 47.4193C56.3857 47.2613 56.1222 47.1209 55.741 47.0893C55.1528 47.032 54.7139 47.273 54.6786 47.4111L53.628 51.4689ZM54.1457 52.4868C53.6351 52.4868 53.1763 52.3078 52.9292 52.0071C52.7574 51.7988 52.6974 51.5484 52.761 51.3015V51.3004L53.8233 47.1934C53.9892 46.5534 54.8504 46.1334 55.8174 46.2141C56.4186 46.2656 56.9328 46.5113 57.1881 46.8705C57.3539 47.1045 57.408 47.376 57.341 47.6392L56.7563 49.8939C56.801 49.9056 56.8551 49.9092 56.9245 49.9092L67.4516 49.3417C68.4492 49.2785 69.2704 49.7453 69.3774 50.4064C69.4198 50.6662 69.3445 50.9283 69.1657 51.1494C68.8845 51.4969 68.3563 51.7239 67.7516 51.7555L54.261 52.4833C54.2222 52.4856 54.1833 52.4868 54.1457 52.4868" fill="#1A1613"/>
<path d="M90.708 69.6903L69.5963 57.5673C69.0704 57.2666 69.0704 56.7763 69.5963 56.4756C70.1221 56.1737 70.9739 56.1737 71.4986 56.4756L92.6104 68.5975C93.1362 68.8994 93.1362 69.3885 92.6104 69.6903C92.0857 69.9922 91.2327 69.9922 90.708 69.6903Z" fill="#379BA7"/>
<path d="M70.548 56.6871C70.2798 56.6871 70.0104 56.7433 69.8162 56.8556C69.6739 56.9364 69.6433 57.0077 69.6433 57.0206C69.6433 57.0346 69.6739 57.106 69.8162 57.1868L90.928 69.3098C91.3162 69.5345 92.001 69.5345 92.3904 69.3098C92.5339 69.2279 92.5645 69.1565 92.5645 69.1437C92.5633 69.1308 92.5339 69.0583 92.3904 68.9775L71.2786 56.8556C71.0845 56.7433 70.8162 56.6871 70.548 56.6871ZM91.6586 70.3535C91.2374 70.3535 90.8162 70.2599 90.4868 70.0715L69.3751 57.9473C68.9845 57.7226 68.761 57.3857 68.761 57.0206C68.761 56.6567 68.9845 56.3197 69.3751 56.0939C70.0315 55.7171 71.0621 55.7171 71.7198 56.0939L92.8316 68.217C93.2221 68.4405 93.4457 68.7786 93.4468 69.1425C93.4468 69.5076 93.2233 69.8445 92.8316 70.0704C92.5021 70.2599 92.081 70.3535 91.6586 70.3535Z" fill="#1A1613"/>
<path d="M39.9116 59.0333L40.974 54.9263C41.0834 54.5039 41.7681 54.2126 42.5034 54.2758C43.2387 54.3378 43.7457 54.7309 43.6363 55.1533L43.0116 57.5707C42.9528 57.7953 43.2775 57.9919 43.6716 57.9708L54.1998 57.4034C54.9398 57.3636 55.5963 57.6748 55.6657 58.0995C55.7351 58.5243 55.1916 58.9011 54.4516 58.942L40.961 59.6686C40.3351 59.7025 39.8199 59.3901 39.9116 59.0333" fill="#379BA7"/>
<path d="M40.3516 59.0928C40.4221 59.1525 40.6292 59.2414 40.9363 59.2309L54.428 58.5043C54.8233 58.4821 55.1021 58.3463 55.2033 58.2223C55.2104 58.0526 54.7915 57.8221 54.2245 57.8397L43.6963 58.4083C43.2998 58.4352 42.9221 58.2913 42.721 58.048C42.581 57.8783 42.5316 57.6642 42.5845 57.4594L43.2092 55.0432C43.1092 54.8853 42.8457 54.7449 42.4657 54.7133C41.8692 54.6501 41.4374 54.897 41.4021 55.035L40.3516 59.0928ZM40.8657 60.1096C40.3586 60.1096 39.8998 59.9318 39.6516 59.6311C39.481 59.4216 39.421 59.1712 39.4845 58.9243V58.9232L40.5468 54.8162C40.7127 54.1762 41.568 53.755 42.541 53.8381C43.1433 53.8907 43.6563 54.1341 43.9104 54.4945C44.0774 54.7261 44.1316 54.9999 44.0633 55.262L43.4798 57.5179C43.5222 57.5296 43.5716 57.5343 43.648 57.5331L54.1763 56.9645C55.1657 56.8943 55.9939 57.3681 56.101 58.0304C56.1433 58.2878 56.068 58.5523 55.8904 58.7711C55.6104 59.1197 55.081 59.3479 54.4763 59.3795L40.9845 60.1061C40.9445 60.1084 40.9045 60.1096 40.8657 60.1096" fill="#1A1613"/>
<path d="M77.4315 77.3134L56.3198 65.1915C55.7939 64.8896 55.7939 64.4005 56.3198 64.0986C56.8457 63.7968 57.6974 63.7968 58.2221 64.0986L79.3339 76.2205C79.8598 76.5224 79.8598 77.0115 79.3339 77.3134C78.8092 77.6153 77.9562 77.6153 77.4315 77.3134Z" fill="#379BA7"/>
<path d="M57.2715 64.3113C57.0033 64.3113 56.7351 64.3674 56.541 64.4786C56.3974 64.5605 56.3668 64.6307 56.3668 64.6448C56.3668 64.6588 56.3974 64.729 56.541 64.8109L77.6515 76.9328C78.0398 77.1563 78.7245 77.1563 79.1127 76.9328C79.2562 76.8521 79.288 76.7807 79.288 76.7667C79.288 76.7538 79.2562 76.6824 79.1127 76.6017L58.0021 64.4786C57.808 64.3674 57.5386 64.3113 57.2715 64.3113ZM78.3821 77.9753C77.9609 77.9753 77.5386 77.8817 77.2104 77.6934L56.0998 65.5714C55.7092 65.3468 55.4845 65.0087 55.4845 64.6448C55.4845 64.2797 55.7092 63.9427 56.0998 63.7181C56.7563 63.3413 57.7857 63.3413 58.4433 63.7181L79.5539 75.84C79.9445 76.0658 80.1703 76.4028 80.1703 76.7667C80.1703 77.1317 79.9445 77.4687 79.5539 77.6934C79.2256 77.8817 78.8045 77.9753 78.3821 77.9753Z" fill="#1A1613"/>
<path d="M26.6022 66.6749L27.6657 62.568C27.774 62.1456 28.4587 61.8542 29.194 61.9174C29.9292 61.9806 30.4363 62.3726 30.3269 62.795L29.7022 65.2123C29.6434 65.437 29.9681 65.6336 30.3634 65.6125L40.8904 65.045C41.6304 65.0052 42.2869 65.3176 42.3563 65.7424C42.4257 66.1671 41.8822 66.5439 41.1422 66.5837L27.6516 67.3114C27.0257 67.3454 26.5104 67.033 26.6022 66.6749" fill="#379BA7"/>
<path d="M27.0434 66.7347C27.1128 66.7955 27.3339 66.8868 27.6281 66.8727L41.1175 66.1461C41.5127 66.1251 41.7928 65.9882 41.8939 65.8641C41.9022 65.6968 41.5057 65.4628 40.9151 65.4827L30.3869 66.0502C29.9939 66.083 29.6139 65.9367 29.4127 65.6922C29.2727 65.5225 29.2222 65.3072 29.2751 65.1036L29.8998 62.6851C29.7986 62.5271 29.5363 62.3867 29.1563 62.3551C28.5763 62.2908 28.1292 62.5388 28.0928 62.6769L27.0434 66.7347ZM27.5563 67.7515C27.048 67.7515 26.5916 67.5736 26.3433 67.2729C26.1716 67.0635 26.1116 66.8131 26.1751 66.5662L27.2386 62.4593C27.4033 61.8192 28.2551 61.398 29.2316 61.4799C29.8339 61.5314 30.3457 61.7771 30.6022 62.1351C30.7681 62.3692 30.8221 62.6418 30.7539 62.9051L30.1716 65.1598C30.2139 65.1715 30.2739 65.1762 30.3386 65.175L40.8669 64.6075C41.8539 64.5467 42.6833 65.01 42.7916 65.6711C42.8339 65.932 42.7586 66.1941 42.581 66.4153C42.2986 66.7616 41.7704 66.9898 41.1657 67.0213L27.6763 67.748C27.6363 67.7503 27.5951 67.7515 27.5563 67.7515" fill="#1A1613"/>
<path d="M64.1222 84.956L43.0104 72.8329C42.4845 72.531 42.4845 72.0419 43.0104 71.7401C43.5363 71.4394 44.388 71.4394 44.9139 71.7401L66.0245 83.8631C66.5504 84.165 66.5504 84.6541 66.0257 84.956H66.0245C65.4998 85.2578 64.648 85.2578 64.1222 84.956Z" fill="#379BA7"/>
<path d="M43.9622 71.953C43.694 71.953 43.4245 72.0092 43.2304 72.1215C43.0881 72.2022 43.0575 72.2724 43.0575 72.2864C43.0575 72.3005 43.0881 72.3707 43.2304 72.4526L64.3445 84.5757C64.7328 84.7992 65.4151 84.7992 65.8034 84.5757C65.9481 84.4938 65.9787 84.4224 65.9787 84.4095C65.9787 84.3955 65.9481 84.3241 65.8046 84.2434L44.694 72.1215C44.4987 72.0092 44.2304 71.953 43.9622 71.953ZM65.0739 85.6194C64.6516 85.6194 64.2304 85.5246 63.9022 85.3362L42.7893 73.2131C42.3987 72.9885 42.1751 72.6515 42.1751 72.2864C42.1751 71.9226 42.3987 71.5856 42.7893 71.3598C43.4457 70.983 44.4763 70.983 45.1351 71.3598L66.2457 83.4828C66.6363 83.7075 66.861 84.0445 66.861 84.4095C66.861 84.7734 66.6363 85.1104 66.2457 85.3362C65.9175 85.5246 65.4951 85.6194 65.0739 85.6194Z" fill="#1A1613"/>
<path d="M117.983 39.9962L117.961 40.1893L112.955 37.3144C112.868 37.3776 112.789 37.4431 112.687 37.5016C111.275 38.3125 110.453 39.6077 109.041 38.7969C107.628 37.986 106.161 37.7169 107.573 36.9049C107.675 36.8464 107.79 36.8019 107.9 36.7516L108.36 33.0004L106.412 32.3299L106.112 35.7243L100.579 30.2074C99.6069 29.6493 97.9457 29.9196 97.6281 30.6872L96.9234 32.3931L96.2798 32.3299V36.4181C96.2798 36.4322 96.2786 36.4462 96.2798 36.4614V36.4731H96.2834C96.3057 36.7188 96.4787 36.954 96.7892 37.133L112.006 45.8699C112.43 46.1145 113.042 46.2163 113.628 46.1414L119.199 45.4312C120.095 45.3165 120.608 44.8555 120.569 44.3933V40.3695L117.983 39.9962" fill="#1A1613"/>
<path d="M96.7198 36.4181L96.7209 36.4322C96.7315 36.5351 96.8386 36.6557 97.0092 36.7539L112.227 45.4897C112.567 45.6862 113.085 45.767 113.572 45.7061L119.142 44.9959C119.81 44.9116 120.145 44.6133 120.129 44.4308L120.128 40.7486L118.37 40.4946L118.323 40.9042L112.982 37.8363C112.959 37.8515 112.934 37.8667 112.91 37.8819C112.554 38.0855 112.235 38.3242 111.927 38.5559C111.033 39.224 110.109 39.9178 108.82 39.1771C108.509 38.9981 108.194 38.846 107.91 38.7091C107.166 38.3499 106.577 38.0656 106.557 37.5203C106.542 37.0523 106.974 36.7422 107.352 36.5258C107.387 36.5059 107.941 36.8686 107.979 36.8499V33.4438L106.805 32.8892L106.467 36.7013L100.312 30.5619C99.848 30.3209 99.1304 30.2846 98.5786 30.4695C98.2998 30.5643 98.0974 30.7082 98.0363 30.8545L97.2057 32.8635L96.7209 32.8143L96.7198 36.4181ZM113.249 46.6047C112.709 46.6047 112.184 46.4795 111.784 46.249L96.568 37.5133C96.3551 37.3905 96.1833 37.2407 96.061 37.0734L95.8409 37.1822L95.8386 31.8455L96.641 31.9239L97.2209 30.521C97.3809 30.1325 97.7621 29.8189 98.2939 29.6388C99.1115 29.3638 100.119 29.4375 100.8 29.8271L100.892 29.8985L105.755 34.7473L106.019 31.7695L108.861 32.7722V37.4127L108.083 37.1506C107.921 37.222 107.855 37.25 107.795 37.2851C107.637 37.3741 107.546 37.4431 107.494 37.4887C107.655 37.6104 108.017 37.7859 108.295 37.9193C108.597 38.0656 108.93 38.2271 109.261 38.4166C110.013 38.8495 110.483 38.5383 111.396 37.8538C111.71 37.6186 112.067 37.3519 112.467 37.1213C112.524 37.0886 112.574 37.0511 112.623 37.0137L112.856 36.8358L113.175 36.933L117.652 39.5048L120.741 39.9506C120.895 39.9728 121.01 40.105 121.01 40.2606V44.3933C121.072 45.1059 120.35 45.7272 119.254 45.8664L113.684 46.5778C113.54 46.5954 113.394 46.6047 113.249 46.6047" fill="#1A1613"/>
<path d="M120.06 39.7096L112.955 35.6296C112.868 35.6928 112.789 35.7594 112.687 35.8179C111.275 36.6288 108.986 36.6288 107.573 35.8179C106.161 35.0071 106.161 33.6919 107.573 32.8811C107.675 32.8226 107.79 32.7781 107.9 32.7278L100.579 28.5237C99.6068 27.9656 97.9457 28.2359 97.628 29.0035L96.3222 32.1627C96.181 32.5031 96.3574 32.8612 96.7892 33.1081L112.006 41.8461C112.43 42.0895 113.042 42.1925 113.628 42.1176L119.199 41.4062C120.552 41.2342 121.039 40.2724 120.06 39.7096" fill="#DDECF0"/>
<path d="M99.3386 28.6677C99.0762 28.6677 98.8127 28.7063 98.5786 28.7847C98.2998 28.8807 98.0974 29.0246 98.0363 29.1708L96.7304 32.33C96.6562 32.5091 96.9257 32.6811 97.0092 32.7302L112.227 41.4648C112.567 41.6602 113.084 41.7432 113.572 41.6824L119.142 40.971C119.802 40.8867 120.099 40.6071 120.13 40.4491C120.162 40.2888 119.915 40.1332 119.839 40.0888L112.982 36.1515C112.959 36.1679 112.934 36.1831 112.91 36.1971C111.35 37.091 108.91 37.0899 107.352 36.1983C106.527 35.7244 106.072 35.068 106.072 34.3484C106.072 33.7376 106.403 33.1701 107.01 32.7232L100.359 28.9041C100.087 28.7484 99.7151 28.6677 99.3386 28.6677V28.6677ZM113.249 42.5798C112.709 42.5798 112.184 42.4558 111.784 42.2253L96.568 33.4896C95.9433 33.1292 95.6868 32.543 95.9151 31.9954L97.2209 28.8362C97.3809 28.4477 97.7621 28.1353 98.2939 27.954C99.1115 27.679 100.119 27.7539 100.8 28.1435L108.861 32.7723L108.083 33.1257C107.921 33.1982 107.855 33.2251 107.795 33.2614C107.252 33.5715 106.954 33.9576 106.954 34.3484C106.954 34.7404 107.252 35.1277 107.793 35.4389C109.06 36.1644 111.202 36.1644 112.467 35.4377C112.524 35.405 112.574 35.3664 112.623 35.3289L112.856 35.1522L113.175 35.2494L120.28 39.3294C120.827 39.6441 121.095 40.1274 120.995 40.6223C120.868 41.2541 120.2 41.721 119.254 41.8427L113.684 42.5529C113.54 42.5716 113.394 42.5798 113.249 42.5798" fill="#1A1613"/>
<path d="M120.907 53.7621L81.5163 31.1435C80.5692 30.6006 80.6881 29.6505 81.781 29.0233L84.2175 27.6239C85.3104 26.9968 86.9634 26.9289 87.9104 27.4718L127.301 50.0904C128.247 50.6333 128.128 51.5834 127.035 52.2106L124.6 53.61C123.507 54.2371 121.853 54.305 120.907 53.7621Z" fill="#DDECF0"/>
<path d="M121.127 53.382C121.937 53.8453 123.426 53.7774 124.379 53.2298L126.815 51.8304C127.243 51.5859 127.499 51.2793 127.499 51.0114C127.499 50.7633 127.272 50.5785 127.081 50.4697L87.6892 27.8534C86.881 27.3865 85.3904 27.4579 84.4386 28.0043L82.001 29.4037C81.5739 29.6495 81.3175 29.9548 81.3186 30.2228C81.3186 30.4708 81.5469 30.6534 81.7375 30.7634L121.127 53.382ZM122.515 54.5696C121.836 54.5696 121.185 54.428 120.686 54.1425L81.2963 31.5239C80.741 31.2056 80.4363 30.7423 80.4363 30.2228C80.4351 29.6296 80.8457 29.0539 81.5598 28.6432L83.9975 27.2438C85.2304 26.5382 87.0469 26.4692 88.1304 27.0917L127.522 49.7091C128.076 50.0285 128.381 50.4907 128.381 51.0126C128.38 51.6046 127.972 52.1815 127.256 52.591L124.82 53.9904C124.154 54.3742 123.315 54.5696 122.515 54.5696" fill="#1A1613"/>
<path d="M108.568 48.5481L88.8727 37.2395C88.3998 36.9668 88.4586 36.4929 89.0057 36.1794L90.2233 35.4797C90.7692 35.1661 91.5963 35.131 92.0692 35.4036L111.765 46.7123C112.239 46.9838 112.179 47.4588 111.633 47.7724L110.414 48.4721C109.868 48.7857 109.041 48.8196 108.568 48.5481Z" fill="#379BA7"/>
<path d="M91.2727 35.6564C90.9857 35.6564 90.6751 35.7266 90.4433 35.86L89.2257 36.5597C89.041 36.665 88.9963 36.7609 88.9951 36.7785C88.9974 36.7832 89.0222 36.8183 89.0939 36.8592L108.788 48.1679C109.128 48.3657 109.783 48.3282 110.193 48.0919L111.412 47.3922C111.596 47.2869 111.642 47.1909 111.643 47.1722C111.641 47.1675 111.615 47.1324 111.544 47.0926L91.8492 35.7839C91.7021 35.6985 91.4939 35.6564 91.2727 35.6564V35.6564ZM109.374 49.1719C108.996 49.173 108.632 49.0923 108.347 48.9285L88.6527 37.6198C88.3092 37.422 88.1116 37.1155 88.1127 36.7785C88.1127 36.4006 88.3574 36.0437 88.7845 35.7992L90.0022 35.0995C90.6927 34.704 91.6751 34.67 92.2904 35.0234L111.986 46.3321C112.329 46.5287 112.526 46.8352 112.526 47.1734C112.526 47.5513 112.281 47.907 111.853 48.1527L110.634 48.8524C110.264 49.0642 109.81 49.1719 109.374 49.1719" fill="#1A1613"/>
<defs>
<linearGradient id="paint0_linear" x1="66" y1="0" x2="66" y2="128" gradientUnits="userSpaceOnUse">
<stop stop-color="#D2EEF5"/>
<stop offset="1" stop-color="#B6E9F0"/>
</linearGradient>
</defs>
</svg>
