<svg width="114" height="40" viewBox="0 0 114 40" fill="none" xmlns="http://www.w3.org/2000/svg">
<path fill-rule="evenodd" clip-rule="evenodd" d="M19.5266 10.8248C18.5871 10.8248 17.8255 10.0634 17.8255 9.12403V4.85166C17.8255 3.91319 17.0656 3.15218 16.1272 3.15007H16.1053C15.4126 3.15007 14.7325 3.20443 14.069 3.30929C13.2299 3.44178 12.6017 4.14696 12.6017 4.99643V27.2091C12.6017 28.0584 13.2299 28.7636 14.069 28.8964C14.7325 29.0009 15.4126 29.0555 16.1053 29.0555L16.162 29.0553C17.0813 29.0534 17.8255 28.3077 17.8255 27.3887V23.6383C17.8255 22.6989 18.5871 21.9374 19.5266 21.9374L28.2069 21.9528L29.6948 21.9374C30.3678 21.924 30.8278 22.6307 30.5274 23.2327C27.6638 28.9734 21.3549 33.8819 16.9067 38.3508C16.2257 39.0584 15.761 38.7003 15.376 38.2979C9.18356 31.8234 0 25.9599 0 16.1028C0 11.6564 1.80296 7.63044 4.71741 4.71646C7.63165 1.80247 11.6582 0 16.1053 0C20.5528 0 24.5792 1.80247 27.4936 4.71646C28.7339 5.95651 29.7727 7.398 30.557 8.98794C30.9737 9.83295 30.3579 10.8248 29.4154 10.8248H19.5266Z" fill="#0B606E"/>
<path fill-rule="evenodd" clip-rule="evenodd" d="M46.3117 18.7915C43.4283 18.7915 41.1647 20.9249 41.1647 23.7214C41.1647 26.5324 43.4283 28.6514 46.2973 28.6514C48.2148 28.6514 49.8007 27.7144 50.6657 26.1L48.7771 24.817C48.2004 25.7972 47.4219 26.3738 46.2973 26.3738C44.7835 26.3738 43.7023 25.3359 43.7023 23.7359C43.7023 22.1358 44.7835 21.0691 46.2973 21.0691C47.4219 21.0691 48.2004 21.6457 48.7771 22.6259L50.6657 21.343C49.8007 19.7284 48.2148 18.7915 46.3117 18.7915ZM60.4128 18.9644H53.8096V28.4784H60.5857V26.244H56.2894V24.5863H59.2305V22.5106H56.2894V21.1988H60.4128V18.9644ZM67.5935 18.9644H63.8595V28.4784H66.3392V25.5233H67.5935C69.684 25.5233 71.2699 24.2115 71.2699 22.2367C71.2699 20.2186 69.684 18.9644 67.5935 18.9644ZM67.608 21.1267C68.2999 21.1267 68.7469 21.5736 68.7469 22.2367C68.7469 22.9142 68.2999 23.3611 67.608 23.3611H66.3392V21.1267H67.608ZM80.4114 23.3755C80.7719 22.9719 80.9881 22.4241 80.9881 21.7754C80.9881 20.0888 79.5897 18.9644 77.7731 18.9644H74.3418V28.4784H78.7823C80.6133 28.4784 81.9974 27.3251 81.9974 25.653C81.9974 24.5286 81.3774 23.7647 80.4114 23.3755ZM77.6144 21.0546C78.2057 21.0546 78.566 21.3862 78.566 21.8907C78.566 22.3952 78.2057 22.7268 77.6144 22.7268H76.7206V21.0546H77.6144ZM78.6237 26.3882H76.7206V24.7161H78.6237C79.2004 24.7161 79.5752 24.99 79.5752 25.5522C79.5752 26.1143 79.2004 26.3882 78.6237 26.3882ZM92.8545 18.7915L87.549 23.8656V18.9644H85.0692V28.6514H85.8622L91.1677 23.5052V28.4784H93.6475V18.7915H92.8545ZM101.938 18.7915C99.0549 18.7915 96.7914 20.9249 96.7914 23.7214C96.7914 26.5324 99.0549 28.6514 101.924 28.6514C103.841 28.6514 105.427 27.7144 106.292 26.1L104.404 24.817C103.827 25.7972 103.049 26.3738 101.924 26.3738C100.41 26.3738 99.3289 25.3359 99.3289 23.7359C99.3289 22.1358 100.41 21.0691 101.924 21.0691C103.049 21.0691 103.827 21.6457 104.404 22.6259L106.292 21.343C105.427 19.7284 103.841 18.7915 101.938 18.7915Z" fill="#151515"/>
<path d="M41.8136 36.4914V35.8883H44.2018V38.9034H43.3855V36.5827H42.63V36.8568C42.63 38.404 41.9782 38.8913 41.113 38.94V38.2151C41.6065 38.1542 41.8136 37.7339 41.8136 36.4914Z" fill="#0B606E"/>
<path d="M48.7832 35.8883H51.025V36.5827H49.6056V38.9034H48.7832V35.8883Z" fill="#0B606E"/>
<path d="M52.3776 37.4964L54.12 35.8213H54.388V38.9034H53.5716V37.2954L51.8293 38.9766H51.5551V35.8883H52.3776V37.4964Z" fill="#0B606E"/>
<path d="M55.0642 37.3928C55.0642 36.5035 55.777 35.8213 56.6786 35.8213C57.2817 35.8213 57.7386 36.1137 57.9884 36.5644L57.4158 37.009C57.2452 36.7533 57.0259 36.5705 56.6908 36.5705C56.2218 36.5705 55.8988 36.9238 55.8988 37.3928C55.8988 37.868 56.2218 38.2212 56.6908 38.2212C57.0198 38.2212 57.2391 38.0385 57.4158 37.7888L57.9884 38.2273C57.7386 38.6781 57.2756 38.9766 56.6786 38.9766C55.777 38.9766 55.0642 38.2883 55.0642 37.3928Z" fill="#0B606E"/>
<path d="M58.2565 35.8822H60.9797V36.5766H60.0232V38.9034H59.2069V36.5766H58.2565V35.8822Z" fill="#0B606E"/>
<path d="M62.3078 37.4964L64.0502 35.8213H64.3182V38.9034H63.5018V37.2954L61.7595 38.9766H61.4854V35.8883H62.3078V37.4964Z" fill="#0B606E"/>
<path d="M66.9439 37.1187V35.8883H67.7664V38.9034H66.9439V37.874C66.7916 37.9167 66.615 37.9532 66.4139 37.9532C65.6158 37.9532 64.9944 37.4416 64.9944 36.534V35.8883H65.8108V36.4791C65.8108 36.9664 66.0728 37.1979 66.4809 37.1979C66.6271 37.1979 66.7916 37.1674 66.9439 37.1187Z" fill="#0B606E"/>
<path d="M71.9091 37.3928C71.9091 36.5035 72.6219 35.8213 73.5236 35.8213C74.1266 35.8213 74.5835 36.1137 74.8334 36.5644L74.2607 37.009C74.0902 36.7533 73.8708 36.5705 73.5357 36.5705C73.0667 36.5705 72.7437 36.9238 72.7437 37.3928C72.7437 37.868 73.0667 38.2212 73.5357 38.2212C73.8647 38.2212 74.084 38.0385 74.2607 37.7888L74.8334 38.2273C74.5835 38.6781 74.1205 38.9766 73.5236 38.9766C72.6219 38.9766 71.9091 38.2883 71.9091 37.3928Z" fill="#0B606E"/>
<path d="M77.2214 37.2527L78.4643 38.9034H77.5261L76.2955 37.271V38.9034H75.4731V35.8883H76.2955V37.2588L77.4286 35.8883H78.3729L77.2214 37.2527Z" fill="#0B606E"/>
<path d="M79.7741 37.4964L81.5164 35.8213H81.7845V38.9034H80.9681V37.2954L79.2258 38.9766H78.9517V35.8883H79.7741V37.4964Z" fill="#0B606E"/>
<path d="M98.8304 35.8883H99.6468V38.9034H95.163V35.8883H95.9793V38.2091H96.9967V35.8883H97.813V38.2091H98.8304V35.8883Z" fill="#0B606E"/>
<path d="M105.958 35.8883H106.775V38.9034H105.958V37.6913H104.819V38.9034H103.997V35.8883H104.819V36.9908H105.958V35.8883Z" fill="#0B606E"/>
<path d="M108.474 37.4964L110.217 35.8213H110.485V38.9034H109.668V37.2954L107.926 38.9766H107.652V35.8883H108.474V37.4964Z" fill="#0B606E"/>
<path fill-rule="evenodd" clip-rule="evenodd" d="M46.4925 35.8213C45.5909 35.8213 44.878 36.5035 44.878 37.3928C44.878 38.2883 45.5909 38.9705 46.4864 38.9705C47.3819 38.9705 48.113 38.2883 48.113 37.3928C48.113 36.5035 47.3819 35.8213 46.4925 35.8213ZM47.2723 37.3989C47.2723 36.9238 46.9372 36.5705 46.4925 36.5705C46.0356 36.5705 45.7127 36.9238 45.7127 37.3989C45.7127 37.874 46.0356 38.2151 46.4925 38.2151C46.9372 38.2151 47.2723 37.868 47.2723 37.3989Z" fill="#0B606E"/>
<path fill-rule="evenodd" clip-rule="evenodd" d="M71.44 37.2223C71.44 36.4425 70.8674 35.8213 70.0205 35.8213C69.131 35.8213 68.4426 36.5096 68.4426 37.3989C68.4426 38.2883 69.1371 38.9766 70.0937 38.9766C70.5566 38.9766 70.9587 38.8121 71.2998 38.5258L70.9587 37.9654C70.715 38.1542 70.447 38.2699 70.118 38.2699C69.6855 38.2699 69.3687 38.0568 69.2651 37.6731H71.3852C71.4095 37.5695 71.44 37.3928 71.44 37.2223ZM70.6419 37.0943C70.6359 36.7106 70.3373 36.4852 69.9901 36.4852C69.6428 36.4852 69.3625 36.7167 69.2651 37.0943H70.6419Z" fill="#0B606E"/>
<path fill-rule="evenodd" clip-rule="evenodd" d="M85.4581 37.2223C85.4581 36.4425 84.8854 35.8213 84.0386 35.8213C83.1491 35.8213 82.4607 36.5096 82.4607 37.3989C82.4607 38.2883 83.1552 38.9766 84.1117 38.9766C84.5747 38.9766 84.9767 38.8121 85.3179 38.5258L84.9767 37.9654C84.7331 38.1542 84.465 38.2699 84.136 38.2699C83.7035 38.2699 83.3868 38.0568 83.2832 37.6731H85.4033C85.4276 37.5695 85.4581 37.3928 85.4581 37.2223ZM84.66 37.0943C84.6539 36.7106 84.3554 36.4852 84.0081 36.4852C83.6609 36.4852 83.3806 36.7167 83.2832 37.0943H84.66Z" fill="#0B606E"/>
<path fill-rule="evenodd" clip-rule="evenodd" d="M89.5581 35.8213C89.1439 35.8213 88.7966 35.9796 88.5894 36.2599V35.8883H87.8341V39.9999H88.6565V38.611C88.8698 38.8425 89.1865 38.9766 89.5581 38.9766C90.4049 38.9766 91.0202 38.3004 91.0202 37.3928C91.0202 36.4852 90.411 35.8213 89.5581 35.8213ZM88.6382 37.3928C88.6382 37.9654 89.022 38.2273 89.4059 38.2273C89.8262 38.2273 90.1795 37.9106 90.1795 37.3989C90.1795 36.8872 89.8323 36.5644 89.4059 36.5644C89.0281 36.5644 88.6382 36.8141 88.6382 37.3928Z" fill="#0B606E"/>
<path fill-rule="evenodd" clip-rule="evenodd" d="M94.4928 37.2223C94.4928 36.4425 93.9201 35.8213 93.0733 35.8213C92.1838 35.8213 91.4954 36.5096 91.4954 37.3989C91.4954 38.2883 92.1899 38.9766 93.1464 38.9766C93.6094 38.9766 94.0115 38.8121 94.3526 38.5258L94.0115 37.9654C93.7678 38.1542 93.4997 38.2699 93.1707 38.2699C92.7382 38.2699 92.4215 38.0568 92.3179 37.6731H94.438C94.4623 37.5695 94.4928 37.3928 94.4928 37.2223ZM93.6947 37.0943C93.6886 36.7106 93.3901 36.4852 93.0429 36.4852C92.6956 36.4852 92.4153 36.7167 92.3179 37.0943H93.6947Z" fill="#0B606E"/>
<path fill-rule="evenodd" clip-rule="evenodd" d="M103.327 37.2223C103.327 36.4425 102.754 35.8213 101.907 35.8213C101.018 35.8213 100.329 36.5096 100.329 37.3989C100.329 38.2883 101.024 38.9766 101.98 38.9766C102.443 38.9766 102.845 38.8121 103.186 38.5258L102.845 37.9654C102.602 38.1542 102.333 38.2699 102.004 38.2699C101.572 38.2699 101.255 38.0568 101.152 37.6731H103.272C103.296 37.5695 103.327 37.3928 103.327 37.2223ZM102.528 37.0943C102.522 36.7106 102.224 36.4852 101.877 36.4852C101.529 36.4852 101.249 36.7167 101.152 37.0943H102.528Z" fill="#0B606E"/>
<path fill-rule="evenodd" clip-rule="evenodd" d="M112.587 35.8883C111.862 35.8883 111.319 36.3025 111.319 37.0151C111.319 37.4294 111.508 37.7461 111.813 37.935L111.027 38.9034H111.941L112.599 38.136H113.178V38.9034H114V35.8883H112.587ZM112.647 37.4416H113.178V36.5827H112.647C112.361 36.5827 112.154 36.7289 112.154 37.003C112.154 37.2771 112.361 37.4416 112.647 37.4416Z" fill="#0B606E"/>
<path d="M41.113 4.2835H49.302V6.51785H46.4474V13.7975H43.9677V6.51785H41.113V4.2835Z" fill="#151515"/>
<path d="M78.644 4.2835H81.1237V13.7975H78.644V9.99188H75.1695V13.7975H72.6897V4.2835H75.1695V7.75753H78.644V4.2835Z" fill="#151515"/>
<path d="M84.2676 9.04048C84.2676 6.24397 86.5312 4.1106 89.4146 4.1106C91.3177 4.1106 92.9036 5.0475 93.7686 6.66204L91.88 7.94499C91.3033 6.96477 90.5248 6.38816 89.4002 6.38816C87.8864 6.38816 86.8051 7.4549 86.8051 9.05494C86.8051 10.655 87.8864 11.6929 89.4002 11.6929C90.5248 11.6929 91.3033 11.1163 91.88 10.1361L93.7686 11.419C92.9036 13.0334 91.3177 13.9705 89.4002 13.9705C86.5312 13.9705 84.2676 11.8515 84.2676 9.04048Z" fill="#151515"/>
<path fill-rule="evenodd" clip-rule="evenodd" d="M55.8628 4.2835H52.1288V13.7975H54.6086V10.8424H55.8628C57.9533 10.8424 59.5393 9.5306 59.5393 7.55577C59.5393 5.53763 57.9533 4.2835 55.8628 4.2835ZM57.0162 7.55577C57.0162 6.89264 56.5692 6.44583 55.8773 6.44583H54.6086V8.68018H55.8773C56.5692 8.68018 57.0162 8.23326 57.0162 7.55577Z" fill="#151515"/>
<path fill-rule="evenodd" clip-rule="evenodd" d="M67.3111 13.7975H69.9783L65.6531 4.1106H64.8602L60.535 13.7975H63.2022L63.5482 13.0046H66.9651L67.3111 13.7975ZM64.4277 11.0153H66.0857L65.2639 8.80991L64.4277 11.0153Z" fill="#151515"/>
</svg>
