<?xml version="1.0" encoding="UTF-8"?>
<!DOCTYPE svg PUBLIC "-//W3C//DTD SVG 1.1//EN" "http://www.w3.org/Graphics/SVG/1.1/DTD/svg11.dtd">
<!-- Creator: CorelDRAW 2018 (64-Bit) -->
<svg xmlns="http://www.w3.org/2000/svg" xml:space="preserve" width="100px" height="10px" version="1.1" style="shape-rendering:geometricPrecision; text-rendering:geometricPrecision; image-rendering:optimizeQuality; fill-rule:evenodd; clip-rule:evenodd"
viewBox="0 0 10106.24 3747.28"
 xmlns:xlink="http://www.w3.org/1999/xlink">
 <defs>
  <style type="text/css">
   <![CDATA[
    .fil2 {fill:#066271}
    .fil0 {fill:#2B2A29;fill-rule:nonzero}
    .fil1 {fill:#066271;fill-rule:nonzero}
   ]]>
  </style>
 </defs>
 <g id="Слой_x0020_1">
  <metadata id="CorelCorpID_0Corel-Layer"/>
  <g id="_2371632680192">
   <path class="fil0" d="M4041.3 298.78l-719.77 0 0 196.42 250.91 0 0 639.94 217.95 0 0 -639.94 250.91 0 0 -196.42zm783.15 0l-328.2 0 0 836.36 217.96 0 0 -259.78 110.24 0c183.74,0 323.14,-115.32 323.14,-288.92 0,-177.41 -139.4,-287.66 -323.14,-287.66zm1.27 190.09c60.82,0 100.11,39.28 100.11,97.57 0,59.56 -39.29,98.85 -100.11,98.85l-111.51 0 0 -196.42 111.51 0zm1211.46 646.27l234.43 0 -380.16 -851.56 -69.69 0 -380.16 851.56 234.43 0 30.41 -69.7 300.33 0 30.41 69.7zm-107.7 -244.57l-145.73 0 73.5 -193.88 72.23 193.88zm1528.26 -591.78l-217.95 0 0 305.4 -305.4 0 0 -305.4 -217.96 0 0 836.36 217.96 0 0 -334.54 305.4 0 0 334.54 217.95 0 0 -836.36zm935.21 -15.2c-253.43,0 -452.39,187.54 -452.39,433.38 0,247.11 198.95,433.39 451.12,433.39 168.53,0 307.93,-82.37 383.96,-224.29l-166 -112.78c-50.69,86.17 -119.12,136.86 -217.96,136.86 -133.05,0 -228.09,-91.24 -228.09,-231.9 0,-140.66 95.04,-234.43 228.09,-234.43 98.85,0 167.27,50.69 217.96,136.86l166 -112.78c-76.03,-141.93 -215.43,-224.29 -382.7,-224.29zm-4591.15 1520.64c-253.43,0 -452.39,187.54 -452.39,433.38 0,247.11 198.95,433.39 451.12,433.39 168.53,0 307.93,-82.37 383.96,-224.29l-166 -112.78c-50.69,86.17 -119.12,136.86 -217.96,136.86 -133.05,0 -228.09,-91.24 -228.09,-231.9 0,-140.66 95.04,-234.43 228.09,-234.43 98.85,0 167.27,50.69 217.96,136.86l166 -112.78c-76.03,-141.93 -215.43,-224.29 -382.7,-224.29zm1445.9 15.2l-580.38 0 0 836.36 595.58 0 0 -196.42 -377.62 0 0 -145.73 258.5 0 0 -182.47 -258.5 0 0 -115.32 362.42 0 0 -196.42zm837.64 0l-328.2 0 0 836.36 217.96 0 0 -259.78 110.24 0c183.74,0 323.14,-115.32 323.14,-288.92 0,-177.41 -139.4,-287.66 -323.14,-287.66zm1.27 190.09c60.82,0 100.11,39.28 100.11,97.57 0,59.56 -39.29,98.85 -100.11,98.85l-111.51 0 0 -196.42 111.51 0zm1331.85 197.68c31.68,-35.48 50.69,-83.64 50.69,-140.66 0,-148.26 -122.91,-247.11 -282.58,-247.11l-92.51 0 -209.09 0 0 836.36 111.51 0 278.78 0c160.94,0 282.59,-101.38 282.59,-248.37 0,-98.85 -54.49,-166 -139.4,-200.22zm-245.84 -204.02c51.96,0 83.64,29.15 83.64,73.5 0,44.35 -31.67,73.5 -83.64,73.5l-78.57 0 0 -147 78.57 0zm88.71 468.87l-167.27 0 0 -146.99 167.27 0c50.69,0 83.64,24.08 83.64,73.5 0,49.42 -32.95,73.5 -83.64,73.5zm1457.31 -667.81l-466.33 446.05 0 -430.85 -217.96 0 0 851.57 69.7 0 466.33 -452.4 0 437.19 217.96 0 0 -851.56 -69.7 0zm1004.91 0c-253.43,0 -452.39,187.54 -452.39,433.38 0,247.11 198.95,433.39 451.12,433.39 168.53,0 307.93,-82.37 383.96,-224.29l-166 -112.78c-50.69,86.17 -119.12,136.86 -217.96,136.86 -133.05,0 -228.09,-91.24 -228.09,-231.9 0,-140.66 95.04,-234.43 228.09,-234.43 98.85,0 167.27,50.69 217.96,136.86l166 -112.78c-76.03,-141.93 -215.43,-224.29 -382.7,-224.29z"/>
   <path class="fil1" d="M3383.11 3385.84l0 53.01c0,109.23 -18.2,146.18 -61.58,151.54l0 63.72c76.04,-4.28 133.33,-47.12 133.33,-183.13l0 -24.09 66.4 0 0 204.02 71.75 0 0 -265.06 -209.91 0zm411.25 -5.89c-79.25,0 -141.91,59.97 -141.91,138.15 0,78.72 62.65,138.69 141.36,138.69 78.72,0 142.97,-59.97 142.97,-138.69 0,-78.18 -64.25,-138.15 -142.43,-138.15zm0 65.87c39.08,0 68.54,31.06 68.54,72.82 0,41.24 -29.45,71.76 -68.54,71.76 -40.16,0 -68.54,-29.99 -68.54,-71.76 0,-41.76 28.38,-72.82 68.54,-72.82zm398.38 -59.97l-197.05 0 0 265.06 72.28 0 0 -204.02 124.76 0 0 -61.04zm272.03 -5.89l-153.15 147.25 0 -141.36 -72.28 0 0 271.48 24.09 0 153.14 -147.79 0 141.36 71.76 0 0 -270.95 -23.56 0zm224.9 0c-79.25,0 -141.91,59.97 -141.91,138.15 0,78.72 62.65,139.23 141.91,139.23 52.47,0 93.17,-26.24 115.12,-65.87l-50.33 -38.55c-15.53,21.95 -34.8,38.02 -63.72,38.02 -41.23,0 -69.61,-31.06 -69.61,-72.83 0,-41.23 28.38,-72.28 69.61,-72.28 29.45,0 48.73,16.07 63.72,38.55l50.33 -39.08c-21.96,-39.63 -62.12,-65.33 -115.12,-65.33zm378.04 5.36l-239.35 0 0 61.04 83.53 0 0 204.55 71.75 0 0 -204.55 84.07 0 0 -61.04zm269.88 -5.36l-153.15 147.25 0 -141.36 -72.28 0 0 271.48 24.09 0 153.14 -147.79 0 141.36 71.76 0 0 -270.95 -23.56 0zm254.34 5.89l0 108.16c-13.39,4.28 -27.84,6.96 -40.69,6.96 -35.87,0 -58.9,-20.35 -58.9,-63.19l0 -51.94 -71.76 0 0 56.76c0,79.79 54.62,124.76 124.77,124.76 17.67,0 33.19,-3.21 46.58,-6.96l0 90.49 72.29 0 0 -265.06 -72.29 0zm395.19 117.27c0,-68.54 -50.33,-123.16 -124.76,-123.16 -78.18,0 -138.69,60.51 -138.69,138.68 0,78.18 61.04,138.69 145.12,138.69 40.69,0 76.03,-14.46 106.02,-39.63l-29.99 -49.27c-21.42,16.6 -44.98,26.77 -73.89,26.77 -38.02,0 -65.86,-18.74 -74.96,-52.47l186.35 0c2.14,-9.11 4.82,-24.64 4.82,-39.63zm-127.44 -64.8c30.52,0 56.76,19.81 57.29,53.55l-121.02 0c8.56,-33.19 33.2,-53.55 63.72,-53.55zm310.58 -58.36c-79.25,0 -141.91,59.97 -141.91,138.15 0,78.72 62.65,139.23 141.91,139.23 52.47,0 93.17,-26.24 115.12,-65.87l-50.33 -38.55c-15.53,21.95 -34.8,38.02 -63.72,38.02 -41.23,0 -69.61,-31.06 -69.61,-72.83 0,-41.23 28.38,-72.28 69.61,-72.28 29.45,0 48.73,16.07 63.72,38.55l50.33 -39.08c-21.96,-39.63 -62.12,-65.33 -115.12,-65.33zm434.26 270.95l-109.24 -145.11 101.21 -119.95 -83 0 -99.6 120.48 0 -120.48 -72.28 0 0 265.06 72.28 0 0 -143.51 108.16 143.51 82.47 0zm268.27 -270.95l-153.15 147.25 0 -141.36 -72.28 0 0 271.48 24.09 0 153.14 -147.79 0 141.36 71.76 0 0 -270.95 -23.56 0zm346.45 123.16c0,-68.54 -50.33,-123.16 -124.76,-123.16 -78.18,0 -138.69,60.51 -138.69,138.68 0,78.18 61.04,138.69 145.12,138.69 40.69,0 76.03,-14.46 106.02,-39.63l-29.99 -49.27c-21.42,16.6 -44.98,26.77 -73.89,26.77 -38.02,0 -65.86,-18.74 -74.96,-52.47l186.35 0c2.14,-9.11 4.82,-24.64 4.82,-39.63zm-127.44 -64.8c30.52,0 56.76,19.81 57.29,53.55l-121.02 0c8.56,-33.19 33.2,-53.55 63.72,-53.55zm487.82 -58.36c-36.41,0 -66.93,13.92 -85.14,38.56l0 -32.67 -66.39 0 0 361.44 72.28 0 0 -122.09c18.74,20.35 46.59,32.13 79.25,32.13 74.43,0 128.51,-59.44 128.51,-139.23 0,-79.79 -53.55,-138.15 -128.51,-138.15zm-13.39 211.51c-33.73,0 -67.47,-23.03 -67.47,-73.36 0,-50.87 34.27,-72.82 67.47,-72.82 37.48,0 68,28.38 68,73.35 0,44.98 -31.06,72.83 -68,72.83zm447.11 -88.35c0,-68.54 -50.33,-123.16 -124.76,-123.16 -78.18,0 -138.69,60.51 -138.69,138.68 0,78.18 61.04,138.69 145.12,138.69 40.69,0 76.03,-14.46 106.02,-39.63l-29.99 -49.27c-21.42,16.6 -44.98,26.77 -73.89,26.77 -38.02,0 -65.86,-18.74 -74.96,-52.47l186.35 0c2.14,-9.11 4.82,-24.64 4.82,-39.63zm-127.44 -64.8c30.52,0 56.76,19.81 57.29,53.55l-121.02 0c8.56,-33.19 33.2,-53.55 63.72,-53.55zm580.45 -52.47l-71.75 0 0 204.02 -89.43 0 0 -204.02 -71.75 0 0 204.02 -89.43 0 0 -204.02 -71.75 0 0 265.06 394.1 0 0 -265.06zm323.43 117.27c0,-68.54 -50.33,-123.16 -124.76,-123.16 -78.18,0 -138.69,60.51 -138.69,138.68 0,78.18 61.04,138.69 145.12,138.69 40.69,0 76.03,-14.46 106.02,-39.63l-29.99 -49.27c-21.42,16.6 -44.98,26.77 -73.89,26.77 -38.02,0 -65.86,-18.74 -74.96,-52.47l186.35 0c2.14,-9.11 4.82,-24.64 4.82,-39.63zm-127.44 -64.8c30.52,0 56.76,19.81 57.29,53.55l-121.02 0c8.56,-33.19 33.2,-53.55 63.72,-53.55zm430.51 -52.47l-71.75 0 0 96.92 -100.13 0 0 -96.92 -72.28 0 0 265.06 72.28 0 0 -106.56 100.13 0 0 106.56 71.75 0 0 -265.06zm302.55 -5.89l-153.15 147.25 0 -141.36 -72.28 0 0 271.48 24.09 0 153.14 -147.79 0 141.36 71.76 0 0 -270.95 -23.56 0zm208.3 5.89c-63.72,0 -111.38,36.41 -111.38,99.06 0,36.41 16.6,64.26 43.37,80.86l-69.07 85.14 80.32 0 57.83 -67.47 50.87 0 0 67.47 72.29 0 0 -265.06 -124.23 0zm51.94 136.55l-46.59 0c-25.16,0 -43.37,-14.46 -43.37,-38.56 0,-24.09 18.21,-36.95 43.37,-36.95l46.59 0 0 75.51z"/>
   <path class="fil2" d="M2560.15 951.59l-104.43 0 -739.44 0c-82.58,0 -149.52,-66.93 -149.52,-149.51l0 -375.58c0,-82.5 -66.79,-149.4 -149.27,-149.59l-1.92 0c-60.88,0 -120.66,4.78 -178.98,14 -73.75,11.65 -128.97,73.64 -128.97,148.31l0 1952.69c0,74.66 55.22,136.65 128.97,148.32 58.32,9.19 118.1,13.99 178.98,13.99l4.99 -0.02c80.8,-0.17 146.21,-65.72 146.21,-146.51l0 -329.69c0,-82.58 66.94,-149.52 149.52,-149.52l762.95 1.35 130.77 -1.35c59.15,-1.18 99.58,60.94 73.18,113.87 -251.7,504.65 -806.21,936.15 -1197.18,1329.01 -59.85,62.2 -100.7,30.72 -134.55,-4.65 -544.28,-569.16 -1351.47,-1084.61 -1351.47,-1951.13 0,-390.88 158.47,-744.79 414.64,-1000.96 256.15,-256.16 610.06,-414.62 1000.93,-414.62 390.91,0 744.81,158.45 1000.98,414.62 109.01,109.01 200.32,235.73 269.25,375.5 36.63,74.28 -17.5,161.47 -100.34,161.47l-25.31 0z"/>
  </g>
 </g>
</svg>
