<?xml version="1.0" encoding="UTF-8"?>
<!DOCTYPE svg PUBLIC "-//W3C//DTD SVG 1.1//EN" "http://www.w3.org/Graphics/SVG/1.1/DTD/svg11.dtd">
<!-- Creator: CorelDRAW 2018 (64-Bit) -->
<svg xmlns="http://www.w3.org/2000/svg" xml:space="preserve" width="160.273mm" height="32.8948mm" version="1.1" style="shape-rendering:geometricPrecision; text-rendering:geometricPrecision; image-rendering:optimizeQuality; fill-rule:evenodd; clip-rule:evenodd"
viewBox="0 0 16492.86 3385.03"
 xmlns:xlink="http://www.w3.org/1999/xlink">
 <defs>
  <style type="text/css">
   <![CDATA[
    .fil2 {fill:#066271}
    .fil0 {fill:#2B2A29;fill-rule:nonzero}
    .fil1 {fill:#066271;fill-rule:nonzero}
   ]]>
  </style>
 </defs>
 <g id="Слой_x0020_1">
  <metadata id="CorelCorpID_0Corel-Layer"/>
  <path class="fil0" d="M749.25 1061.5l-749.25 0 0 204.46 261.18 0 0 666.14 226.88 0 0 -666.14 261.18 0 0 -204.46zm815.21 0l-341.64 0 0 870.6 226.88 0 0 -270.41 114.76 0c191.27,0 336.38,-120.04 336.38,-300.76 0,-184.67 -145.11,-299.43 -336.38,-299.43zm1.33 197.87c63.32,0 104.2,40.89 104.2,101.57 0,62 -40.88,102.89 -104.2,102.89l-116.09 0 0 -204.46 116.09 0zm1261.08 672.74l244.03 0 -395.73 -886.43 -72.55 0 -395.73 886.43 244.04 0 31.65 -72.55 312.62 0 31.66 72.55zm-112.13 -254.59l-151.69 0 76.5 -201.82 75.19 201.82zm1590.86 -616.02l-226.88 0 0 317.9 -317.9 0 0 -317.9 -226.88 0 0 870.6 226.88 0 0 -348.24 317.9 0 0 348.24 226.88 0 0 -870.6zm973.51 -15.83c-263.82,0 -470.91,195.23 -470.91,451.13 0,257.22 207.1,451.12 469.6,451.12 175.44,0 320.54,-85.74 399.69,-233.48l-172.81 -117.39c-52.76,89.69 -123.99,142.46 -226.88,142.46 -138.5,0 -237.43,-94.98 -237.43,-241.39 0,-146.42 98.93,-244.04 237.43,-244.04 102.89,0 174.13,52.77 226.88,142.46l172.81 -117.39c-79.15,-147.74 -224.25,-233.48 -398.38,-233.48zm4651.14 0c-263.82,0 -470.91,195.23 -470.91,451.13 0,257.22 207.1,451.12 469.6,451.12 175.44,0 320.54,-85.74 399.69,-233.48l-172.81 -117.39c-52.76,89.69 -123.99,142.46 -226.88,142.46 -138.5,0 -237.43,-94.98 -237.43,-241.39 0,-146.42 98.93,-244.04 237.43,-244.04 102.89,0 174.13,52.77 226.88,142.46l172.81 -117.39c-79.15,-147.74 -224.25,-233.48 -398.38,-233.48zm1505.11 15.83l-604.14 0 0 870.6 619.98 0 0 -204.46 -393.1 0 0 -151.69 269.1 0 0 -189.95 -269.1 0 0 -120.04 377.26 0 0 -204.46zm871.94 0l-341.64 0 0 870.6 226.88 0 0 -270.41 114.76 0c191.27,0 336.38,-120.04 336.38,-300.76 0,-184.67 -145.11,-299.43 -336.38,-299.43zm1.33 197.87c63.32,0 104.2,40.89 104.2,101.57 0,62 -40.88,102.89 -104.2,102.89l-116.09 0 0 -204.46 116.09 0zm1386.39 205.78c32.97,-36.93 52.76,-87.06 52.76,-146.41 0,-154.34 -127.95,-257.23 -294.15,-257.23l-96.3 0 -217.65 0 0 870.6 116.09 0 290.2 0c167.52,0 294.15,-105.53 294.15,-258.54 0,-102.89 -56.72,-172.81 -145.1,-208.42zm-255.91 -212.37c54.09,0 87.07,30.34 87.07,76.51 0,46.17 -32.98,76.51 -87.07,76.51l-81.78 0 0 -153.02 81.78 0zm92.35 488.07l-174.13 0 0 -153.02 174.13 0c52.76,0 87.06,25.07 87.06,76.51 0,51.44 -34.3,76.51 -87.06,76.51zm1516.98 -695.16l-485.43 464.32 0 -448.49 -226.88 0 0 886.43 72.56 0 485.42 -470.91 0 455.09 226.88 0 0 -886.43 -72.55 0zm1046.06 0c-263.82,0 -470.91,195.23 -470.91,451.13 0,257.22 207.1,451.12 469.6,451.12 175.44,0 320.54,-85.74 399.69,-233.48l-172.81 -117.39c-52.76,89.69 -123.99,142.46 -226.88,142.46 -138.5,0 -237.43,-94.98 -237.43,-241.39 0,-146.42 98.93,-244.04 237.43,-244.04 102.89,0 174.13,52.77 226.88,142.46l172.81 -117.39c-79.15,-147.74 -224.25,-233.48 -398.38,-233.48z"/>
  <path class="fil1" d="M9582.21 2373.19l0 38.12c0,78.55 -13.09,105.12 -44.28,108.97l0 45.81c54.67,-3.08 95.88,-33.88 95.88,-131.68l0 -17.32 47.74 0 0 146.69 51.6 0 0 -190.59 -150.93 0zm295.7 -4.23c-56.98,0 -102.03,43.12 -102.03,99.33 0,56.6 45.05,99.72 101.65,99.72 56.6,0 102.8,-43.13 102.8,-99.72 0,-56.22 -46.2,-99.33 -102.42,-99.33zm0 47.36c28.11,0 49.29,22.33 49.29,52.36 0,29.65 -21.18,51.6 -49.29,51.6 -28.88,0 -49.28,-21.56 -49.28,-51.6 0,-30.03 20.41,-52.36 49.28,-52.36zm286.47 -43.13l-141.69 0 0 190.59 51.98 0 0 -146.69 89.71 0 0 -43.9zm195.59 -4.23l-110.12 105.88 0 -101.65 -51.98 0 0 195.21 17.33 0 110.12 -106.27 0 101.65 51.59 0 0 -194.82 -16.94 0zm161.7 0c-56.98,0 -102.03,43.12 -102.03,99.33 0,56.6 45.05,100.11 102.03,100.11 37.74,0 67,-18.86 82.79,-47.36l-36.19 -27.72c-11.17,15.79 -25.03,27.33 -45.82,27.33 -29.65,0 -50.05,-22.33 -50.05,-52.36 0,-29.65 20.41,-51.98 50.05,-51.98 21.18,0 35.04,11.55 45.82,27.72l36.19 -28.11c-15.79,-28.49 -44.66,-46.97 -82.79,-46.97zm271.84 3.85l-172.11 0 0 43.89 60.06 0 0 147.08 51.6 0 0 -147.08 60.46 0 0 -43.89zm194.05 -3.85l-110.12 105.88 0 -101.65 -51.98 0 0 195.21 17.33 0 110.12 -106.27 0 101.65 51.59 0 0 -194.82 -16.94 0zm182.88 4.23l0 77.78c-9.62,3.08 -20.01,5.01 -29.26,5.01 -25.8,0 -42.36,-14.63 -42.36,-45.44l0 -37.34 -51.6 0 0 40.81c0,57.37 39.28,89.71 89.71,89.71 12.71,0 23.87,-2.31 33.5,-5l0 65.07 51.99 0 0 -190.59 -51.99 0zm284.15 84.32c0,-49.28 -36.19,-88.55 -89.71,-88.55 -56.22,0 -99.72,43.51 -99.72,99.71 0,56.22 43.9,99.72 104.35,99.72 29.27,0 54.67,-10.39 76.23,-28.49l-21.56 -35.42c-15.4,11.94 -32.34,19.25 -53.13,19.25 -27.34,0 -47.37,-13.48 -53.91,-37.74l133.99 0c1.54,-6.54 3.47,-17.71 3.47,-28.49zm-91.64 -46.58c21.95,0 40.81,14.24 41.19,38.5l-87.02 0c6.16,-23.86 23.87,-38.5 45.82,-38.5zm223.31 -41.96c-56.98,0 -102.03,43.12 -102.03,99.33 0,56.6 45.05,100.11 102.03,100.11 37.74,0 67,-18.86 82.79,-47.36l-36.19 -27.72c-11.17,15.79 -25.03,27.33 -45.82,27.33 -29.65,0 -50.05,-22.33 -50.05,-52.36 0,-29.65 20.41,-51.98 50.05,-51.98 21.18,0 35.04,11.55 45.82,27.72l36.19 -28.11c-15.79,-28.49 -44.66,-46.97 -82.79,-46.97zm312.26 194.82l-78.55 -104.35 72.77 -86.24 -59.68 0 -71.61 86.64 0 -86.64 -51.98 0 0 190.59 51.98 0 0 -103.18 77.78 103.18 59.29 0zm192.91 -194.82l-110.12 105.88 0 -101.65 -51.98 0 0 195.21 17.33 0 110.12 -106.27 0 101.65 51.59 0 0 -194.82 -16.94 0zm249.11 88.55c0,-49.28 -36.19,-88.55 -89.71,-88.55 -56.22,0 -99.72,43.51 -99.72,99.71 0,56.22 43.9,99.72 104.35,99.72 29.27,0 54.67,-10.39 76.23,-28.49l-21.56 -35.42c-15.4,11.94 -32.34,19.25 -53.13,19.25 -27.34,0 -47.37,-13.48 -53.91,-37.74l133.99 0c1.54,-6.54 3.47,-17.71 3.47,-28.49zm-91.64 -46.58c21.95,0 40.81,14.24 41.19,38.5l-87.02 0c6.16,-23.86 23.87,-38.5 45.82,-38.5zm-2578.92 316.46c-26.19,0 -48.13,10 -61.22,27.71l0 -23.48 -47.75 0 0 259.9 51.98 0 0 -87.79c13.48,14.63 33.5,23.1 56.99,23.1 53.52,0 92.41,-42.74 92.41,-100.11 0,-57.37 -38.51,-99.33 -92.41,-99.33zm-9.63 152.08c-24.25,0 -48.51,-16.56 -48.51,-52.75 0,-36.58 24.64,-52.37 48.51,-52.37 26.95,0 48.9,20.41 48.9,52.75 0,32.34 -22.33,52.37 -48.9,52.37zm321.51 -63.53c0,-49.28 -36.19,-88.55 -89.71,-88.55 -56.22,0 -99.72,43.51 -99.72,99.71 0,56.22 43.9,99.72 104.35,99.72 29.27,0 54.67,-10.39 76.23,-28.49l-21.56 -35.42c-15.4,11.94 -32.34,19.25 -53.13,19.25 -27.34,0 -47.37,-13.48 -53.91,-37.74l133.99 0c1.54,-6.54 3.47,-17.71 3.47,-28.49zm-91.64 -46.58c21.95,0 40.81,14.24 41.19,38.5l-87.02 0c6.16,-23.86 23.87,-38.5 45.82,-38.5zm417.37 -37.74l-51.6 0 0 146.7 -64.29 0 0 -146.7 -51.6 0 0 146.7 -64.29 0 0 -146.7 -51.6 0 0 190.59 283.38 0 0 -190.59zm232.55 84.32c0,-49.28 -36.19,-88.55 -89.71,-88.55 -56.22,0 -99.72,43.51 -99.72,99.71 0,56.22 43.9,99.72 104.35,99.72 29.27,0 54.67,-10.39 76.23,-28.49l-21.56 -35.42c-15.4,11.94 -32.34,19.25 -53.13,19.25 -27.34,0 -47.37,-13.48 -53.91,-37.74l133.99 0c1.54,-6.54 3.47,-17.71 3.47,-28.49zm-91.64 -46.58c21.95,0 40.81,14.24 41.19,38.5l-87.02 0c6.16,-23.86 23.87,-38.5 45.82,-38.5zm309.57 -37.74l-51.6 0 0 69.69 -72 0 0 -69.69 -51.98 0 0 190.59 51.98 0 0 -76.62 72 0 0 76.62 51.6 0 0 -190.59zm217.54 -4.23l-110.12 105.88 0 -101.65 -51.98 0 0 195.21 17.33 0 110.12 -106.27 0 101.65 51.59 0 0 -194.82 -16.94 0zm149.78 4.23c-45.82,0 -80.09,26.18 -80.09,71.23 0,26.18 11.94,46.2 31.19,58.14l-49.67 61.22 57.75 0 41.58 -48.51 36.58 0 0 48.51 51.98 0 0 -190.59 -89.32 0zm37.34 98.18l-33.5 0c-18.1,0 -31.19,-10.39 -31.19,-27.72 0,-17.33 13.09,-26.56 31.19,-26.56l33.5 0 0 54.28z"/>
  <path class="fil2" d="M8819.95 945.5l-103.77 0 -734.7 0c-82.06,0 -148.56,-66.5 -148.56,-148.55l0 -373.17c0,-81.96 -66.36,-148.44 -148.32,-148.63l-1.91 0c-60.5,0 -119.88,4.75 -177.84,13.9 -73.28,11.58 -128.14,73.18 -128.14,147.37l0 1940.2c0,74.17 54.86,135.77 128.14,147.37 57.96,9.13 117.34,13.9 177.84,13.9l4.95 -0.02c80.29,-0.16 145.28,-65.3 145.28,-145.57l0 -327.59c0,-82.05 66.51,-148.56 148.56,-148.56l758.07 1.34 129.94 -1.34c58.77,-1.17 98.94,60.55 72.71,113.14 -250.08,501.42 -801.05,930.16 -1189.52,1320.5 -59.48,61.8 -100.06,30.52 -133.69,-4.63 -540.8,-565.52 -1342.81,-1077.67 -1342.81,-1938.64 0,-388.38 157.45,-740.03 411.98,-994.55 254.51,-254.52 606.16,-411.97 994.53,-411.97 388.41,0 740.05,157.44 994.57,411.97 108.31,108.31 199.03,234.22 267.52,373.09 36.4,73.81 -17.38,160.44 -99.69,160.44l-25.14 0z"/>
 </g>
</svg>
