<?xml version="1.0" encoding="UTF-8" standalone="no"?>
<svg
   xmlns:dc="http://purl.org/dc/elements/1.1/"
   xmlns:cc="http://creativecommons.org/ns#"
   xmlns:rdf="http://www.w3.org/1999/02/22-rdf-syntax-ns#"
   xmlns:svg="http://www.w3.org/2000/svg"
   xmlns="http://www.w3.org/2000/svg"
   xmlns:sodipodi="http://sodipodi.sourceforge.net/DTD/sodipodi-0.dtd"
   xmlns:inkscape="http://www.inkscape.org/namespaces/inkscape"
   enable-background="new 0 0 512.019 512.019"
   version="1.1"
   viewBox="0 0 512.019 512.019"
   xml:space="preserve"
   id="svg3764"
   sodipodi:docname="phone.svg"
   inkscape:version="0.92.4 (5da689c313, 2019-01-14)"><metadata
   id="metadata3770"><rdf:RDF><cc:Work
       rdf:about=""><dc:format>image/svg+xml</dc:format><dc:type
         rdf:resource="http://purl.org/dc/dcmitype/StillImage" /></cc:Work></rdf:RDF></metadata><defs
   id="defs3768" /><sodipodi:namedview
   pagecolor="#ffffff"
   bordercolor="#666666"
   borderopacity="1"
   objecttolerance="10"
   gridtolerance="10"
   guidetolerance="10"
   inkscape:pageopacity="0"
   inkscape:pageshadow="2"
   inkscape:window-width="640"
   inkscape:window-height="480"
   id="namedview3766"
   showgrid="false"
   inkscape:zoom="0.46092041"
   inkscape:cx="256.00949"
   inkscape:cy="256.00949"
   inkscape:window-x="1695"
   inkscape:window-y="185"
   inkscape:window-maximized="0"
   inkscape:current-layer="svg3764" />
<g
   transform="matrix(1,0,0,-1,4.0765849e-7,513.0176)"
   id="g3762"
   style="fill:#ffffff">
			<path
   d="m 255.99,42.372 c 5.88,4.412 11.025,4.89 26.402,5.76 45.056,2.586 73.626,12.211 105.4,35.541 38.903,28.459 63.309,68.156 72.559,117.99 2.381,12.902 3.558,23.851 4.36,40.354 0.486,11.068 0.87,15.36 3.388,20.207 3.55,6.613 10.428,11.008 18.406,11.75 0.785,0.068 1.57,0.102 2.347,0.102 7.1,0 13.688,-3.004 17.894,-8.235 5.589,-6.81 5.581,-13.158 5.035,-26.829 -1.604,-42.342 -10.863,-80.384 -27.52,-113.07 C 472.383,102.689 461.042,87.457 440.903,67.711 419.425,46.83 402.87,35.148 377.594,23.073 350.817,10.292 331.873,6.247 304.131,2.86 298.533,2.22 287.994,1.384 280.681,1.145 266.746,0.684 261.302,1.06 254.868,6.777 c -4.932,4.343 -7.62,10.94 -7.398,18.116 0.221,7.125 3.31,13.465 8.516,17.476 z"
   id="path3754"
   inkscape:connector-curvature="0"
   style="fill:#ffffff" />
			<path
   d="m 396.44,225.42 c 0,11.989 0.99,23.245 12.808,29.065 3.243,1.681 7.467,2.526 11.588,2.526 3.661,0 7.228,-0.674 9.95,-2.039 4.779,-2.458 9.6,-7.646 11.486,-12.339 2.398,-6.05 1.306,-27.742 0.623,-33.86 -3.2,-27.332 -12.698,-53.137 -27.46,-74.615 -26.743,-38.852 -66.816,-62.345 -119.08,-69.828 -17.724,-2.611 -30.891,-3.533 -38.639,8.294 -6.084,8.986 -5.308,20.446 1.877,28.476 5.726,6.494 13.926,7.962 21.18,8.542 20.77,1.638 44.032,8.439 59.281,17.323 l 0.026,0.008 c 17.741,10.274 32.427,25.208 42.487,43.196 8.816,15.733 13.876,35.872 13.876,55.251 z"
   id="path3756"
   inkscape:connector-curvature="0"
   style="fill:#ffffff" />
			<path
   d="m 350.98,152.13 c -11.674,-10.692 -25.353,-17.391 -43.017,-21.077 -4.045,-0.853 -10.906,-1.596 -15.172,-1.835 -7.356,-0.452 -10.385,-0.375 -15.616,2.167 -6.323,3.174 -10.752,9.062 -12.169,16.137 -1.408,7.031 0.393,14.106 5.001,19.482 5.325,6.084 10.778,7.603 21.777,8.909 18.381,2.202 28.732,8.388 34.586,20.659 2.961,6.263 4.642,13.124 5.615,22.989 1.007,9.242 2.816,15.172 9.395,20.036 4.139,3.123 9.378,4.668 14.566,4.668 5.675,0 11.298,-1.852 15.403,-5.513 l 0.051,-0.034 c 8.482,-7.671 8.841,-17.186 6.545,-32.034 -3.558,-23.783 -11.861,-40.611 -26.965,-54.554 z"
   id="path3758"
   inkscape:connector-curvature="0"
   style="fill:#ffffff" />
			<path
   d="m 511.96,413.82 c -0.418,-9.293 -3.61,-17.604 -9.566,-24.781 -5.751,-6.784 -42.487,-35.831 -58.88,-47.053 -12.749,-8.678 -32.896,-20.898 -42.317,-25.668 -13.918,-6.921 -27.913,-8.132 -41.685,-3.567 -3.012,1.007 -5.163,1.903 -7.185,2.961 -6.972,3.661 -12.092,9.429 -22.042,21.666 -10.658,12.868 -12.877,15.369 -12.851,15.369 -1.007,0.606 -2.611,1.459 -4.557,2.347 -7.927,3.61 -20.924,0.64 -42.061,-9.66 -17.835,-8.627 -33.852,-19.703 -51.942,-35.9 -15.411,-13.73 -30.908,-31.539 -39.509,-45.355 -11.947,-19.166 -19.174,-41.344 -19.26,-51.644 0,-4.011 1.758,-9.771 3.661,-12.945 l 0.836,-0.862 c 0.563,-0.546 1.186,-1.135 2.039,-1.886 2.97,-2.671 7.27,-6.246 11.75,-9.788 19.661,-15.488 25.89,-21.76 29.218,-33.408 3.217,-10.769 0.393,-24.03 -8.892,-41.719 C 184.884,85.533 141.023,29.358 122.719,17.514 119.707,15.628 114.749,13.085 111.242,11.908 103.733,9.254 92.947,8.35 86.239,9.775 76.955,11.678 66.766,17.523 44.281,33.856 31.96,42.876 12.965,60.514 7.81,68.945 c -12.16,20.42 -9.062,38.135 1.963,67.806 10.505,28.314 23.979,56.815 39.996,84.642 l 0.836,1.408 c 3.226,5.572 6.528,11.128 9.993,16.7 l 0.896,1.408 c 3.439,5.47 6.921,10.931 10.564,16.367 l 5.743,8.354 c 2.142,3.123 4.275,6.238 6.485,9.336 4.361,6.076 8.832,12.134 13.466,18.176 49.399,64.324 106.31,115.97 173.97,157.86 l 2.773,1.741 c 9.822,6.016 20.275,12.032 31.061,17.869 l 4.215,2.27 c 11.162,5.939 21.768,11.264 32.427,16.256 l 3.319,1.51 c 12.587,5.828 24.098,10.837 35.174,15.3 13.406,5.41 19.61,7.066 29.03,7.066 1.673,0 3.456,-0.051 5.402,-0.145 6.076,-0.29 11.537,-1.195 16.708,-2.773 7.262,-2.202 14.532,-5.897 22.852,-11.64 1.451,-0.998 2.901,-2.014 4.463,-3.166 1.843,-1.357 3.806,-3.021 5.794,-4.736 9.481,-8.201 20.361,-20.113 29.124,-31.863 4.676,-6.272 10.889,-15.377 13.986,-23.194 2.901,-7.313 4.215,-14.609 3.908,-21.666 v -0.009 z"
   id="path3760"
   inkscape:connector-curvature="0"
   style="fill:#ffffff" />
</g>
</svg>