<svg xmlns="http://www.w3.org/2000/svg" width="187" height="151" fill="none">
  <path fill="#000" d="M146.321 2.60009L143.206.788932V41.9241l3.115-1.8112V2.60009z"/>
  <path fill="#1A1613" d="M39.8734 149.466c-.2959.171-.2959.451 0 .623.2973.172.7776.172 1.0742 0 .2966-.172.2966-.452 0-.623-.2966-.172-.7769-.172-1.0742 0zm-14.0689-1.594c-.2968.172-.2968.452 0 .624.2965.172.7769.172 1.0735 0 .2966-.172.2966-.452 0-.624-.2966-.171-.777-.171-1.0735 0zm-2.8076-1.632c-.2965.174-.2965.452 0 .624.2966.173.777.173 1.0736 0 .2965-.172.2965-.45 0-.624-.2966-.172-.777-.172-1.0736 0zm-2.8075-1.631c-.2966.172-.2966.452 0 .624s.7776.172 1.0735 0c.2966-.172.2966-.452 0-.624-.2959-.172-.7769-.172-1.0735 0zm-2.8075-1.63c-.2966.171-.2966.45 0 .623.2967.172.7776.172 1.0737 0 .2965-.173.2965-.452 0-.623-.2961-.174-.777-.174-1.0737 0zm-2.8068-1.633c-.2965.172-.2965.452 0 .624.2966.172.777.172 1.0736 0 .2965-.172.2965-.452 0-.624-.2966-.172-.777-.172-1.0736 0zm-2.8081-1.631c-.296.172-.296.452 0 .624.2972.172.7776.172 1.0741 0 .2966-.172.2966-.452 0-.624-.2965-.173-.7776-.173-1.0741 0zm-2.80691-1.632c-.29658.174-.29658.452 0 .624.29657.173.77695.173 1.07351 0 .2967-.172.2967-.45 0-.624-.29656-.172-.77694-.172-1.07351 0zm-2.80737-1.631c-.29674.172-.29674.452 0 .624.29657.172.77696.172 1.07418 0 .29592-.172.29592-.452 0-.624-.29722-.172-.77761-.172-1.07418 0zm-2.80755-1.632c-.29659.173-.29659.452 0 .624.29659.173.77761.173 1.07356 0 .29721-.172.29721-.451 0-.624-.29595-.172-.77697-.172-1.07356 0zm-2.807483-1.631c-.296587.172-.296587.452 0 .624.297237.172.777603.172 1.074193 0 .29659-.172.29659-.452 0-.624s-.776956-.172-1.074193 0zM35.3277 149.488c-.2959-.171-.7763-.173-1.0736-.001-.2972.172-.2978.452-.0019.624.2959.173.777.173 1.0735.001.2973-.172.2979-.452.002-.624zm-3.885-1.634c-.2959.172-.2959.452 0 .624.2972.174.7776.174 1.0744 0 .2965-.172.2965-.452 0-.624-.2968-.171-.7772-.171-1.0744 0zm-2.8067-1.63c-.2966.172-.2966.452 0 .624.2966.171.777.171 1.0735 0 .2966-.172.2966-.452 0-.624-.2965-.172-.7769-.172-1.0735 0zm-2.8075-1.633c-.2966.174-.2966.452 0 .626.2965.172.7776.172 1.0735 0 .2966-.174.2966-.452 0-.626-.2959-.172-.777-.172-1.0735 0zm-2.8076-1.63c-.2965.171-.2965.451 0 .623.2966.172.7776.172 1.0736 0 .2972-.172.2972-.452 0-.623-.296-.172-.777-.172-1.0736 0zm-2.8073-1.631c-.2961.172-.2961.45 0 .624.2965.172.7776.172 1.0742 0 .2965-.174.2965-.452 0-.624-.2966-.174-.7777-.174-1.0742 0zm-2.8069-1.633c-.2966.172-.2966.452 0 .624s.7769.172 1.0735 0c.2966-.172.2966-.452 0-.624-.2966-.171-.7769-.171-1.0735 0zm-2.8075-1.63c-.2966.172-.2966.452 0 .623.2965.172.7769.172 1.0735 0 .2966-.171.2966-.451 0-.623-.2966-.174-.777-.174-1.0735 0zm-2.8076-1.633c-.2965.174-.2965.452 0 .624.2968.174.7776.174 1.0737 0 .2966-.172.2966-.45 0-.624-.2961-.172-.7769-.172-1.0737 0zm-2.80734-1.63c-.29657.171-.29657.451 0 .623s.77761.172 1.07414 0c.2966-.172.2966-.452 0-.623-.29653-.172-.77757-.172-1.07414 0zm-2.80688-1.633c-.29657.174-.29657.452 0 .626.29592.172.77696.172 1.07353 0 .29657-.174.29657-.452 0-.626-.29657-.172-.77761-.172-1.07353 0zM3.3699 131.54c-.29661.172-.29661.452 0 .624.29658.172.77695.172 1.07354 0 .29667-.172.29667-.452 0-.624-.29659-.172-.77696-.172-1.07354 0zm-2.807487-1.63c-.296604.172-.296604.45 0 .623.296587.172.776957.172 1.073567 0 .29658-.173.29658-.451 0-.623-.29661-.174-.77698-.174-1.073567 0zM38.1351 147.858c-.296-.174-.777-.174-1.0736-.002-.2972.172-.2978.452-.0018.624.2953.172.7763.173 1.0736.002.2972-.172.2978-.452.0018-.624zm-3.8848-1.634c-.296.172-.296.452 0 .624.2965.171.7776.171 1.0741 0 .296-.172.296-.452 0-.624-.2965-.172-.7776-.172-1.0741 0zm-2.8076-1.633c-.2959.174-.2959.452 0 .626.2972.172.7776.172 1.0744 0 .2965-.174.2965-.452 0-.626-.2968-.172-.7776-.172-1.0744 0zm-2.8067-1.63c-.2966.171-.2966.451 0 .623s.777.172 1.0735 0c.2966-.172.2966-.452 0-.623-.2965-.172-.7769-.172-1.0735 0zm-2.8075-1.631c-.2966.172-.2966.45 0 .624.2965.172.7769.172 1.0735 0 .2966-.174.2966-.452 0-.624-.2966-.174-.777-.174-1.0735 0zm-2.8076-1.633c-.2965.172-.2965.452 0 .624.2966.172.7776.172 1.0736 0 .2967-.172.2967-.452 0-.624-.296-.171-.777-.171-1.0736 0zm-2.8073-1.63c-.2961.172-.2961.452 0 .623.2965.172.7776.172 1.0742 0 .2965-.171.2965-.451 0-.623-.2966-.174-.7777-.174-1.0742 0zm-2.8069-1.633c-.2966.174-.2966.452 0 .624.2966.174.7769.174 1.0735 0 .2966-.172.2966-.45 0-.624-.2966-.172-.7769-.172-1.0735 0zm-2.8075-1.63c-.2966.171-.2966.451 0 .623.2965.172.7769.172 1.0735 0 .2966-.172.2966-.452 0-.623-.2966-.172-.777-.172-1.0735 0zm-2.8076-1.633c-.2965.174-.2965.452 0 .626.2968.172.7776.172 1.0737 0 .2966-.174.2966-.452 0-.626-.2961-.172-.7769-.172-1.0737 0zm-2.80734-1.631c-.29657.172-.29657.452 0 .624s.77761.172 1.07414 0c.2966-.172.2966-.452-.0006-.624-.29593-.172-.77697-.172-1.07354 0zm-2.80688-1.63c-.29657.172-.29657.45 0 .623.29592.172.77696.172 1.07353 0 .29657-.173.29657-.451 0-.623-.29657-.174-.77761-.174-1.07353 0zm-2.80748-1.633c-.29661.174-.29661.452 0 .624.29658.174.77695.174 1.07354 0 .29667-.172.29667-.45 0-.624-.29659-.172-.77696-.172-1.07354 0zm64.7114 11.643c-.2966.174-.2966.452 0 .624.2967.173.7776.173 1.0743 0 .296-.172.296-.45 0-.624-.2967-.172-.7776-.172-1.0743 0zm-2.8074-1.631c-.2959.172-.2959.452 0 .624.2966.172.7776.172 1.0742 0 .2959-.172.2959-.452 0-.624-.2966-.172-.7776-.172-1.0742 0zm-2.8069-1.632c-.2965.174-.2965.452 0 .625.296.172.777.172 1.0736 0 .2965-.173.2965-.451 0-.625-.2966-.172-.7776-.172-1.0736 0zm8.4218 1.632c-.2965.172-.2965.452 0 .624.2966.172.777.172 1.0736 0 .2965-.172.2965-.452 0-.624-.2966-.172-.777-.172-1.0736 0zm-2.8075-1.632c-.2966.174-.2966.452 0 .625.2967.172.7776.172 1.0737 0 .2966-.173.2966-.451 0-.625-.2961-.172-.777-.172-1.0737 0zm-2.8074-1.631c-.2965.172-.2965.452 0 .624.2966.172.7776.172 1.0742 0 .2959-.172.2959-.452 0-.624-.2966-.172-.7776-.172-1.0742 0zm2.8074-1.631c-.2966.172-.2966.452 0 .624.2967.172.7776.172 1.0737 0 .2966-.172.2966-.452 0-.624-.2961-.173-.777-.173-1.0737 0zm2.8075-1.632c-.2965.172-.2965.452 0 .624.2966.173.777.173 1.0736 0 .2965-.172.2965-.452 0-.624-.2966-.172-.777-.172-1.0736 0zm5.6144 0c-.2967.172-.2967.452 0 .624.2966.173.7776.173 1.0742 0 .2966-.172.2966-.452 0-.624s-.7776-.172-1.0742 0zm-2.8075-1.631c-.2966.172-.2966.452 0 .624.2972.172.7776.172 1.0742 0 .2966-.172.2966-.452 0-.624-.2966-.173-.777-.173-1.0742 0zm8.4464 1.615c-.2965.172-.2965.45 0 .624.2968.171.7777.171 1.0738 0 .2965-.172.2965-.452 0-.624-.2961-.172-.777-.172-1.0738 0zm-2.8067-1.633c-.2965.174-.2965.452 0 .624.296.174.777.174 1.0736 0 .2965-.172.2965-.45 0-.624-.2966-.172-.7776-.172-1.0736 0zm-2.8082-1.63c-.2959.171-.2959.451 0 .623.2973.172.7777.172 1.0742 0 .2966-.172.2966-.452 0-.623-.2965-.172-.7769-.172-1.0742 0zm8.4225 1.63c-.2966.174-.2966.452 0 .624.2966.174.7769.174 1.0735 0 .2966-.172.2966-.45 0-.624-.2966-.172-.7769-.172-1.0735 0zm-2.8076-1.63c-.2965.171-.2965.451 0 .623.2968.172.7777.172 1.0738 0 .2965-.172.2965-.452 0-.623-.2961-.172-.777-.172-1.0738 0zm-2.8067-1.633c-.2965.174-.2965.452 0 .626.296.172.777.172 1.0736 0 .2965-.174.2965-.452 0-.626-.2966-.172-.7776-.172-1.0736 0zm8.4218 1.633c-.2966.171-.2966.451 0 .623s.777.172 1.0735 0c.2966-.172.2966-.452 0-.623-.2965-.172-.7769-.172-1.0735 0zm-2.8075-1.633c-.2966.174-.2966.452 0 .626.2966.172.7769.172 1.0735 0 .2966-.174.2966-.452 0-.626-.2966-.172-.7769-.172-1.0735 0zm-2.8076-1.631c-.2965.172-.2965.452 0 .624.2968.172.7777.172 1.0738 0 .2965-.172.2965-.452 0-.624-.2961-.172-.777-.172-1.0738 0zm8.422 1.631c-.2961.174-.2961.452 0 .626.2966.172.7776.172 1.0742 0 .2965-.174.2965-.452 0-.626-.2966-.172-.7776-.172-1.0742 0zm-2.8069-1.631c-.2966.172-.2966.452 0 .624s.777.172 1.0735 0c.2966-.172.2966-.452 0-.624-.2965-.172-.7769-.172-1.0735 0zm-2.8075-1.632c-.2966.174-.2966.452 0 .625.2966.172.7769.172 1.0735 0 .2966-.173.2966-.451 0-.625-.2966-.172-.7769-.172-1.0735 0zm8.4218 1.632c-.2966.172-.2966.452 0 .624.2965.172.7769.172 1.0741 0 .2961-.172.2961-.452 0-.624-.2972-.172-.7776-.172-1.0741 0zm-2.8074-1.632c-.2961.174-.2961.452 0 .625.2966.172.7776.172 1.0742 0 .2965-.173.2965-.451 0-.623-.2966-.174-.7776-.174-1.0742-.002zm-2.8069-1.631c-.2966.172-.2966.452 0 .624.2966.174.777.174 1.0735 0 .2966-.172.2966-.452 0-.624-.2965-.172-.7769-.172-1.0735 0zm8.4218 1.633c-.2966.172-.2966.45 0 .623.2966.172.7776.172 1.0735 0 .2966-.173.2966-.451 0-.623-.2959-.174-.7769-.174-1.0735 0zm-2.8075-1.633c-.2966.172-.2966.452 0 .624.2965.174.7769.174 1.0741 0 .2961-.172.2961-.452 0-.624-.2972-.172-.7776-.172-1.0741 0zm-2.8074-1.63c-.2961.171-.2961.451 0 .623.2966.172.7776.172 1.0742 0 .2965-.172.2965-.452 0-.623-.2966-.172-.7776-.172-1.0742 0zm8.4224 1.63c-.2965.172-.2965.452 0 .624.2966.174.777.174 1.0735 0 .297-.172.297-.452 0-.624-.2965-.172-.7769-.172-1.0735 0zm-2.8075-1.63c-.2966.171-.2966.451 0 .623s.7776.172 1.0735 0c.2966-.172.2966-.452 0-.623-.2959-.172-.7769-.172-1.0735 0zm-2.8075-1.633c-.2966.174-.2966.452 0 .626.2965.171.7769.171 1.0741 0 .2961-.174.2961-.452 0-.626-.2972-.172-.7776-.172-1.0741 0zm8.4225 1.633c-.297.171-.297.451 0 .623.296.172.777.172 1.074 0 .296-.172.296-.452 0-.623-.297-.172-.778-.172-1.074 0zm-2.8075-1.633c-.2965.174-.2965.452 0 .626.2966.171.777.171 1.0735 0 .297-.174.297-.452 0-.626-.2965-.172-.7769-.172-1.0735 0zm-2.8075-1.631c-.2966.172-.2966.452 0 .624s.777.172 1.0735 0c.2966-.172.2966-.452 0-.624-.2965-.172-.7769-.172-1.0735 0zm8.446 1.615c-.296.172-.296.452 0 .624.297.171.778.171 1.074 0 .297-.172.297-.452 0-.624-.296-.172-.777-.172-1.074 0zm-2.807-1.633c-.297.174-.297.454 0 .626s.778.172 1.074 0c.296-.172.296-.452 0-.626-.296-.172-.777-.172-1.074 0zm-2.8075-1.63c-.2965.172-.2965.451 0 .623.2966.172.777.172 1.0735 0 .297-.172.297-.451 0-.623-.2965-.172-.7769-.172-1.0735 0zm8.4225 1.63c-.297.174-.297.454 0 .626.296.172.777.172 1.073 0 .297-.172.297-.452 0-.626-.296-.172-.777-.172-1.073 0zm-2.808-1.63c-.296.172-.296.451 0 .623.297.172.778.172 1.074 0 .297-.172.297-.451 0-.623-.296-.172-.777-.172-1.074 0zm-2.807-1.633c-.297.172-.297.454 0 .626s.778.172 1.074 0c.296-.172.296-.452 0-.626-.296-.172-.777-.172-1.074 0zm8.422 1.633c-.297.172-.297.451 0 .623.296.172.777.172 1.073 0 .297-.172.297-.451 0-.623-.296-.172-.777-.172-1.073 0zm-2.808-1.633c-.296.174-.296.454 0 .626.297.172.778.172 1.074 0 .297-.172.297-.452 0-.626-.296-.172-.777-.172-1.074 0zm-2.807-1.631c-.296.172-.296.452 0 .624.297.174.778.174 1.074 0 .297-.172.297-.452 0-.624-.296-.171-.777-.171-1.074 0zm8.422 1.631c-.296.174-.296.454 0 .626.297.172.777.172 1.074 0 .296-.172.296-.452 0-.626-.297-.172-.777-.172-1.074 0zm-2.807-1.631c-.297.172-.297.452 0 .624.296.174.777.174 1.073 0 .297-.172.297-.452 0-.624-.296-.171-.777-.171-1.073 0zm-2.808-1.63c-.296.172-.296.452 0 .623.297.172.778.172 1.074 0 .297-.171.297-.451 0-.623-.296-.172-.777-.172-1.074 0zm-61.9435 38.945c-.2966.171-.2966.451 0 .623s.777.172 1.0735 0c.2972-.172.2972-.452 0-.623-.2965-.172-.7769-.172-1.0735 0zm-2.8075-1.633c-.296.174-.296.452 0 .626.2965.172.7776.172 1.0741 0 .296-.174.296-.452 0-.626-.2965-.172-.7776-.172-1.0741 0zm5.6149 0c-.2966.174-.2966.452 0 .626.2965.172.7769.172 1.0737 0 .2965-.174.2965-.452 0-.626-.2968-.172-.7772-.172-1.0737 0zm-2.8074-1.631c-.2966.172-.2966.452 0 .624s.777.172 1.0735 0c.2972-.172.2972-.452 0-.624-.2965-.171-.7769-.171-1.0735 0zm8.4218 1.631c-.296.174-.296.452 0 .626.2965.172.7776.172 1.0742 0 .2965-.174.2965-.452 0-.626-.2966-.172-.7777-.172-1.0742 0zm-2.8069-1.631c-.2966.172-.2966.452 0 .624.2959.172.777.172 1.0735 0 .2966-.172.2966-.452 0-.624-.2965-.171-.7776-.171-1.0735 0zm-2.8075-1.63c-.2966.172-.2966.45 0 .623.2965.172.7769.172 1.0737 0 .2965-.173.2965-.451 0-.623-.2968-.174-.7772-.174-1.0737 0zm8.4466 1.612c-.2966.174-.2966.452 0 .626.2959.172.7769.172 1.0735 0 .2966-.174.2966-.452 0-.626-.2966-.172-.7776-.172-1.0735 0zm-2.8076-1.63c-.2965.172-.2965.452 0 .623.2966.172.777.172 1.0736 0 .2965-.171.2965-.451 0-.623-.2966-.172-.777-.172-1.0736 0zm-2.8075-1.631c-.2966.172-.2966.45 0 .624.2967.172.7771.172 1.0737 0 .2966-.174.2966-.452 0-.624s-.777-.172-1.0737 0zm8.4219 1.631c-.2967.172-.2967.452 0 .623.2966.172.7777.172 1.0736 0 .2965-.171.2965-.451 0-.623-.2959-.172-.777-.172-1.0736 0zm-2.8068-1.631c-.2966.172-.2966.45 0 .624.2959.172.7769.172 1.0735 0 .2959-.174.2959-.452 0-.624-.2966-.172-.7776-.172-1.0735 0zm-2.8076-1.632c-.2965.173-.2965.451 0 .623.2966.174.777.174 1.0736 0 .2965-.172.2965-.45 0-.623-.2966-.172-.777-.172-1.0736 0zm8.4218 1.632c-.2966.172-.2966.45 0 .624.2966.172.777.172 1.0736 0 .2967-.174.2967-.452 0-.624-.2966-.172-.777-.172-1.0736 0zm-2.8074-1.632c-.2967.173-.2967.451 0 .623.2966.174.7777.174 1.0736 0 .2965-.172.2965-.45 0-.623-.2959-.172-.777-.172-1.0736 0zm-2.8068-1.631c-.2966.172-.2966.452 0 .624.2959.171.7769.171 1.0735 0 .2959-.172.2959-.452 0-.624-.2966-.172-.7776-.172-1.0735 0zm8.4218 1.631c-.2966.173-.2966.451 0 .623.2965.174.7776.174 1.0735 0 .2966-.172.2966-.45 0-.623-.2966-.172-.777-.172-1.0735 0zm-2.8076-1.631c-.2966.172-.2966.452 0 .624.2966.171.777.171 1.0736 0 .2967-.172.2967-.452 0-.624-.2966-.172-.777-.172-1.0736 0zm-2.8074-1.633c-.2967.174-.2967.452 0 .626.2966.172.7777.172 1.0736 0 .2965-.174.2965-.452 0-.626-.2959-.172-.777-.172-1.0736 0zm.1014-2.98c-.2967.172-.2967.452 0 .624.2966.172.777.172 1.0742 0 .2959-.172.2959-.452 0-.624-.2972-.171-.7776-.171-1.0742 0zm-2.8075-1.63c-.2966.172-.2966.45 0 .624.2966.171.7776.171 1.0735 0 .2966-.174.2966-.452 0-.624-.2959-.174-.7769-.174-1.0735 0zm-2.8075-1.633c-.2959.172-.2959.452 0 .624.2966.172.7776.172 1.0742 0 .2961-.172.2961-.452 0-.624-.2966-.172-.7776-.172-1.0742 0zm-2.8069-1.63c-.2966.172-.2966.452 0 .623.2967.172.7771.172 1.0737 0 .2966-.171.2966-.451 0-.623-.2966-.174-.777-.174-1.0737 0zm12.3067 3.264c-.2959-.173-.7769-.173-1.0735-.001-.2972.172-.2985.452-.0026.624.2959.173.777.173 1.0735.001.2973-.172.2986-.452.0026-.624zm-3.8848-1.634c-.2967.172-.2967.452 0 .624.2966.172.777.172 1.0742 0 .2959-.172.2959-.452 0-.624-.2972-.172-.7776-.172-1.0742 0zm-2.8075-1.63c-.2966.172-.2966.452 0 .623.2966.172.7776.172 1.0735 0 .2966-.171.2966-.451 0-.623-.2959-.174-.7769-.174-1.0735 0zm-2.8075-1.633c-.2966.172-.2966.452 0 .624.2966.174.7776.174 1.0742 0 .2961-.172.2961-.452 0-.624-.2966-.172-.7776-.172-1.0742 0zm12.3067 3.265c-.2961-.172-.7763-.172-1.0735 0-.2974.172-.2979.45-.002.624.296.172.777.173 1.0742 0 .2966-.172.2979-.45.0013-.624zm-3.8843-1.632c-.2966.172-.2966.452 0 .623.2966.172.777.172 1.0736 0 .2967-.171.2967-.451 0-.623-.2966-.174-.777-.174-1.0736 0zm-2.8074-1.633c-.2967.172-.2967.452 0 .624.2966.174.777.174 1.0742 0 .2959-.172.2959-.452 0-.624-.2972-.172-.7776-.172-1.0742 0zm-2.8075-1.631c-.2966.172-.2966.452 0 .624s.7776.172 1.0735 0c.2966-.172.2966-.452 0-.624-.2959-.171-.7769-.171-1.0735 0zm12.3066 3.265c-.2959-.173-.7763-.173-1.0735-.001-.2973.171-.2979.451-.002.623.2961.174.7765.174 1.0737.002.2972-.172.2979-.452.0018-.624zm-3.8848-1.634c-.2959.172-.2959.452 0 .624.2966.174.7776.174 1.0742 0 .2959-.172.2959-.452 0-.624-.2966-.172-.7776-.172-1.0742 0zm-2.8069-1.631c-.2966.172-.2966.452 0 .624s.777.172 1.0736 0c.2967-.172.2967-.452 0-.624-.2966-.171-.777-.171-1.0736 0zm-2.8074-1.632c-.2967.174-.2967.452 0 .625.2966.172.777.172 1.0742 0 .2959-.173.2959-.451 0-.625-.2972-.172-.7776-.172-1.0742 0zm12.3066 3.266c-.2959-.173-.7763-.173-1.0735-.001-.2972.172-.2985.45-.0026.624.2966.172.777.173 1.0742.001s.2979-.452.0019-.624zm-3.8848-1.634c-.2965.172-.2965.452 0 .624.2966.172.7776.172 1.0742 0 .2959-.172.2959-.452 0-.624-.2966-.171-.7776-.171-1.0742 0zm-2.8075-1.632c-.2959.174-.2959.452 0 .625.2966.172.7776.172 1.0742 0 .2959-.173.2959-.451 0-.625-.2966-.172-.7776-.172-1.0742 0zm-2.8069-1.631c-.2966.172-.2966.452 0 .624s.777.172 1.0736 0c.2967-.172.2967-.452 0-.624-.2966-.172-.777-.172-1.0736 0zm12.3308 3.249c-.296-.174-.7763-.174-1.0736-.002-.2972.172-.2978.452-.0019.624.2961.173.7763.173 1.0735.002.2974-.172.2979-.452.002-.624zm-3.8848-1.634c-.296.172-.296.452 0 .624.2965.171.7776.171 1.0742 0 .2959-.172.2959-.452 0-.624-.2966-.172-.7777-.172-1.0742 0zm-2.8069-1.631c-.2966.172-.2966.45 0 .624.2959.172.777.172 1.0735 0 .2966-.174.2966-.452 0-.624-.2965-.174-.7776-.174-1.0735 0zm-2.8075-1.632c-.2966.171-.2966.451 0 .623.2967.172.7769.172 1.0737 0 .2965-.172.2965-.452 0-.623-.2968-.172-.777-.172-1.0737 0zm12.3067 3.264c-.2959-.172-.777-.173-1.0735-.001-.2973.173-.2979.452-.002.625.2953.172.7763.172 1.0735 0 .2966-.172.2979-.45.002-.624zm-3.8848-1.632c-.2967.172-.2967.45 0 .624.2966.172.7776.172 1.0735 0 .2966-.174`‚Û     `‚Û                     ÐîÛ             ÐÿÛ     È‚Û             €‚Û      @      €‚Û             172 1.0742 0 .2959-.172.2959-.452 0-.623-.2966-.172-.7777-.172-1.0742 0zm-2.8069-1.631c-.2966.172-.2966.452 0 .624.2959.172.777.172 1.0735 0 .2966-.172.2966-.452 0-.624-.2965-.174-.7776-.174-1.0735 0zm12.3067 3.265c-.2967-.174-.7769-.174-1.0743-.002-.2966.172-.2977.452-.0018.624.2959.173.777.173 1.0742.001.2966-.172.2978-.452.0019-.623zm-3.8849-1.634c-.2966.171-.2966.451 0 .623s.7769.172 1.0735 0c.2967-.172.2967-.452 0-.623-.2966-.172-.7769-.172-1.0735 0zm-2.8074-1.631c-.2967.172-.2967.452 0 .624.2966.172.7776.172 1.0735 0 .2966-.172.2966-.452 0-.624-.2959-.174-.7769-.174-1.0735 0zm9.499 1.632c-.2959-.172-.7763-.172-1.0735 0-.2972.172-.2979.45-.0019.624.2961.172.7771.174 1.0737 0 .2972-.172.2978-.45.0017-.624zm-3.8841-1.632c-.2966.172-.2966.452 0 .624s.777.172 1.0735 0c.2966-.172.2966-.452 0-.624-.2965-.174-.7769-.174-1.0735 0zm-2.8075-1.633c-.2966.174-.2966.452 0 .624.2966.174.7769.174 1.0735 0 .2967-.172.2967-.45 0-.624-.2966-.172-.7769-.172-1.0735 0zm9.4992 1.634c-.2959-.173-.7763-.173-1.0736-.001-.2972.172-.2978.452-.0019.624.2959.173.7763.173 1.0735.001.2973-.172.2979-.452.002-.624zm-3.8842-1.634c-.2965.174-.2965.452 0 .624.296.174.777.174 1.0736 0 .2965-.172.2965-.45 0-.624-.2966-.172-.7776-.172-1.0736 0zm-2.8075-1.63c-.2966.172-.2966.452 0 .623.2966.172.777.172 1.0735 0 .2966-.171.2966-.451 0-.623-.2965-.174-.7769-.174-1.0735 0zm9.4992 1.632c-.2959-.172-.7769-.172-1.0735 0-.2972.172-.2979.452-.002.624.296.172.7763.173 1.0736.001.2965-.171.2978-.451.0019-.625zm-3.885-1.632c-.2965.172-.2965.452 0 .623.2968.172.777.172 1.0744 0 .2959-.171.2959-.451 0-.623-.2974-.172-.7776-.174-1.0744 0zm-2.8073-1.633c-.2959.174-.2959.452 0 .626.2966.172.7776.172 1.0742 0 .2965-.174.2965-.452 0-.626-.2966-.172-.7776-.172-1.0742 0zm-2.8069-1.631c-.2966.172-.2966.452 0 .624s.777.172 1.0735 0c.2966-.172.2966-.452 0-.624-.2965-.171-.7769-.171-1.0735 0zm12.3066 3.265c-.2966-.172-.777-.172-1.0742-.001-.2972.172-.2979.452-.0018.623.2959.174.777.174 1.0742.002.2966-.172.2979-.452.0018-.624zm-3.8848-1.634c-.2966.174-.2966.452 0 .626.2959.172.7769.172 1.0735 0 .2966-.174.2966-.452 0-.626-.2966-.172-.7776-.172-1.0735 0zm-2.8076-1.631c-.2965.172-.2965.452 0 .624.2968.172.777.172 1.0744 0 .2959-.172.2959-.452 0-.624-.2974-.171-.7776-.171-1.0744 0zm-2.8073-1.63c-.2959.172-.2959.452 0 .624.2966.171.7776.171 1.0742 0 .2965-.172.2965-.452 0-.624-.2966-.174-.7776-.174-1.0742 0zm-2.8069-1.633c-.2966.172-.2966.452 0 .624.2966.174.777.174 1.0735 0 .2966-.172.2966-.452 0-.624-.2965-.172-.7769-.172-1.0735 0zm15.1135 4.897c-.2953-.173-.7764-.173-1.0736-.001-.2966.172-.2978.452-.0019.624.2961.172.7763.173 1.0735.001.2974-.172.2979-.452.002-.624zm-3.8842-1.634c-.2965.172-.2965.452 0 .624.2966.172.777.172 1.0736 0 .2965-.172.2965-.452 0-.624-.2966-.171-.777-.171-1.0736 0zm-2.8075-1.63c-.2966.172-.2966.452 0 .624.2959.171.7769.171 1.0735 0 .2966-.172.2966-.452 0-.624-.2966-.174-.7776-.174-1.0735 0zm-2.8076-1.633c-.2965.172-.2965.452 0 .624.2968.174.777.174 1.0744 0 .2959-.172.2959-.452 0-.624-.2974-.172-.7776-.172-1.0744 0zm-2.8073-1.63c-.2959.171-.2959.451 0 .623.2966.172.7776.172 1.0742 0 .2965-.172.2965-.452 0-.623-.2966-.174-.7776-.174-1.0742 0zm-2.8069-1.633c-.2966.172-.2966.452 0 .624.2966.174.777.174 1.0735 0 .2966-.172.2966-.452 0-.624-.2965-.172-.7769-.172-1.0735 0zm-2.8075-1.631c-.2966.172-.2966.452 0 .624s.7769.172 1.0735 0c.2967-.172.2967-.452 0-.624-.2966-.171-.7769-.171-1.0735 0zm20.7525 8.143c-.2959-.174-.7763-.174-1.0735-.002-.2972.172-.2979.452-.002.624.2961.173.777.173 1.0737.002.2972-.172.2979-.452.0018-.624zm-3.8841-1.634c-.2966.172-.2966.452 0 .624.2959.173.7769.173 1.0735 0 .2966-.172.2966-.452 0-.624s-.7776-.172-1.0735 0zm-2.8076-1.631c-.2965.172-.2965.452 0 .624.2966.172.777.172 1.0736 0 .2967-.172.2967-.452 0-.624-.2966-.174-.777-.174-1.0736 0zm-2.8073-1.632c-.2968.171-.2968.451 0 .623.2965.174.7776.174 1.0741 0 .2966-.172.2966-.452 0-.623-.2965-.172-.7776-.172-1.0741 0zm-2.8069-1.631c-.2966.172-.2966.452 0 .624.2959.172.7769.172 1.0735 0 .2966-.172.2966-.452 0-.624-.2966-.174-.7776-.174-1.0735 0zm15.1144 4.895c-.2969-.172-.7773-.172-1.0745 0s-.2979.451-.0019.624c.2959.172.7763.172 1.0734 0 .297-.17.298-.45.003-.624zm-3.8851-1.632c-.2967.172-.2967.452 0 .624.2959.172.7769.172 1.0735 0 .2966-.172.2966-.452 0-.624-.2966-.174-.7776-.174-1.0735 0zm-2.8075-1.632c-.2966.171-.2966.451 0 .623.2959.174.7769.174 1.0735 0 .2966-.172.2966-.452 0-.623-.2966-.172-.7776-.172-1.0735 0zm-2.8076-1.631c-.2965.172-.2965.452 0 .624.2966.172.777.172 1.0736 0 .2967-.172.2967-.452 0-.624-.2966-.174-.777-.174-1.0736 0zm-2.8073-1.633c-.2968.174-.2968.452 0 .626.2965.172.7776.172 1.0741 0 .2966-.174.2966-.452 0-.626-.2965-.171-.7776-.171-1.0741 0zm15.1145 4.898c-.297-.174-.777-.174-1.074-.002-.297.172-.298.452-.002.624.296.173.776.173 1.074.001.297-.172.297-.452.002-.623zm-3.8854-1.634c-.2959.171-.2959.451 0 .623.2967.174.7776.174 1.0744 0 .296-.172.296-.452 0-.623-.2968-.172-.7777-.172-1.0744 0zm-2.8067-1.631c-.2967.172-.2967.452 0 .624.2959.172.7769.172 1.0735 0 .2966-.172.2966-.452 0-.624-.2966-.174-.7776-.174-1.0735 0zm-2.8075-1.633c-.2966.174-.2966.452 0 .626.2959.172.7769.172 1.0735 0 .2966-.174.2966-.452 0-.626-.2966-.171-.7776-.171-1.0735 0zm-2.8076-1.63c-.2965.172-.2965.452 0 .623.2959.172.777.172 1.0736 0 .2967-.171.2967-.451 0-.623-.2966-.172-.7777-.172-1.0736 0zm15.1142 4.895c-.296-.172-.777-.172-1.074 0-.297.172-.298.45-.002.624.296.172.777.174 1.074.002.297-.172.298-.452.002-.626zm-3.885-1.632c-.296.172-.296.452 0 .624.297.172.777.172 1.074 0 .296-.172.296-.452 0-.624-.297-.174-.777-.174-1.074 0zm-2.8074-1.633c-.2959.174-.2959.452 0 .626.2967.172.7776.172 1.0744 0 .296-.174.296-.452 0-.626-.2968-.171-.7777-.171-1.0744 0zm-2.8067-1.63c-.2967.172-.2967.452 0 .623.2959.172.7769.172 1.0735 0 .2966-.171.2966-.451 0-.623s-.7776-.172-1.0735 0zm-2.8075-1.631c-.2966.172-.2966.45 0 .624.2959.172.7769.172 1.0735 0 .2966-.174.2966-.452 0-.624-.2966-.174-.7776-.174-1.0735 0zm-52.4448 43.84c-.2959-.172-.777-.173-1.0735-.001-.2973.173-.2979.452-.002.625.2954.172.7763.172 1.0735 0 .2968-.172.2979-.45.002-.624zm-3.8848-1.632c-.2966.172-.2966.45 0 .624.2966.172.7769.172 1.0735 0 .2966-.174.2966-.452 0-.624-.2966-.174-.7769-.174-1.0735 0zm-2.8075-1.632c-.296.171-.296.451 0 .623.2965.172.7776.172 1.0741 0 .2966-.172.2966-.452 0-.623-.2965-.172-.7776-.172-1.0741 0zm-2.8069-1.631c-.2966.172-.2966.452 0 .624.2961.172.7769.172 1.0737 0 .2965-.172.2965-.452 0-.624-.2968-.174-.7776-.174-1.0737 0zm-2.8074-1.633c-.2966.172-.2966.452 0 .624.2966.174.777.174 1.0735 0 .2966-.172.2966-.452 0-.624-.2965-.172-.7769-.172-1.0735 0zm15.1141 4.898c-.2959-.174-.7769-.174-1.0742-.002-.2965.172-.2978.452-.0019.624.2959.173.7769.173 1.0735.001.2972-.172.2979-.452.0026-.623zm-3.8849-1.634c-.2966.171-.2966.451 0 .623.2967.172.7771.172 1.0737 0 .2965-.172.2965-.452 0-.623-.2966-.172-.777-.172-1.0737 0zm-2.8074-1.631c-.2966.172-.2966.452 0 .624s.7769.172 1.0735 0c.2966-.172.2966-.452 0-.624-.2966-.174-.7769-.174-1.0735 0zm-2.8075-1.633c-.296.172-.296.452 0 .624.2965.174.7776.174 1.0735 0 .2972-.172.2972-.452 0-.624-.2959-.172-.777-.172-1.0735 0zm-2.8069-1.63c-.2966.172-.2966.452 0 .623.2961.172.7769.172 1.0737 0 .2965-.171.2965-.451 0-.623-.2968-.172-.7776-.172-1.0737 0zm15.1136 4.895c-.2961-.172-.7765-.172-1.0737 0-.2972.172-.2979.45-.0018.624.2959.172.777.174 1.0736 0 .2972-.172.2978-.45.0019-.624zm-3.885-1.632c-.2959.172-.2959.452 0 .624.2973.172.7776.172 1.0742 0 .2966-.172.2966-.452 0-.624-.2966-.174-.7769-.174-1.0742 0zm-2.8068-1.633c-.2966.172-.2966.452 0 .624.2967.174.7771.174 1.0737 0 .2965-.172.2965-.452 0-.624-.2966-.172-.777-.172-1.0737 0zm9.5233 1.616c-.2954-.171-.7763-.171-1.0735 0-.2974.172-.2979.451-.0019.624.2959.172.7769.174 1.0735 0 .2972-.17.2985-.45.0019-.624zm-3.8849-1.632c-.2959.172-.2959.452 0 .624.2972.172.7776.172 1.0742 0 .2967-.172.2967-.452 0-.624-.2966-.174-.777-.174-1.0742 0zm-2.8067-1.632c-.2968.173-.2968.452 0 .623.2965.174.7769.174 1.0735 0 .2966-.171.2966-.45 0-.623-.2966-.172-.777-.172-1.0735 0zm9.499 1.634c-.2959-.172-.7763-.174-1.0735-.002-.2972.172-.2979.452-.002.624.2961.173.7765.173 1.0737.001.2972-.171.2979-.451.0018-.623zm-3.8841-1.634c-.2966.173-.2966.452 0 .623.2959.174.7769.174 1.0735 0 .2966-.171.2966-.45 0-.623-.2966-.172-.7776-.172-1.0735 0zm-2.8082-1.631c-.2959.172-.2959.452 0 .624.2972.172.7776.172 1.0742 0 .2967-.172.2967-.452 0-.624-.2966-.172-.7775-.172-1.0742 0zm9.4998 1.634c-.2959-.174-.7763-.174-1.0735-.002-.2972.172-.2979.452-.0019.624.2959.172.7763.174 1.0735.002.2972-.172.2979-.452.0019-.624zm-3.8841-1.634c-.2972.172-.2972.452 0 .624.2959.172.777.172 1.0729 0 .2965-.172.2965-.452 0-.624-.2959-.172-.777-.172-1.0729 0zm-2.8075-1.631c-.2966.172-.2966.45 0 .624.2959.172.7769.172 1.0735 0 .2966-.174.2966-.452 0-.624-.2966-.173-.7776-.173-1.0735 0zm9.4992 1.633c-.296-.172-.777-.174-1.0742-.002-.2966.173-.2972.452-.0013.625.2953.172.7763.172 1.0735 0 .2966-.172.2979-.45.002-.623zm-3.885-1.633c-.2966.172-.2966.45 0 .624.2967.172.7776.172 1.0737 0 .2966-.174.2966-.452 0-.624-.2966-.173-.777-.173-1.0737 0zm-2.8067-1.632c-.2972.172-.2972.452 0 .624.2959.171.777.171 1.0729 0 .2965-.172.2965-.452 0-.624-.2959-.172-.777-.172-1.0729 0zm-2.8075-1.631c-.2966.172-.2966.45 0 .624.2959.172.7769.172 1.0728 0 .2973-.174.2973-.452 0-.624-.2959-.174-.7769-.174-1.0728 0zM149.602 92.6643c-.297.1719-.297.4502 0 .6238.296.1719.777.1719 1.073 0 .297-.1736.297-.4519 0-.6238-.296-.1719-.777-.1719-1.073 0zm2.807-1.6324c-.297.1735-.297.4519 0 .6238s.777.1719 1.074 0c.295-.1719.295-.4503 0-.6238-.297-.1719-.777-.1719-1.074 0zm2.807-1.6308c-.296.1719-.296.4519 0 .6238.297.1719.777.1719 1.074 0 .297-.1719.297-.4519 0-.6238s-.777-.1719-1.074 0zm2.808-1.6308c-.297.1719-.297.4503 0 .6222.297.1736.777.1736 1.074 0 .295-.1719.295-.4503 0-.6222-.297-.1735-.777-.1735-1.074 0zm2.807-1.6323c-.297.1719-.297.4519 0 .6238s.777.1719 1.074 0c.297-.1719.297-.4519 0-.6238s-.777-.1719-1.074 0zm2.831-1.6488c-.295.1719-.295.4519 0 .6238.297.1719.777.1719 1.074 0 .297-.1719.297-.4519 0-.6238s-.777-.1719-1.074 0zm2.808-1.6308c-.297.172-.297.4503 0 .6239.297.1719.777.1719 1.074 0 .295-.1736.295-.4519 0-.6239-.297-.1735-.777-.1735-1.074 0zm2.807-1.6323c-.297.1735-.297.4519 0 .6238s.777.1719 1.074 0c.297-.1719.297-.4503 0-.6238-.297-.172-.777-.172-1.074 0zm2.808-1.6308c-.297.1719-.297.4519 0 .6238.295.172.777.172 1.073 0 .296-.1719.296-.4519 0-.6238-.296-.1735-.778-.1735-1.073 0zm2.807-1.6324c-.297.1736-.297.4519 0 .6238.297.1736.777.1736 1.074 0 .297-.1719.297-.4502 0-.6238-.297-.1719-.777-.1719-1.074 0zm2.807-1.6307c-.296.1719-.296.4518 0 .6238.297.1719.777.1719 1.074 0 .297-.172.297-.4519 0-.6238s-.777-.1719-1.074 0zm-61.92 35.6658c-.296.171-.296.451 0 .623.297.172.777.172 1.074 0 .297-.172.297-.452 0-.623-.297-.174-.777-.174-1.074 0zm2.808-1.633c-.297.172-.297.452 0 .626.296.172.777.172 1.073 0 .297-.174.297-.454 0-.626-.296-.172-.777-.172-1.073 0zm2.807-1.631c-.296.172-.296.452 0 .624.297.172.777.172 1.074 0 .296-.172.296-.452 0-.624-.297-.172-.777-.172-1.074 0zm2.808-1.632c-.297.174-.297.454 0 .625.296.172.777.172 1.073 0 .297-.171.297-.451 0-.625-.296-.172-.777-.172-1.073 0zm2.807-1.631c-.297.172-.297.452 0 .624.296.172.777.172 1.073 0 .298-.172.298-.452 0-.624-.296-.172-.777-.172-1.073 0zm2.807-1.632c-.296.173-.296.453 0 .625.297.172.778.172 1.074 0 .296-.172.296-.452 0-.625-.296-.172-.777-.172-1.074 0zm2.808-1.631c-.297.172-.297.452 0 .624.296.173.777.173 1.073 0 .297-.172.297-.452 0-.624-.296-.172-.777-.172-1.073 0zm2.806-1.631c-.296.172-.296.452 0 .624.297.172.778.172 1.075 0 .296-.172.296-.452 0-.624-.297-.173-.778-.173-1.075 0zm2.833-1.6484c-.297.1719-.297.4519 0 .6238.296.1719.777.1719 1.073 0 .297-.1719.297-.4519 0-.6238-.296-.1719-.777-.1719-1.073 0zm2.806-1.6324c-.296.1735-.296.4519 0 .6254.297.1719.778.1719 1.075 0 .296-.1735.296-.4519 0-.6254-.297-.1719-.778-.1719-1.075 0zm2.808-1.6308c-.296.1719-.296.4519 0 .6238.297.172.778.172 1.074 0 .296-.1719.296-.4519 0-.6238s-.777-.1719-1.074 0zm2.808-1.6307c-.297.1719-.297.4502 0 .6238.296.1719.777.1719 1.073 0 .297-.1736.297-.4519 0-.6238-.296-.1736-.777-.1736-1.073 0zm.101-2.9815c-.297.1719-.297.4519 0 .6238s.777.1719 1.073 0c.297-.1719.297-.4519 0-.6238-.296-.172-.776-.172-1.073 0zm-2.808-1.6308c-.296.1719-.296.4519 0 .6238.297.1719.777.1719 1.074 0 .297-.1719.297-.4519 0-.6238-.297-.1735-.777-.1735-1.074 0zm-2.807-1.6324c-.297.1719-.297.4519 0 .6238.296.1735.777.1735 1.074 0 .296-.1719.296-.4519 0-.6238-.297-.1719-.778-.1719-1.074 0zm-2.808-1.6307c-.296.1719-.296.4518 0 .6238.297.1719.778.1719 1.075 0 .296-.172.296-.4519 0-.6238-.297-.1736-.778-.1736-1.075 0zm12.307 3.2647c-.296-.1719-.776-.1735-1.073-.0016-.297.1719-.298.4519-.002.6255.296.1719.776.1719 1.073 0 .297-.172.299-.4503.002-.6239zm-3.884-1.634c-.297.1719-.297.4519 0 .6238.297.1735.777.1735 1.073 0 .297-.1719.297-.4519 0-.6238-.296-.1719-.776-.1719-1.073 0zm-2.808-1.6307c-.296.1719-.296.4518 0 .6238.297.1719.777.1719 1.074 0 .297-.172.297-.4519 0-.6238-.297-.1736-.777-.1736-1.074 0zm-2.807-1.6325c-.297.1736-.297.4519 0 .6238.296.1736.777.1736 1.074 0 .296-.1719.296-.4502 0-.6238-.297-.1719-.778-.1719-1.074 0zm12.307 3.2665c-.297-.1736-.777-.1736-1.074-.0017-.297.172-.298.4519-.002.6238s.776.1736 1.073 0c.297-.1703.298-.4502.003-.6221zm-3.885-1.634c-.297.1719-.297.4518 0 .6238.296.1719.777.1719 1.074 0 .296-.172.296-.4519 0-.6238-.297-.1736-.778-.1736-1.074 0zm-2.807-1.6325c-.297.1736-.297.4519 0 .6238.296.1736.777.1736 1.073 0 .297-.1719.297-.4502 0-.6238-.296-.1719-.777-.1719-1.073 0zm-2.808-1.6307c-.296.1719-.296.4519 0 .6238.297.1719.777.1719 1.074 0 .297-.1719.297-.4519 0-.6238-.297-.1736-.777-.1736-1.074 0zm-2.807-1.6324c-.297.1736-.297.4519 0 .6255.296.1719.777.1719 1.074 0 .296-.1736.296-.4519 0-.6255-.297-.1719-.778-.1719-1.074 0zm15.114 4.8972c-.295-.1719-.777-.1735-1.074-.0016-.297.1719-.297.4518-.002.6254.295.1719.777.1719 1.074 0 .297-.1719.299-.4502.002-.6238zm-3.884-1.6341c-.297.1736-.297.4519 0 .6238.295.1736.777.1736 1.072 0 .297-.1719.297-.4502 0-.6238-.295-.1719-.777-.1719-1.072 0zm-2.808-1.6307c-.297.1719-.297.4519 0 .6238.296.1719.777.1719 1.074 0 .296-.1719.296-.4519 0-.6238-.297-.1736-.778-.1736-1.074 0zm-2.807-1.6324c-.297.1736-.297.4519 0 .6255.296.1719.777.1719 1.073 0 .297-.1736.297-.4519 0-.6255-.296-.1719-.777-.1719-1.073 0zm-2.808-1.6307c-.296.1719-.296.4519 0 .6238s.777.1719 1.074 0c.297-.1719.297-.4519 0-.6238s-.778-.1719-1.074 0zm-2.807-1.6308c-.297.1719-.297.4519 0 .6238.296.172.777.172 1.073 0 .297-.1719.297-.4519 0-.6238-.296-.1735-.777-.1735-1.073 0zm17.921 6.5279c-.296-.1736-.776-.1736-1.073-.0017-.298.172-.298.452-.003.6239.297.1735.777.1735 1.074.0016.297-.1719.298-.4519.002-.6238zm-3.884-1.634c-.297.1719-.297.4519 0 .6238.296.1719.777.1719 1.074 0 .296-.1719.296-.4519 0-.6238-.297-.1736-.778-.1736-1.074 0zm-2.807-1.6307c-.297.1719-.297.4502 0 .6238.295.1719.777.1719 1.072 0 .297-.1736.297-.4519 0-.6238-.295-.1736-.777-.1736-1.072 0zm-2.808-1.6325c-.297.172-.297.4519 0 .6239.296.1735.777.1735 1.074 0 .296-.172.296-.4519 0-.6239-.297-.1719-.778-.1719-1.074 0zm12.331 3.2485c-.297-.172-.777-.1736-1.074-.0017-.297.1719-.298.4519-.001.6238.295.1735.777.1736 1.072.0016.298-.1719.298-.4518.003-.6237zm-3.885-1.634c-.296.1719-.296.4518 0 .6237.297.172.777.172 1.074 0 .297-.1719.297-.4518 0-.6237-.297-.172-.777-.172-1.074 0zm-2.807-1.6308c-.297.1719-.297.4519 0 .6238s.777.1719 1.074 0c.297-.1719.297-.4519 0-.6238-.297-.1736-.777-.1736-1.074 0zm-2.807-1.6324c-.297.1719-.297.4519 0 .6238.295.1735.777.1735 1.073 0 .296-.1719.296-.4519 0-.6238-.296-.172-.778-.172-1.073 0zm12.306 3.2648c-.295-.1719-.777-.1719-1.074 0-.297.1719-.297.4502-.002.6238.297.1719.777.1719 1.074 0 .297-.1719.299-.4502.002-.6238zm-3.884-1.6324c-.297.1719-.297.4519 0 .6238.295.1719.777.1719 1.072 0 .297-.1719.297-.4519 0-.6238-.295-.1736-.777-.1736-1.072 0zm-2.808-1.6324c-.296.1719-.296.4519 0 .6238.297.1735.777.1735 1.074 0 .297-.1719.297-.4519 0-.6238-.297-.172-.777-.172-1.074 0zm-2.807-1.6308c-.297.172-.297.4519 0 .6239.297.1719.777.1719 1.074 0 .297-.172.297-.4519 0-.6239-.297-.1735-.777-.1735-1.074 0zm12.307 3.2648c-.297-.1719-.777-.1736-1.074-.0017-.297.172-.298.4519-.001.6239.295.1735.775.1735 1.072.0016.297-.1719.299-.4519.003-.6238zm-3.885-1.634c-.297.1719-.297.4519 0 .6238.297.1735.777.1735 1.074 0 .297-.1719`‚Û     `‚Û                     ÐîÛ             ÐÿÛ     È‚Û             €‚Û      @      €‚Û             719 1.072 0 .297-.172.297-.4519 0-.6239-.295-.1735-.777-.1735-1.072 0zm-2.808-1.6323c-.296.1735-.296.4519 0 .6254.297.1719.777.1719 1.074 0 .297-.1735.297-.4519 0-.6254-.297-.172-.777-.172-1.074 0zm-2.807-1.6308c-.297.1719-.297.4519 0 .6238s.777.1719 1.074 0c.297-.1719.297-.4519 0-.6238-.297-.1735-.777-.1735-1.074 0zm15.114 4.8971c-.297-.1735-.777-.1735-1.074-.0016-.297.1719-.297.4519-.002.6238.296.1719.777.1736 1.074.0017.297-.172.297-.4519.002-.6239zm-3.884-1.634c-.297.172-.297.4519 0 .6239.295.1719.777.1719 1.072 0 .297-.172.297-.4519 0-.6239-.295-.1735-.777-.1735-1.072 0zm-2.808-1.6323c-.297.1735-.297.4519 0 .6254.297.1719.777.1719 1.074 0 .297-.1735.297-.4519 0-.6254-.297-.172-.777-.172-1.074 0zm-2.807-1.6308c-.297.1719-.297.4519 0 .6238.295.1719.777.1719 1.072 0 .297-.1719.297-.4519 0-.6238-.295-.1735-.777-.1735-1.072 0zm-2.808-1.6324c-.296.1719-.296.4519 0 .6254.297.172.777.172 1.074 0 .297-.1735.297-.4535 0-.6254-.297-.1719-.777-.1719-1.074 0zm15.114 4.8972c-.296-.1719-.776-.1736-1.074-.0017-.297.172-.297.452-.002.6255.297.1719.777.1719 1.074 0 .297-.1719.299-.4503.002-.6238zm-3.884-1.634c-.297.1735-.297.4519 0 .6254.297.1719.777.1719 1.074 0 .295-.1735.295-.4519 0-.6254-.297-.172-.777-.172-1.074 0zm-2.807-1.6308c-.297.1719-.297.4519 0 .6238.295.1719.777.1719 1.072 0 .297-.1719.297-.4519 0-.6238-.295-.1735-.777-.1735-1.072 0zm-2.808-1.6324c-.297.1736-.297.4519 0 .6254.297.172.777.172 1.074 0 .297-.1735.297-.4518 0-.6254-.297-.1719-.777-.1719-1.074 0zm-2.807-1.6308c-.297.172-.297.4519 0 .6238.295.1736.777.1736 1.072 0 .297-.1719.297-.4518 0-.6238-.295-.1719-.777-.1719-1.072 0zm-2.808-1.6307c-.296.1719-.296.4519 0 .6238.297.1719.777.1719 1.074 0 .297-.1719.297-.4519 0-.6238-.297-.1736-.777-.1736-1.074 0zm17.922 6.5279c-.297-.1735-.777-.1735-1.074-.0016-.297.1719-.298.4519-.002.6238s.776.1736 1.073.0016c.297-.1719.298-.4519.003-.6238zm-3.886-1.634c-.296.1719-.296.4519 0 .6238.297.1719.778.1719 1.074 0 .297-.1719.297-.4519 0-.6238-.296-.1719-.777-.1735-1.074 0zm-2.806-1.6324c-.297.1736-.297.4519 0 .6254.297.172.777.172 1.074 0 .295-.1735.295-.4518 0-.6254-.297-.1719-.777-.1719-1.074 0zm-2.807-1.6308c-.297.172-.297.4519 0 .6238.295.1736.776.1736 1.072 0 .297-.1719.297-.4518 0-.6238-.296-.1719-.777-.1719-1.072 0zm-2.808-1.6307c-.297.1719-.297.4519 0 .6238s.777.1719 1.074 0c.297-.1719.297-.4519 0-.6238-.297-.1736-.777-.1736-1.074 0zm-2.807-1.6324c-.297.1719-.297.4519 0 .6238.295.1735.777.1735 1.072 0 .297-.1719.297-.4519 0-.6238-.295-.1719-.777-.1719-1.072 0zm-2.808-1.6307c-.296.1719-.296.4519 0 .6238.297.1719.777.1719 1.074 0 .297-.1719.297-.4519 0-.6238-.297-.1736-.777-.1736-1.074 0zm-2.807-1.6324c-.297.1735-.297.4519 0 .6254.297.1719.777.1719 1.074 0 .297-.1735.297-.4519 0-.6254-.297-.1719-.777-.1719-1.074 0zm-2.808-1.6308c-.296.1719-.296.4519 0 .6238.296.172.778.172 1.074 0 .296-.1719.296-.4519 0-.6238s-.778-.1719-1.074 0zm26.344 11.4218c-.295-.1719-.777-.1719-1.074-.0016-.297.1736-.297.4519-.002.6255.295.1719.777.1719 1.074 0 .297-.1719.297-.4503.002-.6239zm-3.884-1.634c-.297.1736-.297.4519 0 .6254.295.172.777.172 1.072 0 .297-.1735.297-.4518 0-.6254-.295-.1719-.777-.1719-1.072 0zm-2.809-1.6308c-.296.172-.296.4519 0 .6238.297.1736.778.1736 1.074 0 .297-.1719.297-.4518 0-.6238-.296-.1719-.777-.1719-1.074 0zm-2.806-1.6307c-.297.1719-.297.4519 0 .6238s.777.1719 1.074 0c.295-.1719.295-.4519 0-.6238-.297-.1736-.777-.1736-1.074 0zm-2.807-1.6324c-.297.1719-.297.4519 0 .6238.295.1735.776.1735 1.072 0 .297-.1719.297-.4519 0-.6238-.296-.1719-.777-.1719-1.072 0zm-2.808-1.6307c-.297.1719-.297.4519 0 .6238s.777.1719 1.074 0c.297-.1719.297-.4519 0-.6238-.297-.1736-.777-.1736-1.074 0zm-2.807-1.6324c-.297.1735-.297.4519 0 .6254.295.1719.777.1719 1.072 0 .297-.1735.297-.4519 0-.6254-.295-.1719-.777-.1719-1.072 0zm20.727 8.1603c-.295-.172-.775-.1736-1.072-.0017-.298.1719-.298.4519-.003.6238.297.1736.777.1736 1.074.0016.297-.1719.298-.4518.001-.6237zm-3.883-1.6341c-.297.172-.297.4519 0 .6238.296.1736.777.1736 1.074 0 .296-.1719.296-.4518 0-.6238-.297-.1719-.778-.1719-1.074 0zm-2.807-1.6307c-.297.1719-.297.4519 0 .6238.295.1719.777.1719 1.072 0 .297-.1719.297-.4519 0-.6238-.295-.1736-.777-.1736-1.072 0zm-2.809-1.6324c-.296.1719-.296.4519 0 .6238.297.1735.778.1735 1.074 0 .297-.1719.297-.4519 0-.6238-.296-.1719-.777-.1719-1.074 0zm-2.806-1.6307c-.297.1719-.297.4519 0 .6238s.777.1719 1.074 0c.295-.1719.295-.4519 0-.6238-.297-.1736-.777-.1736-1.074 0zm-2.809-1.6324c-.295.1735-.295.4519 0 .6254.297.1719.778.1719 1.074 0 .297-.1735.297-.4519 0-.6254-.296-.1719-.777-.1719-1.074 0zm-2.806-1.6308c-.297.1719-.297.4519 0 .6238.297.172.777.172 1.074 0 .297-.1719.297-.4519 0-.6238s-.777-.1719-1.074 0zm-2.807-1.6324c-.297.1736-.297.4519 0 .6255.295.1719.777.1719 1.072 0 .297-.1736.297-.4519 0-.6255-.295-.1719-.777-.1719-1.072 0zm-2.808-1.6307c-.296.1719-.296.4518 0 .6237.297.1736.777.1736 1.074 0 .297-.1719.297-.4518 0-.6237-.297-.172-.777-.172-1.074 0zm22.483 9.7714c-.296.1719-.296.4519 0 .6255.296.1719.777.1719 1.074 0 .296-.1736.296-.4536 0-.6255-.297-.1719-.778-.1719-1.074 0zm-2.807-1.6307c-.297.1719-.297.4518 0 .6237.297.172.777.172 1.074 0 .297-.1719.297-.4518 0-.6237-.297-.1736-.777-.1736-1.074 0zm-2.807-1.6325c-.297.172-.297.4519 0 .6238.295.1736.777.1736 1.073 0 .296-.1719.296-.4518 0-.6238-.296-.1719-.778-.1719-1.073 0zm-2.808-1.6307c-.297.1719-.297.4519 0 .6238s.777.1719 1.074 0c.297-.1719.297-.4519 0-.6238s-.777-.1719-1.074 0zm-2.807-1.6324c-.297.1735-.297.4519 0 .6255.297.1719.777.1719 1.074 0 .295-.1736.295-.452 0-.6255-.297-.1719-.777-.1719-1.074 0zm-2.808-1.6308c-.296.172-.296.4519 0 .6239.297.1719.777.1719 1.074 0 .297-.172.297-.4519 0-.6239-.297-.1719-.777-.1719-1.074 0zm-2.807-1.6307c-.297.1719-.297.4519 0 .6238s.777.1719 1.074 0c.297-.1719.297-.4519 0-.6238-.297-.1736-.777-.1736-1.074 0zm-2.807-1.6324c-.297.1719-.297.4519 0 .6255.296.1719.777.1719 1.073 0 .297-.1736.297-.4536 0-.6255-.296-.1719-.777-.1719-1.073 0zm19.651 8.157c-.296.172-.296.4519 0 .6238.296.1736.777.1736 1.074 0 .296-.1719.296-.4518 0-.6238-.297-.1719-.778-.1719-1.074 0zm-2.807-1.6307c-.297.1719-.297.4519 0 .6238s.777.1719 1.074 0c.295-.1719.295-.4519 0-.6238-.297-.1719-.777-.1719-1.074 0zm-2.808-1.6324c-.296.1735-.296.4519.001.6255.295.1719.777.1719 1.073 0 .296-.172.296-.452 0-.6255-.296-.1719-.778-.1719-1.074 0zm-2.807-1.6308c-.297.172-.297.4519 0 .6239.297.1719.777.1719 1.074 0 .297-.172.297-.4519 0-.6239-.297-.1719-.777-.1719-1.074 0zm-2.807-1.6307c-.297.1719-.297.4519 0 .6238s.777.1719 1.074 0c.295-.1719.295-.4519 0-.6238-.297-.1736-.777-.1736-1.074 0zm11.229 3.2615c-.296.1735-.296.4535 0 .6255.296.1719.777.1719 1.074 0 .296-.172.296-.452 0-.6255-.297-.1719-.778-.1719-1.074 0zm-2.807-1.6308c-.297.172-.297.4519 0 .6239.297.1719.777.1719 1.074 0 .295-.172.295-.4519 0-.6239-.297-.1719-.777-.1719-1.074 0zm-2.808-1.6307c-.296.1719-.296.4519 0 .6238s.778.1719 1.074 0c.296-.1719.296-.4519 0-.6238-.296-.1736-.778-.1736-1.074 0zm-2.807-1.6324c-.297.1719-.297.4519 0 .6255.297.1719.777.1719 1.074 0 .297-.1736.297-.4536 0-.6255-.297-.1719-.777-.1719-1.074 0zm-2.807-1.6307c-.297.1719-.297.4518 0 .6237.297.172.777.172 1.074 0 .295-.1719.295-.4518 0-.6237-.297-.172-.777-.172-1.074 0zm-2.808-1.6324c-.296.1735-.296.4518 0 .6254.297.1719.777.1719 1.074 0 .297-.1736.297-.4519 0-.6254-.297-.1719-.777-.1719-1.074 0zm11.23 3.2631c-.297.1719-.297.4519 0 .6255.297.1719.777.1719 1.074 0 .295-.1736.295-.4536 0-.6255-.297-.1719-.777-.1719-1.074 0zm-2.808-1.6307c-.296.1719-.296.4518 0 .6237.296.172.778.172 1.074 0 .296-.1719.296-.4518 0-.6237-.296-.172-.778-.172-1.074 0zm-2.807-1.6324c-.297.1735-.297.4518 0 .6254.297.1719.777.1719 1.074 0 .297-.1736.297-.4519 0-.6254-.297-.1719-.777-.1719-1.074 0zm-2.807-1.6308c-.297.1719-.297.4519 0 .6238s.777.1719 1.074 0c.295-.1719.295-.4519 0-.6238-.297-.1719-.777-.1719-1.074 0zm-55.252 58.5237c-.296-.172-.777-.172-1.074 0-.297.172-.298.45-.002.624.296.172.777.173 1.074.001.297-.171.298-.451.002-.625zm-3.885-1.632c-.296.172-.296.45 0 .623.297.172.777.172 1.074 0 .296-.173.296-.451 0-.623-.297-.172-.777-.172-1.074 0zm-2.807-1.633c-.297.174-.297.452 0 .624.296.174.777.174 1.073 0 .298-.172.298-.45 0-.624-.296-.172-.777-.172-1.073 0zm-2.807-1.63c-.297.171-.297.451 0 .623.296.172.777.172 1.073 0 .297-.172.297-.452 0-.623-.296-.172-.777-.172-1.073 0zm-2.808-1.633c-.296.174-.296.452 0 .626.296.172.777.172 1.074 0 .296-.174.296-.452 0-.626-.297-.17-.778-.17-1.074 0zm-2.8072-1.631c-.2966.172-.2966.452 0 .624.2968.172.7771.172 1.0742 0 .296-.172.296-.452 0-.624-.2971-.172-.7774-.172-1.0742 0zm-2.8073-1.63c-.2966.172-.2966.45 0 .623.2965.172.7769.172 1.0735 0 .2966-.173.2966-.451 0-.623-.2966-.174-.777-.174-1.0735 0zm20.7285 8.158c-.296-.173-.776-.173-1.074-.001-.297.172-.298.452-.002.623.296.174.777.174 1.074.002.297-.172.298-.452.002-.624zm-3.884-1.634c-.297.174-.297.452 0 .624.296.174.777.174 1.073 0 .297-.172.297-.45 0-.624-.296-.172-.777-.172-1.073 0zm-2.808-1.63c-.296.171-.296.451 0 .623.297.172.777.172 1.074 0 .296-.172.296-.452 0-.623-.297-.172-.777-.172-1.074 0zm-2.807-1.633c-.297.174-.297.452 0 .626.296.172.777.172 1.073 0 .298-.174.298-.452 0-.626-.296-.17-.777-.17-1.073 0zm-2.808-1.631c-.296.172-.296.452 0 .624.297.172.778.172 1.074 0 .297-.172.297-.452 0-.624-.296-.172-.777-.172-1.074 0zm-2.807-1.63c-.296.172-.296.45 0 .623.296.172.777.172 1.074 0 .296-.173.296-.451 0-.623-.297-.174-.778-.174-1.074 0zm-2.8072-1.6328c-.2966.1736-.2966.4519 0 .6238.2968.1736.7771.1736 1.0742 0 .296-.1719.296-.4502 0-.6238-.2971-.1719-.7774-.1719-1.0742 0zm20.7282 8.1608c-.296-.174-.776-.174-1.073-.002-.297.172-.298.45-.002.624.296.172.776.173 1.073.001.298-.172.298-.452.002-.623zm-3.884-1.634c-.296.171-.296.451 0 .623s.777.172 1.074 0c.296-.172.296-.452 0-.623-.297-.172-.778-.172-1.074 0zm-2.807-1.633c-.297.174-.297.452 0 .626.296.172.777.172 1.073 0 .297-.174.297-.452 0-.626-.296-.17-.777-.17-1.073 0zm-2.808-1.631c-.296.172-.296.452 0 .624.297.172.777.172 1.074 0 .296-.172.296-.452 0-.624-.297-.172-.777-.172-1.074 0zm-2.807-1.63c-.297.172-.297.45 0 .623.296.172.777.172 1.073 0 .298-.173.298-.451 0-.623-.296-.174-.777-.174-1.073 0zm-2.808-1.6328c-.296.1736-.296.4519 0 .6238.297.1736.778.1736 1.074 0 .296-.1719.296-.4502 0-.6238-.296-.1719-.777-.1719-1.074 0zm-2.807-1.6307c-.296.1719-.296.4502 0 .6238.296.1719.777.1719 1.074 0 .296-.1736.296-.4519 0-.6238-.297-.1719-.778-.1719-1.074 0zm20.729 8.1585c-.296-.172-.776-.173-1.074 0-.297.172-.298.45-.002.622.296.174.777.174 1.074.002.297-.172.298-.452.002-.624zm-3.885-1.634c-.297.174-.297.452 0 .626.297.172.778.172 1.074 0 .296-.174.296-.452 0-.626-.296-.17-.777-.17-1.074 0zm-2.807-1.631c-.296.172-.296.452 0 .624s.777.172 1.074 0c.296-.172.296-.452 0-.624-.297-.172-.778-.172-1.074 0zm-2.807-1.63c-.297.172-.297.45 0 .623.296.172.777.172 1.073 0 .297-.173.297-.451 0-.623-.296-.174-.777-.174-1.073 0zm-2.808-1.6328c-.296.1736-.296.4519 0 .6238.297.1736.777.1736 1.074 0 .296-.1719.296-.4502 0-.6238-.297-.1719-.777-.1719-1.074 0zm-2.807-1.6307c-.297.1719-.297.4502 0 .6238.296.1719.777.1719 1.073 0 .298-.1736.298-.4519 0-.6238-.296-.1719-.777-.1719-1.073 0zm-2.808-1.6325c-.296.1736-.296.4519 0 .6239.297.1735.778.1735 1.074 0 .296-.172.296-.4503 0-.6239-.296-.1719-.777-.1719-1.074 0zm20.729 8.16c-.296-.173-.777-.173-1.074-.001-.297.172-.298.452-.002.624.296.171.777.173 1.074.001.297-.172.298-.452.002-.624zm-3.885-1.634c-.296.172-.296.452 0 .624.297.172.778.172 1.074 0 .297-.172.297-.452 0-.624-.296-.172-.777-.172-1.074 0zm-2.807-1.63c-.297.172-.297.45 0 .623.297.172.778.172 1.074 0 .296-.173.296-.451 0-.623-.296-.174-.777-.174-1.074 0zm-2.807-1.6328c-.296.1736-.296.4519 0 .6238.296.1736.777.1736 1.074 0 .296-.1719.296-.4502 0-.6238-.297-.1719-.778-.1719-1.074 0zm-2.807-1.6307c-.297.1719-.297.4502 0 .6238.296.1719.777.1719 1.073 0 .297-.1736.297-.4519 0-.6238-.296-.1719-.777-.1719-1.073 0zm-2.808-1.6325c-.296.1736-.296.4519 0 .6239.296.1735.777.1735 1.074 0 .296-.172.296-.4503 0-.6239-.297-.1719-.778-.1719-1.074 0zm-2.807-1.6307c-.297.1719-.297.4519 0 .6238.296.172.777.172 1.073 0 .298-.1719.298-.4519 0-.6238-.296-.1719-.777-.1719-1.073 0zm20.728 8.1587c-.295-.172-.776-.172-1.073 0-.297.172-.298.45-.002.624.296.172.777.173 1.073 0 .298-.17.299-.45.002-.624zm-3.884-1.632c-.297.172-.297.45 0 .623.297.172.777.172 1.074 0 .296-.173.296-.451 0-.623-.297-.174-.777-.174-1.074 0zm-2.808-1.6328c-.296.1736-.296.4519 0 .6238.297.1736.777.1736 1.074 0 .297-.1719.297-.4502 0-.6238-.297-.1719-.777-.1719-1.074 0zm-2.807-1.6307c-.297.1719-.297.4502 0 .6238.297.1719.778.1719 1.074 0 .296-.1736.296-.4519 0-.6238s-.777-.1719-1.074 0zm-2.807-1.6325c-.296.1736-.296.4519 0 .6239.296.1735.777.1735 1.074 0 .296-.172.296-.4503 0-.6239-.297-.1719-.778-.1719-1.074 0zm-2.807-1.6307c-.297.1719-.297.4519 0 .6238.296.172.777.172 1.073 0 .297-.1719.297-.4519 0-.6238-.296-.1719-.777-.1719-1.073 0zm-2.808-1.6307c-.296.1719-.296.4502 0 .6238.296.1719.777.1719 1.074 0 .296-.1736.296-.4519 0-.6238-.297-.1736-.778-.1736-1.074 0zm20.729 8.1584c-.296-.173-.777-.173-1.074-.001-.297.172-.298.452-.002.623.296.174.776.174 1.074.002.297-.172.298-.452.002-.624zm-3.884-1.6338c-.297.1736-.297.4519 0 .6238.295.1736.776.1736 1.073 0 .297-.1719.297-.4502 0-.6238-.297-.1719-.778-.1719-1.073 0zm-2.808-1.6307c-.297.1719-.297.4502 0 .6238.297.1719.777.1719 1.074 0 .296-.1736.296-.4519 0-.6238-.297-.1719-.777-.1719-1.074 0zm-2.808-1.6325c-.296.1736-.296.4519 0 .6239.297.1735.777.1735 1.074 0 .297-.172.297-.4503 0-.6239-.297-.1719-.777-.1719-1.074 0zm12.307 3.2649c-.296-.172-.776-.172-1.074 0-.297.1719-.297.4518-.001.6237.296.172.776.1736 1.073.0017.297-.1719.298-.4519.002-.6254zm-3.885-1.6324c-.296.1719-.296.4502 0 .6238.297.1719.777.1719 1.074 0 .296-.1736.296-.4519 0-.6238-.297-.1719-.777-.1719-1.074 0zm-2.806-1.6325c-.298.1736-.298.4519 0 .6239.295.1735.776.1735 1.073 0 .297-.172.297-.4503 0-.6239-.297-.1719-.778-.1719-1.073 0zm-2.808-1.6307c-.297.1719-.297.4519 0 .6238.297.172.777.172 1.074 0 .296-.1719.296-.4519 0-.6238-.297-.1719-.777-.1719-1.074 0zm12.331 3.2484c-.296-.1735-.777-.1735-1.074-.0016-.297.1719-.298.4519-.002.6238s.777.1736 1.073.0016c.298-.1719.299-.4519.003-.6238zm-3.885-1.634c-.296.1719-.296.4519 0 .6238.296.172.777.172 1.074 0 .297-.1719.297-.4519 0-.6238s-.778-.1719-1.074 0zm-2.807-1.6307c-.297.1719-.297.4502 0 .6221.296.1735.777.1735 1.074 0 .296-.1719.296-.4502 0-.6221-.297-.1736-.778-.1736-1.074 0zm-2.807-1.6324c-.297.1736-.297.4519 0 .6238.296.1719.777.1719 1.073 0 .297-.1719.297-.4502 0-.6238-.296-.1719-.777-.1719-1.073 0zm-2.808-1.6308c-.297.1719-.297.4503 0 .6238.297.1719.777.1719 1.074 0 .296-.1735.296-.4519 0-.6238-.297-.1719-.777-.1719-1.074 0zm15.114 4.8956c-.296-.1719-.777-.1736-1.073-.0017-.298.1736-.299.4519-.002.6255.295.1719.776.1719 1.073 0 .297-.1719.298-.4503.002-.6238zm-3.885-1.6324c-.296.1719-.296.4502 0 .6221.297.1735.778.1735 1.074 0 .296-.1719.296-.4502 0-.6221-.297-.1736-.777-.1736-1.074 0zm-2.807-1.6324c-.296.1736-.296.4519 0 .6238s.777.1719 1.074 0c.296-.1719.296-.4502 0-.6238-.297-.1719-.778-.1719-1.074 0zm-2.807-1.6308c-.297.1719-.297.4503 0 .6238.296.1719.777.1719 1.074 0 .296-.1735.296-.4519 0-.6238-.297-.1719-.778-.1719-1.074 0zm-2.807-1.6324c-.297.1719-.297.4519 0 .6238.296.172.776.172 1.073 0 .297-.1719.297-.4519 0-.6238s-.777-.1719-1.073 0zm15.113 4.8972c-.295-.1736-.776-.1736-1.074-.0017-.296.172-.297.4519-.002.6238.297.1736.777.1736 1.074.0017.297-.172.299-.4519.002-.6238zm-3.884-1.634c-.297.1736-.297.4519 0 .6238.296.1719.777.1719 1.073 0 .297-.1719.297-.4502 0-.6238-.296-.1719-.777-.1719-1.073 0zm-2.808-1.6308c-.296.1719-.296.4503 0 .6238.297.1719.777.1719 1.074 0 .296-.1735.296-.4519 0-.6238-.297-.1719-.777-.1719-1.074 0zm-2.807-1.6324c-.296.1719-.296.4519 0 .6238.296.172.777.172 1.074 0 .296-.1719.296-.4502 0-.6238-.297-.1719-.778-.1719-1.074 0zm-2.807-1.6307c-.297.1719-.297.4519 0 .6238.296.1719.777.1719 1.074 0 .296-.1719.296-.4519 0-.6238-.297-.1719-.778-.1719-1.074 0zm-2.807-1.6324c-.297.1735-.297.4519 0 .6238.296.1735.776.1735 1.073 0 .297-.1719.297-.4503 0-.6238-.297-.172-.777-.172-1.073 0zm17.921 6.5279c-.296-.1719-.777-.1735-1.074-.0016-.297.1735-.298.4518-.002.6254.296.1719.776.1735 1.074.0016.297-.1735.297-.4519.002-.6254zm-3.885-1.6324c-.296.1719-.296.4503 0 .6238.297.1719.777.1719 1.074 0 .296-.1735.296-.4519 0-.6238-.297-.1719-.777-.1719-1.074 0zm-2.807-1.6324c-.297.1736-.297.4519 0 .6238.296.172.777.172 1.073 0 .297-.1719.297-.4502 0-.6238-.296-.1719-.777-.1719-1.073 0zm-2.808-1.6307c-.296.1719-.296.4519 0 .6238.297.1719.777.1719 1.074 0 .296-.1719.296-.4519 0-.6238-.297-.1719-.777-.1719-1.074 0z"/>
  <path fill="#379BA7" d="M155.201 64.076l-8.692 14.6374s-2.749-1.6204-3.83-2.2245c-1.109-.6199-1.796-1.981-1.796-3.9293 0-3.8469 2.682-8.5253 5.992-10.4487 1.78-1.0342 3.379-1.0611 4.477-.2673l3.849 2.2324z"/>
  <path fill="#000" d="M149.548 61.5403c-.782 0-1.652.2653-2.55.7859-3.236 1.8817-5.869 6.4717-5.869 10.2331 0 1.7923.593 3.1106 1.67 3.7117.896.5017 2.958 1.7128 3.624 2.1033l8.438-14.2092-3.633-2.1052c-.479-.3477-1.051-.5196-1.68-.5196zm-3.038 17.4211c-.043 0-.086-.0109-.126-.0338-.026-.0168-2.758-1.6263-3.825-2.2214-1.24-.6945-1.924-2.1669-1.924-4.1469 0-3.9204 2.745-8.7031 6.116-10.6643 1.797-1.0432 3.526-1.1346 4.745-.2524l3.828 2.2175c.058.0328.099.0885.116.152.017.0656.007.1332-.028.1908l-8.691 14.6373c-.046.0775-.128.1212-.211.1212"/>
  <path fill="#000" d="M154.317 69.253c0 2.2901-1.597 5.0759-3.568 6.2204-1.97 1.1455-3.568.2166-3.568-2.0735 0-2.29 1.598-5.0748 3.568-6.2203 1.971-1.1455 3.568-.2166 3.568 2.0734z"/>
  <path fill="#000" d="M152.342 66.9357c-.445 0-.945.154-1.469.459-1.9 1.1028-3.445 3.7972-3.445 6.0058 0 1.0144.328 1.7635.922 2.1092.595.3467 1.403.2563 2.276-.2513 1.899-1.1038 3.445-3.7982 3.445-6.0058 0-1.0144-.328-1.7635-.922-2.1092-.238-.1391-.51-.2077-.807-.2077zm-3.186 9.2784c-.382 0-.738-.0914-1.052-.2732-.754-.4391-1.169-1.3402-1.169-2.5404 0-2.3665 1.656-5.2537 3.691-6.4369 1.034-.5981 2.016-.6865 2.77-.2514.753.4391 1.168 1.3403 1.168 2.5404 0 2.3655-1.656 5.2527-3.691 6.4369-.601.3488-1.185.5246-1.717.5246"/>
  <path fill="#DDECF0" d="M153.416 68.4923c0 2.2901-1.597 5.0759-3.568 6.2204-1.97 1.1455-3.568.2176-3.568-2.0735 0-2.29 1.598-5.0748 3.568-6.2203 1.971-1.1455 3.568-.2166 3.568 2.0734z"/>
  <path fill="#000" d="M151.44 66.1753c-.445 0-.944.1539-1.468.459-1.9 1.1037-3.445 3.7981-3.445 6.0057 0 1.0154.328 1.7645.922 2.1102.593.3467 1.402.2563 2.276-.2524 1.899-1.1027 3.445-3.7961 3.445-6.0047 0-1.0154-.328-1.7645-.922-2.1102-.238-.1391-.511-.2076-.808-.2076zm-3.187 9.2793c-.382 0-.736-.0914-1.051-.2742-.754-.4382-1.168-1.3403-1.168-2.5404 0-2.3655 1.656-5.2527 3.691-6.4369 1.033-.5971 2.015-.6865 2.769-.2514.754.4391 1.169 1.3412 1.169 2.5414 0 2.3665-1.656 5.2527-3.691 6.4359-.601.3487-1.186.5256-1.719.5256"/>
  <path fill="#000" d="M150.749 75.4735c-1.97 1.1455-3.568.2166-3.568-2.0735 0-2.29 1.598-5.0758 3.568-6.2203 1.971-1.1455 3.568-.2176 3.568 2.0734 0 2.2901-1.597 5.0749-3.568 6.2204zm0-11.1134c-3.31 1.9244-5.993 6.6019-5.993 10.4487 0 3.8479 2.683 5.4067 5.993 3.4832 3.311-1.9234 5.993-6.6018 5.993-10.4486 0-3.8469-2.682-5.4067-5.993-3.4833z"/>
  <path fill="#000" d="M152.342 66.9358c-.445 0-.945.154-1.469.459-1.9 1.1028-3.445 3.7972-3.445 6.0058 0 1.0143.328 1.7634.922 2.1092.594.3467 1.403.2563 2.276-.2514 1.899-1.1038 3.445-3.7982 3.445-6.0057 0-1.0144-.328-1.7635-.922-2.1093-.238-.139-.51-.2076-.807-.2076zm-3.186 9.2784c-.382 0-.738-.0914-1.052-.2733-.755-.4391-1.169-1.3402-1.169-2.5403 0-2.3666 1.656-5.2537 3.691-6.437 1.034-.5981 2.016-.6865 2.77-.2513.753.4391 1.168 1.3402 1.168 2.5404 0 2.3655-1.656 5.2526-3.691 6.4369-.601.3477-1.185.5246-1.717.5246zm4.269-12.4318c-.776 0-1.646.2673-2.552.7938-3.237 1.8807-5.87 6.4707-5.87 10.2331 0 1.7685.58 3.0789 1.633 3.6909 1.051.61 2.468.461 3.99-.4232 3.237-1.8817 5.87-6.4717 5.87-10.2331 0-1.7685-.58-3.0799-1.633-3.6909-.425-.2474-.911-.3706-1.438-.3706zm-5.353 15.5852c-.612 0-1.18-.1461-1.683-.4382-1.212-.7034-1.879-2.1668-1.879-4.1201 0-3.9203 2.744-8.7041 6.116-10.6643 1.681-.9756 3.274-1.1246 4.484-.4222 1.212.7044 1.879 2.1668 1.879 4.1211 0 3.9194-2.743 8.7031-6.116 10.6643-.983.5712-1.936.8594-2.801.8594z"/>
  <path fill="#000" d="M150.991 69.9022c0 .7332-.511 1.6254-1.143 1.993-.631.3666-1.143.0696-1.143-.6646 0-.7332.512-1.6254 1.143-1.993.632-.3666 1.143-.0686 1.143.6646z"/>
  <path fill="#379BA7" d="M140.194 72.7993l-8.692 14.6373s-2.749-1.6204-3.83-2.2244c-1.109-.62-1.797-1.9811-1.797-3.9293 0-3.8469 2.683-8.5253 5.992-10.4488 1.781-1.0342 3.38-1.061 4.477-.2672l3.85 2.2324z"/>
  <path fill="#000" d="M134.54 70.2636c-.782 0-1.651.2642-2.549.7858-3.237 1.8817-5.869 6.4727-5.869 10.2341 0 1.7913.592 3.1107 1.669 3.7108.896.5017 2.959 1.7128 3.624 2.1032l8.438-14.2081-3.632-2.1072c-.48-.3468-1.051-.5186-1.681-.5186zm-3.038 17.4211c-.042 0-.086-.0109-.125-.0338-.027-.0169-2.759-1.6264-3.826-2.2215-1.239-.6934-1.922-2.1648-1.922-4.1459 0-3.9203 2.742-8.7041 6.115-10.6652 1.796-1.0442 3.526-1.1356 4.744-.2534l3.829 2.2195c.057.0328.099.0884.115.153.017.0646.007.1321-.027.1898l-8.692 14.6363c-.045.0785-.127.1212-.211.1212"/>
  <path fill="#000" d="M139.31 77.9765c0 2.29-1.597 5.0758-3.568 6.2203-1.97 1.1455-3.568.2176-3.568-2.0734 0-2.2901 1.598-5.0749 3.568-6.2204 1.971-1.1455 3.568-.2166 3.568 2.0735z"/>
  <path fill="#000" d="M137.335 75.659c-.446 0-.946.154-1.469.459-1.9 1.1038-3.445 3.7982-3.445 6.0058 0 1.0143.328 1.7644.922 2.1102.594.3437 1.402.2563 2.276-.2524 1.899-1.1028 3.445-3.7972 3.445-6.0048 0-1.0153-.327-1.7644-.922-2.1102-.238-.1391-.51-.2076-.807-.2076zm-3.187 9.2784c-.382 0-.737-.0904-1.052-.2742-.754-.4372-1.168-1.3393-1.168-2.5394 0-2.3656 1.656-5.2527 3.691-6.437 1.033-.5971 2.018-.6865 2.77-.2514.754.4392 1.168 1.3413 1.168 2.5414 0 2.3656-1.656 5.2527-3.691 6.436-.601.3487-1.185.5246-1.718.5246"/>
  <path fill="#DDECF0" d="M138.409 77.2165c0 2.2901-1.597 5.0759-3.568 6.2204-1.971 1.1455-3.568.2166-3.568-2.0735 0-2.29 1.597-5.0748 3.568-6.2203 1.971-1.1455 3.568-.2166 3.568 2.0734z"/>
  <path fill="#000" d="M136.434 74.8991c-.445 0-.946.154-1.47.459-1.899 1.1028-3.445 3.7972-3.445 6.0048 0 1.0154.328 1.7645.923 2.1102.594.3477 1.404.2563 2.275-.2524 1.9-1.1027 3.445-3.7971 3.445-6.0047 0-1.0154-.327-1.7645-.922-2.1102-.237-.1391-.509-.2067-.806-.2067zm-3.187 9.2784c-.382 0-.738-.0914-1.051-.2742-.755-.4382-1.17-1.3403-1.17-2.5404 0-2.3655 1.656-5.2527 3.691-6.4359 1.034-.5991 2.018-.6875 2.77-.2524.754.4391 1.168 1.3412 1.168 2.5414 0 2.3655-1.655 5.2527-3.691 6.4359-.601.3487-1.185.5256-1.717.5256"/>
  <path fill="#000" d="M135.742 84.1971c-1.97 1.1455-3.568.2166-3.568-2.0735 0-2.29 1.598-5.0758 3.568-6.2203 1.97-1.1455 3.568-.2166 3.568 2.0734 0 2.2901-1.598 5.0749-3.568 6.2204zm0-11.1124c-3.309 1.9234-5.993 6.6009-5.993 10.4487 0 3.8469 2.684 5.4057 5.993 3.4823 3.311-1.9235 5.993-6.6019 5.993-10.4488 0-3.8468-2.682-5.4056-5.993-3.4822"/>
  <path fill="#000" d="M137.334 75.6591c-.445 0-.945.1539-1.468.459-1.9 1.1037-3.445 3.7981-3.445 6.0057 0 1.0144.328 1.7645.922 2.1102.594.3438 1.402.2563 2.276-.2523 1.899-1.1028 3.445-3.7972 3.445-6.0048 0-1.0154-.327-1.7645-.922-2.1102-.238-.1391-.51-.2076-.808-.2076zm-3.187 9.2783c-.382 0-.736-.0904-1.051-.2742-.754-.4371-1.168-1.3392-1.168-2.5394 0-2.3655 1.656-5.2527 3.691-6.4369 1.032-.5971 2.017-.6865 2.77-.2514.754.4391 1.168 1.3413 1.168 2.5414 0 2.3656-1.656 5.2527-3.691 6.436-.601.3487-1.186.5245-1.719.5245zm1.719-11.6379c-3.238 1.8817-5.87 6.4727-5.87 10.2341 0 1.7675.579 3.0779 1.632 3.6899 1.053.612 2.47.461 3.991-.4232 3.236-1.8808 5.87-6.4708 5.87-10.2332 0-1.7674-.58-3.0789-1.632-3.6899-1.051-.611-2.469-.4629-3.991.4223zm-2.801 14.7913c-.613 0-1.181-.145-1.684-.4371-1.211-.7044-1.878-2.1669-1.878-4.1201 0-3.9204 2.743-8.7041 6.116-10.6653 1.679-.9746 3.271-1.1257 4.485-.4213 1.211.7044 1.878 2.1669 1.878 4.1201 0 3.9204-2.744 8.7041-6.116 10.6633-.983.5723-1.937.8604-2.801.8604"/>
  <path fill="#000" d="M135.984 78.6258c0 .7332-.511 1.6253-1.143 1.9919-.631.3676-1.143.0706-1.143-.6636 0-.7332.512-1.6254 1.143-1.993.632-.3666 1.143-.0686 1.143.6647z"/>
  <path fill="#379BA7" d="M125.179 81.4404l-8.692 14.6374s-2.749-1.6205-3.83-2.2245c-1.11-.62-1.796-1.9811-1.796-3.9293 0-3.8469 2.682-8.5253 5.992-10.4487 1.78-1.0343 3.379-1.0611 4.477-.2673l3.849 2.2324z"/>
  <path fill="#000" d="M119.525 78.9047c-.781 0-1.651.2642-2.549.7858-3.236 1.8807-5.869 6.4727-5.869 10.2341 0 1.7913.592 3.1107 1.67 3.7118.896.5007 2.958 1.7118 3.624 2.1022l8.437-14.2081-3.631-2.1072c-.481-.3468-1.052-.5186-1.682-.5186zm-3.038 17.4211c-.042 0-.086-.0109-.125-.0338-.027-.0169-2.758-1.6263-3.825-2.2205-1.24-.6944-1.923-2.1668-1.923-4.1469 0-3.9203 2.744-8.7041 6.115-10.6652 1.795-1.0422 3.526-1.1356 4.746-.2534l3.827 2.2195c.057.0328.099.0884.116.153.016.0646.007.1321-.028.1898l-8.691 14.6363c-.046.0785-.128.1212-.212.1212"/>
  <path fill="#000" d="M124.295 86.6175c0 2.2901-1.597 5.0759-3.568 6.2204-1.97 1.1455-3.568.2166-3.568-2.0735 0-2.29 1.598-5.0748 3.568-6.2203 1.971-1.1455 3.568-.2166 3.568 2.0734z"/>
  <path fill="#000" d="M122.319 84.2998c-.445 0-.944.154-1.468.459-1.899 1.1037-3.445 3.7981-3.445 6.0057 0 1.0154.328 1.7645.922 2.1102.593.3467 1.403.2563 2.276-.2523 1.899-1.1028 3.445-3.7972 3.445-6.0048 0-1.0154-.328-1.7645-.922-2.1102-.238-.1391-.511-.2076-.808-.2076zm-3.186 9.2793c-.382 0-.737-.0914-1.052-.2742-.754-.4381-1.168-1.3402-1.168-2.5404 0-2.3655 1.656-5.2527 3.691-6.4369 1.032-.5971 2.017-.6865 2.769-.2514.754.4392 1.169 1.3413 1.169 2.5414 0 2.3655-1.656 5.2527-3.691 6.4359-.601.3488-1.186.5256-1.718.5256"/>
  <path fill="#DDECF0" d="M123.394 85.8568c0 2.29-1.597 5.0758-3.568 6.2203-1.97 1.1455-3.568.2166-3.568-2.0734s1.598-5.0748 3.568-6.2204c1.971-1.1455 3.568-.2165 3.568 2.0735z"/>
  <path fill="#000" d="M121.419 83.54c-.445 0-.946.154-1.469.459-1.9 1.1028-3.445 3.7972-3.445 6.0048 0 1.0153.327 1.7644.921 2.1102.597.3467 1.404.2563 2.277-.2514 1.899-1.1038 3.444-3.7982 3.444-6.0057 0-1.0144-.327-1.7645-.921-2.1102-.238-.1381-.51-.2067-.807-.2067zm-3.186 9.2784c-.382 0-.739-.0914-1.053-.2733-.753-.4391-1.169-1.3412-1.169-2.5413 0-2.3656 1.656-5.2527 3.692-6.436 1.034-.5991 2.016-.6895 2.77-.2513.753.4381 1.168 1.3402 1.168 2.5404 0 2.3655-1.656 5.2526-3.691 6.4369-.601.3477-1.185.5246-1.717.5246"/>
  <path fill="#000" d="M120.727 92.8379c-1.97 1.1455-3.568.2165-3.568-2.0735s1.598-5.0758 3.568-6.2203c1.97-1.1455 3.568-.2176 3.568 2.0734 0 2.29-1.598 5.0748-3.568 6.2204zm0-11.1134c-3.31 1.9244-5.993 6.6018-5.993 10.4487 0 3.8478 2.683 5.4067 5.993 3.4832 3.31-1.9234 5.993-6.6018 5.993-10.4487 0-3.8468-2.683-5.4066-5.993-3.4832z"/>
  <path fill="#000" d="M122.32 84.2997c-.446 0-.945.154-1.469.459-1.899 1.1038-3.445 3.7982-3.445 6.0057 0 1.0144.328 1.7635.922 2.1093.595.3467 1.403.2573 2.276-.2514 1.899-1.1028 3.445-3.7972 3.445-6.0047 0-1.0154-.328-1.7645-.922-2.1103-.238-.139-.51-.2076-.807-.2076zm-3.187 9.2784c-.382 0-.738-.0905-1.052-.2743-.754-.4371-1.168-1.3392-1.168-2.5394 0-2.3655 1.656-5.2526 3.691-6.4369 1.033-.5971 2.018-.6865 2.77-.2513.753.4391 1.168 1.3412 1.168 2.5414 0 2.3655-1.656 5.2526-3.691 6.4359-.601.3487-1.186.5246-1.718.5246zm1.718-11.638c-3.236 1.8817-5.87 6.4727-5.87 10.2341 0 1.7675.58 3.0779 1.632 3.6899 1.053.612 2.47.461 3.991-.4232 3.237-1.8807 5.87-6.4707 5.87-10.2331 0-1.7675-.581-3.0789-1.632-3.6899-1.053-.611-2.47-.462-3.991.4222zm-2.801 14.7913c-.613 0-1.182-.145-1.684-.4371-1.211-.7044-1.878-2.1668-1.878-4.1201 0-3.9203 2.744-8.7041 6.116-10.6653 1.68-.9746 3.274-1.1246 4.485-.4212 1.211.7044 1.878 2.1668 1.878 4.1201 0 3.9203-2.744 8.7041-6.116 10.6633-.983.5722-1.937.8603-2.801.8603"/>
  <path fill="#000" d="M120.969 87.2663c0 .7332-.511 1.6253-1.143 1.9929-.631.3666-1.143.0696-1.143-.6646 0-.7332.512-1.6254 1.143-1.993.632-.3666 1.143-.0685 1.143.6647z"/>
  <path fill="#000" d="M156.106 59.6131L115.539 83.193c-.468.5484-3.12 3.8449-3.936 9.181l.751-.2662c.739-4.8414 3.08-7.7921 3.505-8.2948l39.933-23.2074c.425.009 2.768.2375 3.507 4.2195l.749-.6051c-.818-4.4102-3.492-4.6059-3.942-4.6069z"/>
  <path fill="#000" d="M115.699 83.3868c-.551.6518-2.932 3.7048-3.785 8.6127l.219-.0775c.769-4.7946 3.079-7.7275 3.539-8.2699.018-.0219.039-.0398.064-.0547l39.933-23.2063c.039-.0218.088-.0199.127-.0338.474.009 2.811.2474 3.663 4.0198l.319-.2583c-.774-3.8807-3.012-4.2324-3.609-4.2572l-40.47 23.5252zm-4.096 9.2347c-.056 0-.112-.0199-.157-.0577-.067-.0546-.099-.142-.086-.2285.82-5.3699 3.469-8.6932 3.991-9.3042.019-.0218.04-.0397.064-.0536l40.568-23.5799c.038-.0218.069-.0427.124-.0338.55.002 3.336.2454 4.184 4.8096.017.0904-.017.1828-.089.2394l-.749.6061c-.068.0536-.159.0685-.24.0387-.082-.0308-.141-.1023-.157-.1878-.67-3.6094-2.658-3.9809-3.202-4.0127L116.02 84.0058c-.506.608-2.711 3.4782-3.424 8.1388-.013.0904-.076.1659-.161.1967l-.75.2653c-.026.0099-.054.0149-.082.0149z"/>
  <path fill="#000" d="M156.106 59.6132L115.539 83.193c-.468.5484-3.12 3.8449-3.935 9.181l-6.547-3.97 50.942-29.6055 1.771 1.3492c-.762-.4908-1.455-.5335-1.664-.5345z"/>
  <path fill="#000" d="M105.543 88.4089l5.875 3.5627c.882-5.1563 3.422-8.3435 3.934-8.9406.017-.0218.039-.0387.063-.0536l40.568-23.5799c.038-.0219.08-.0328.123-.0328.062 0 .145.002.245.0129l-.37-.2812-50.438 29.3125zm6.061 4.2124c-.044 0-.089-.0109-.127-.0357l-6.547-3.9691c-.075-.0447-.12-.1272-.119-.2146 0-.0884.047-.1689.123-.2136l50.941-29.6055c.086-.0497.194-.0427.273.0179l1.771 1.3482c.105.0814.129.2315.054.3398-.076.1122-.224.139-.336.0685-.64-.4133-1.228-.4848-1.467-.4938l-40.471 23.5233c-.566.6696-3.065 3.8757-3.851 9.024-.013.0815-.065.153-.139.1878-.034.0149-.07.0228-.105.0228z"/>
  <path fill="#000" d="M153.953 61.6747l1.84-1.069c.425.0079 2.766.2374 3.506 4.2194l-5.346-3.1504z"/>
  <path fill="#000" d="M154.444 61.6763l4.495 2.6487c-.759-3.1027-2.57-3.4375-3.085-3.4673l-1.41.8186zm4.855 3.3968c-.043 0-.086-.0119-.125-.0338l-5.345-3.1504c-.076-.0447-.123-.1271-.123-.2156.001-.0884.048-.1698.124-.2146l1.839-1.068c.039-.0208.088-.0188.128-.0328.49.009 2.972.2633 3.744 4.4211.018.0964-.02.1928-.1.2484-.043.0298-.092.0457-.142.0457zm4.481-10.7969l-1.689.9826c2.184-.1371 4.752.5523 5.675 5.5218l.935-.755c-1.022-5.503-4.359-5.7474-4.921-5.7494z"/>
  <path fill="#000" d="M163.008 55.0116c2.582.1848 4.197 1.9344 4.919 5.3203l.503-.4064c-.976-4.9705-3.856-5.3778-4.585-5.3997l-.837.4858zm4.757 6.0177c-.029 0-.057-.005-.086-.0159-.081-.0298-.14-.1013-.156-.1868-.932-5.0142-3.536-5.4484-5.417-5.3202-.127-.001-.22-.0656-.252-.1768-.034-.1103.014-.2285.112-.2872l1.691-.9815c.038-.0219.08-.0328.123-.0328.679.001 4.113.2941 5.163 5.9521.017.0904-.016.1828-.088.2394l-.935.7551c-.045.0357-.1.0546-.155.0546z"/>
  <path fill="#000" d="M162.09 55.2585c2.185-.1371 4.752.5533 5.675 5.5229l-7.602-4.4033 1.927-1.1196z"/>
  <path fill="#000" d="M160.657 56.3777l6.756 3.9124c-1.001-4.4608-3.447-4.885-5.25-4.7876l-1.506.8752zm7.109 4.6516c-.043 0-.085-.0109-.124-.0338l-7.602-4.4022c-.076-.0447-.124-.1262-.124-.2156 0-.0884.048-.1709.124-.2156l1.927-1.1196c.033-.0179.069-.0298.108-.0328 3.246-.1977 5.18 1.671 5.932 5.7255.018.0954-.02.1918-.099.2484-.043.0298-.092.0457-.142.0457zM107.798 92.969l-26.8499 15.612c-.1431-1.896-1.3177-3.488-3.0232-3.588v-2.371l33.2441-19.3288-3.371 9.6758z"/>
  <path fill="#000" d="M78.1717 104.769c1.5338.206 2.7083 1.555 2.9797 3.406L107.596 92.8l3.12-8.9565-32.5443 18.9215v2.004zm2.7764 4.06c-.0404 0-.0799-.01-.1155-.029-.075-.039-.1243-.116-.1312-.201-.1431-1.889-1.29-3.27-2.7912-3.356-.1303-.008-.232-.118-.232-.249v-2.372c0-.089.0474-.171.1234-.216l33.2434-19.3285c.09-.0526.202-.0427.282.0239.079.0665.109.1758.075.2742l-3.372 9.6757c-.019.0557-.058.1024-.108.1332L81.0715 108.796c-.0385.022-.0809.033-.1234.033z"/>
  <path fill="#000" d="M80.9478 108.581c-.1432-1.896-1.3177-3.488-3.0232-3.588v-2.371l-3.6529 2.123 6.6761 3.836z"/>
  <path fill="#000" d="M74.7671 104.744l5.8756 3.374c-.2852-1.638-1.3621-2.796-2.732-2.876-.1303-.008-.2319-.116-.2319-.248v-1.943l-2.9117 1.693zm6.1806 4.085c-.0415 0-.0839-.011-.1224-.033l-6.676-3.835c-.077-.044-.1244-.126-.1244-.215s.0464-.171.1234-.216l3.6538-2.124c.076-.044.1708-.044.2468 0 .076.044.1234.127.1234.215v2.147c1.6384.222 2.8662 1.745 3.0221 3.794.0069.091-.0375.179-.1145.228-.0404.027-.0858.039-.1322.039z"/>
  <path fill="#379BA7" d="M107.741 94.6556l-2.418 1.4882v-4.7976l2.418-1.4883v4.7977zm-19.2189 6.5564l2.1724-1.263v4.613l-2.1724 1.263v-4.613zm15.0089-8.5613v4.4509l-11.0234 6.4304v-4.4514l11.0234-6.4299zm1.755-3.1544v-3.9899l-1.755 1.0064v3.9899l-10.7658 6.2651v-3.99l-2.0707 1.1952v3.9899l-3.8266 2.2241v8.079l1.5249.795 21.7642-12.6479v-8.0782l-1.525-.7958-3.346 1.9572z"/>
  <path fill="#000" d="M105.57 91.4857v4.2144l1.924-1.1842v-4.2145l-1.924 1.1843zm-.247 4.9059c-.041 0-.083-.0099-.12-.0318-.078-.0437-.127-.1261-.127-.2166v-4.7976c0-.0864.046-.1669.119-.2116l2.417-1.4883c.076-.0457.171-.0487.249-.005.078.0447.126.1262.126.2166v4.7977c0 .0864-.044.1669-.117.2116l-2.418 1.4883c-.04.0248-.083.0367-.129.0367zm-12.5681 2.8325v3.8769l10.5301-6.1431v-3.8766l-10.5301 6.1428zm-.2468 4.5559c-.0424 0-.0858-.011-.1233-.032-.076-.045-.1234-.127-.1234-.216v-4.451c0-.0884.0464-.1708.1224-.2155l11.0242-6.43c.076-.0427.17-.0447.247 0 .076.0447.124.1261.124.2156v4.4499c0 .0884-.047.1709-.123.2146l-11.0245 6.4314c-.0385.021-.0809.033-.1234.033zm-3.7387-2.425v4.04l1.6789-.976v-4.04l-1.6789.976zm-.2467 4.718c-.0425 0-.0859-.011-.1234-.033-.077-.045-.1234-.128-.1234-.215v-4.614c0-.088.0464-.171.1234-.215l2.1724-1.2622c.076-.0447.1707-.0447.2467 0 .076.0447.1234.1271.1234.2146v4.6136c0 .089-.0474.171-.1234.216l-2.1724 1.262c-.0385.022-.0809.033-.1233.033zm-1.4085 2.041l1.2723.664 21.5245-12.5096v-7.7831l-1.272-.6637-3.229 1.8887c-.076.0447-.17.0457-.247.001-.077-.0447-.124-.1262-.124-.2156V85.934l-1.26.7242v3.8449c0 .0884-.047.1709-.124.2146l-10.7659 6.2651c-.076.0447-.1707.0447-.2467 0-.076-.0448-.1234-.1272-.1234-.2156v-3.5608l-1.5772.9101v3.8468c0 .0875-.0474.1699-.1234.2146l-3.7042 2.1531v7.783zm1.2792 1.195c-.0395 0-.078-.009-.1145-.028l-1.5249-.795c-.081-.043-.1333-.128-.1333-.22v-8.078c0-.089.0474-.171.1234-.2158l3.7042-2.1529v-3.8459c0-.0894.0474-.1709.1234-.2156l2.0707-1.1952c.077-.0447.1707-.0427.2467 0 .077.0447.1234.1272.1234.2156v3.5588l10.2725-5.978v-3.8458c0-.0894.047-.1719.124-.2156l1.754-1.0064c.078-.0457.172-.0428.247.001.076.0427.122.1261.122.2136v3.5577l2.976-1.7396c.072-.0427.163-.0437.237-.005l1.526.7948c.081.0427.133.1272.133.2206v8.0782c0 .0884-.047.1709-.123.2156L88.5167 109.276c-.0385.023-.0809.033-.1233.033"/>
  <path fill="#056575" d="M109.266 95.451l-2.936 1.7068v-5.1195l2.936-1.7069v5.1196zM90.0475 101.5l2.1723-1.262v5.119l-2.1723 1.263v-5.12zm15.0095-8.7225v5.1195l-11.564 6.721v-5.1195l11.564-6.721zm1.273-2.2185v-3.99l-1.273.7392v3.9899l-11.564 6.7211v-3.9899l-1.2732.7391v3.99l-3.8266 2.2246v8.078l21.7638-12.6483v-8.0782l-3.827 2.2245z"/>
  <path fill="#000" d="M106.577 92.1819v4.5453l2.443-1.4197v-4.5463l-2.443 1.4207zm-.247 5.2239c-.042 0-.086-.011-.123-.0328-.076-.0447-.124-.1272-.124-.2156v-5.1196c0-.0874.048-.1698.124-.2146l2.936-1.7068c.076-.0447.171-.0447.247 0 .076.0447.123.1272.123.2156v5.1185c0 .0885-.047.1709-.123.2156l-2.937 1.7069c-.038.0218-.08.0328-.123.0328zm-12.59 2.2363v4.5449l11.07-6.4345v-4.5453l-11.07 6.4349zm-.2467 5.2239c-.0425 0-.0849-.011-.1234-.034-.076-.043-.1234-.127-.1234-.214v-5.1199c0-.0884.0474-.1709.1234-.2146l11.5641-6.7211c.076-.0447.17-.0447.246 0 .077.0447.124.1272.124.2156v5.1185c0 .0885-.047.1709-.124.2156l-11.5634 6.7199c-.0384.023-.0809.034-.1233.034zm-3.1989-3.222v4.546l1.6799-.976v-4.547l-1.6799.977zm-.2467 5.224c-.0425 0-.0859-.011-.1234-.033-.076-.045-.1234-.127-.1234-.215v-5.119c0-.088.0474-.171.1234-.216l2.1734-1.262c.076-.0451.1697-.0451.2467 0 .076.044.1234.127.1234.214v5.121c0 .088-.0474.171-.1234.215l-2.1733 1.262c-.0385.022-.081.033-.1234.033zm-1.4075-5.742v7.505l21.2708-12.3628v-7.504l-3.458 2.0099c-.076.0447-.17.0447-.246 0-.076-.0447-.124-.1272-.124-.2156v-3.5597l-.779.453v3.8459c0 .0884-.047.1709-.124.2156l-11.5634 6.721c-.076.0447-.1707.0447-.2467 0-.076-.0447-.1234-.1271-.1234-.2155V94.459l-.7787.4531v3.8458c0 .0884-.0474.1709-.1234.2156l-3.7042 2.1525zm-.2467 8.183c-.0425 0-.0859-.01-.1234-.033-.077-.045-.1234-.127-.1234-.215v-8.079c0-.087.0464-.17.1234-.214l3.7042-2.1531V94.769c0-.0884.0464-.1709.1234-.2156l1.2722-.7392c.076-.0447.1707-.0447.2467 0 .076.0437.1234.1272.1234.2146v3.5598l11.07-6.434v-3.8459c0-.0884.048-.1708.124-.2155l1.273-.7392c.076-.0447.17-.0447.246 0 .076.0447.124.1272.124.2156v3.5597l3.457-2.0108c.076-.0448.171-.0448.247 0 .076.0447.123.1271.123.2155v8.0782c0 .0885-.047.1709-.123.2156L88.5169 109.276c-.0385.023-.081.033-.1234.033"/>
  <path fill="#379BA7" d="M78.7231 108.435l-8.6915 14.638s-2.7497-1.621-3.8305-2.225c-1.1084-.62-1.7963-1.981-1.7963-3.929 0-3.847 2.6826-8.526 5.992-10.449 1.7805-1.034 3.3795-1.061 4.477-.267l3.8493 2.232z"/>
  <path fill="#000" d="M73.0697 105.9c-.7817 0-1.6512.265-2.5494.786-3.2363 1.881-5.8696 6.471-5.8696 10.233 0 1.792.5931 3.111 1.6709 3.712.8952.501 2.958 1.712 3.6233 2.103l8.4378-14.209-3.6322-2.105c-.4796-.348-1.0511-.52-1.6808-.52zm-3.038 17.421c-.0424 0-.0858-.01-.1253-.034-.0267-.017-2.7587-1.626-3.8256-2.221-1.2396-.695-1.9236-2.167-1.9236-4.147 0-3.92 2.7438-8.703 6.1163-10.664 1.7964-1.044 3.5246-1.136 4.7445-.253l3.8286 2.218c.0572.033.0987.088.1154.152.0168.065.0069.133-.0276.19L70.243 123.2c-.0455.077-.1274.121-.2113.121"/>
  <path fill="#000" d="M77.8393 113.612c0 2.29-1.597 5.076-3.568 6.221-1.97 1.145-3.568.217-3.568-2.074 0-2.29 1.598-5.075 3.568-6.22 1.971-1.146 3.568-.217 3.568 2.073z"/>
  <path fill="#000" d="M75.8643 111.295c-.4451 0-.9456.154-1.4696.459-1.899 1.103-3.4447 3.796-3.4447 6.005 0 1.015.3277 1.764.9219 2.11.5952.347 1.4025.258 2.276-.251 1.9-1.104 3.4446-3.798 3.4446-6.006 0-1.014-.3277-1.764-.9218-2.11-.2369-.138-.5093-.207-.8064-.207zm-3.187 9.279c-.382 0-.7373-.092-1.0522-.275-.753-.438-1.1686-1.34-1.1686-2.54 0-2.367 1.6562-5.253 3.6914-6.436 1.0334-.599 2.0184-.689 2.7695-.251.7541.438 1.1686 1.34 1.1686 2.54 0 2.366-1.6562 5.253-3.6913 6.437-.6011.348-1.1844.525-1.7174.525z"/>
  <path fill="#DDECF0" d="M76.9382 112.852c0 2.29-1.597 5.075-3.568 6.22-1.9701 1.145-3.568.218-3.568-2.074 0-2.29 1.5979-5.074 3.568-6.22 1.971-1.145 3.568-.216 3.568 2.074z"/>
  <path fill="#000" d="M74.9627 110.534c-.4451 0-.9455.154-1.4686.459-1.9 1.104-3.4456 3.799-3.4456 6.006 0 1.015.3277 1.764.9218 2.109.5952.347 1.4026.258 2.277-.251 1.899-1.103 3.4436-3.797 3.4436-6.006 0-1.014-.3267-1.763-.9208-2.109-.2379-.139-.5103-.208-.8074-.208zm-3.186 9.279c-.3829 0-.7383-.092-1.0531-.273-.7531-.44-1.1686-1.341-1.1686-2.541 0-2.365 1.6562-5.253 3.6923-6.437 1.0334-.599 2.0164-.686 2.7695-.251.7531.439 1.1676 1.34 1.1676 2.54 0 2.367-1.6552 5.254-3.6903 6.437-.6011.349-1.1854.525-1.7174.525"/>
  <path fill="#000" d="M74.2715 119.833c-1.97 1.145-3.568.216-3.568-2.074s1.598-5.075 3.568-6.22c1.9701-1.145 3.568-.218 3.568 2.073s-1.5979 5.075-3.568 6.221zm0-11.114c-3.3094 1.925-5.993 6.602-5.993 10.449 0 3.848 2.6836 5.407 5.993 3.483 3.3094-1.923 5.993-6.601 5.993-10.448 0-3.847-2.6836-5.407-5.993-3.484z"/>
  <path fill="#000" d="M75.8644 111.295c-.4451 0-.9455.154-1.4696.459-1.899 1.103-3.4446 3.797-3.4446 6.005 0 1.016.3277 1.765.9219 2.11.5951.347 1.4025.258 2.276-.251 1.8999-1.104 3.4445-3.798 3.4445-6.006 0-1.014-.3276-1.764-.9218-2.11-.2369-.138-.5093-.207-.8064-.207zm-3.187 9.279c-.3819 0-.7372-.092-1.0521-.274-.7531-.439-1.1686-1.341-1.1686-2.541 0-2.366 1.6562-5.252 3.6914-6.436 1.0333-.599 2.0183-.689 2.7694-.251.7541.438 1.1686 1.34 1.1686 2.54 0 2.366-1.6561 5.253-3.6913 6.437-.6011.349-1.1844.525-1.7174.525zm4.2707-12.432c-.7777 0-1.6472.267-2.5533.794-3.2363 1.881-5.8696 6.471-5.8696 10.233 0 1.767.5793 3.078 1.6315 3.69 1.0521.611 2.4694.462 3.9914-.422 3.2363-1.882 5.8696-6.473 5.8696-10.235 0-1.767-.5794-3.078-1.6315-3.689-.4254-.248-.911-.371-1.4381-.371zm-5.3534 15.585c-.6129 0-1.1814-.146-1.6848-.438-1.211-.704-1.8782-2.167-1.8782-4.12 0-3.92 2.7438-8.704 6.1164-10.664 1.6798-.977 3.2728-1.127 4.4848-.423 1.2111.705 1.8783 2.167 1.8783 4.12 0 3.92-2.7439 8.705-6.1164 10.665-.983.571-1.9355.859-2.8001.86"/>
  <path fill="#000" d="M74.5132 114.261c0 .733-.5112 1.626-1.1429 1.993-.6307.367-1.1429.07-1.1429-.665 0-.733.5122-1.625 1.1429-1.993.6317-.366 1.1429-.068 1.1429.665zm-27.3078 9.846s2.6097 1.121 2.6097 7.89c0 0 14.7644-8.581 15.4641-8.987.7008-.408 1.3364-1.258 1.3364-2.516v-5.696s-.0631-1.516-1.2722-.813c-1.2091.702-16.2923 9.69-16.2923 9.69s-1.2939-.875-1.8457.432z"/>
  <path fill="#000" d="M47.5306 124.011c.6484.439 2.4369 2.142 2.5277 7.557l15.097-8.774c.761-.441 1.214-1.302 1.214-2.3v-5.695c-.0069-.137-.078-.589-.308-.715-.1658-.093-.4145.011-.5951.116-1.1943.694-16.1383 9.599-16.2893 9.688-.081.05-.1836.045-.2626-.006-.0049-.003-.526-.352-.9702-.215-.1668.05-.303.163-.4135.344zm2.2839 8.234c-.0425 0-.0849-.011-.1234-.033-.076-.045-.1234-.127-.1234-.216 0-6.476-2.4369-7.651-2.4615-7.661-.1224-.056-.1806-.201-.1274-.325.1826-.434.461-.711.8262-.82.4964-.147 1.0057.07 1.2455.197 1.4529-.866 15.0309-8.956 16.1689-9.618.4215-.244.7837-.284 1.0808-.122.5122.284.5586 1.055.5626 1.141v5.706c0 1.177-.5458 2.198-1.4608 2.731l-15.4642 8.987c-.0384.022-.0809.033-.1233.033z"/>
  <path fill="#ED8063" d="M47.2055 124.107l-3.2492-1.86 3.0715-1.786v-7.193l7.6235 4.429 9.1031-5.29s2.8326 1.699 2.4408 1.466c-.1885-.111-.4599-.116-.8518.112-1.209.702-16.2922 9.69-16.2922 9.69s-1.294-.875-1.8457.432z"/>
  <path fill="#000" d="M44.4522 122.245l2.6511 1.517c.1757-.293.4116-.485.7018-.572.4964-.146 1.0067.069 1.2455.197 1.4529-.866 15.0309-8.955 16.1699-9.618.0582-.033.1155-.064.1717-.09-.5773-.347-1.3432-.807-1.6393-.984l-8.9787 5.218c-.076.045-.1698.045-.2467 0l-7.2525-4.215v6.764c0 .088-.0473.171-.1233.215l-2.6995 1.568zm2.7538 2.11c-.0425 0-.0849-.011-.1224-.032l-3.2492-1.859c-.078-.045-.1244-.127-.1254-.216 0-.089.0464-.172.1234-.217l2.9491-1.712v-7.05c0-.089.0474-.171.1234-.216.076-.045.1708-.045.2468 0l7.4991 4.358 8.9807-5.219c.0769-.046.1727-.045.2497.002 1.2554.753 1.9246 1.154 2.2691 1.391.0592.017.1154.042.1697.074l-.0138.038c.226.175.1954.228.1382.326-.0642.106-.228.131-.3445.08l-.001.002c-.0019-.002-.0059-.004-.0118-.008-.0059-.003-.0119-.006-.0178-.009-.1668-.102-.4194.005-.602.112-1.1953.695-16.1393 9.599-16.2903 9.688-.0819.049-.1836.044-.2626-.007-.0049-.002-.526-.351-.9702-.213-.2201.065-.3869.241-.5112.536-.0277.065-.082.115-.1481.138-.0256.009-.0533.013-.0789.013z"/>
  <path fill="#DDECF0" d="M47.2055 124.107l-3.2492-1.86 3.0715-1.786v-7.193l7.6235 4.429 9.1031-5.29s2.8326 1.699 2.4408 1.466c-.1885-.111-.4599-.116-.8518.112-1.209.702-16.2922 9.69-16.2922 9.69s-1.294-.875-1.8457.432z"/>
  <path fill="#000" d="M47.2052 124.107s2.6096 1.121 2.6096 7.89l-11.3573-6.555 5.4985-3.195 3.2492 1.86z"/>
  <path fill="#000" d="M38.9527 125.441l10.6111 6.125c-.1046-6.099-2.4329-7.221-2.4576-7.23-.0069-.004-.0158-.008-.0227-.012l-3.1268-1.791-5.004 2.908zm10.8618 6.805c-.0424 0-.0849-.011-.1234-.034l-11.3563-6.554c-.077-.044-.1234-.126-.1234-.216 0-.088.0464-.171.1234-.215l5.4975-3.195c.0751-.045.1698-.044.2448-.001l3.2403 1.855c.2428.114 2.7439 1.448 2.7439 8.111 0 .088-.0474.17-.1234.215-.0385.023-.081.034-.1234.034"/>
  <path fill="#379BA7" d="M46.211 127.297l-8.6914 14.638s-2.7498-1.621-3.8305-2.225c-1.1094-.62-1.7963-1.981-1.7963-3.929 0-3.847 2.6826-8.525 5.992-10.449 1.7805-1.034 3.3794-1.061 4.477-.267l3.8492 2.232z"/>
  <path fill="#000" d="M40.5578 124.762c-.7817 0-1.6512.264-2.5494.786-3.2364 1.882-5.8687 6.472-5.8687 10.233 0 1.792.5922 3.111 1.67 3.712.8952.501 2.958 1.712 3.6243 2.103l8.4368-14.209-3.6322-2.105c-.4796-.348-1.0511-.52-1.6808-.52zm-3.038 17.421c-.0424 0-.0858-.011-.1253-.034-.0267-.017-2.7587-1.626-3.8256-2.221-1.2397-.695-1.9227-2.167-1.9227-4.147 0-3.919 2.7439-8.703 6.1154-10.664 1.7974-1.045 3.5256-1.136 4.7445-.253l3.8286 2.218c.0572.033.0987.088.1154.152.0168.065.007.133-.0276.191l-8.6915 14.637c-.0454.077-.1273.121-.2112.121"/>
  <path fill="#000" d="M45.3278 132.474c0 2.29-1.5969 5.076-3.5679 6.221-1.9701 1.145-3.568.217-3.568-2.074 0-2.29 1.5979-5.075 3.568-6.22 1.971-1.146 3.5679-.217 3.5679 2.073z"/>
  <path fill="#000" d="M43.3524 130.157c-.4451 0-.9455.154-1.4696.459-1.899 1.103-3.4446 3.796-3.4446 6.005 0 1.015.3277 1.764.9218 2.11.5942.347 1.4026.257 2.2761-.251 1.8999-1.104 3.4455-3.798 3.4455-6.006 0-1.014-.3276-1.763-.9218-2.109-.2379-.139-.5103-.208-.8074-.208zm-3.187 9.279c-.3819 0-.7363-.092-1.0521-.275-.7531-.438-1.1686-1.34-1.1686-2.54 0-2.367 1.6562-5.253 3.6914-6.436 1.0333-.6 2.0174-.689 2.7704-.251.7531.438 1.1686 1.34 1.1686 2.54 0 2.366-1.6561 5.253-3.6923 6.437-.6011.348-1.1844.525-1.7174.525z"/>
  <path fill="#DDECF0" d="M44.4264 131.714c0 2.29-1.5969 5.076-3.568 6.221-1.97 1.145-3.5679.216-3.5679-2.074s1.5979-5.075 3.5679-6.22c1.9711-1.146 3.568-.217 3.568 2.073z"/>
  <path fill="#000" d="M42.4507 129.397c-.4451 0-.9455.154-1.4686.459-1.9 1.103-3.4446 3.798-3.4446 6.005 0 1.015.3277 1.764.9219 2.11.5951.346 1.4025.256 2.276-.252 1.8989-1.103 3.4445-3.797 3.4445-6.006 0-1.014-.3276-1.763-.9218-2.109-.2379-.139-.5103-.207-.8074-.207zm-3.186 9.278c-.3819 0-.7372-.091-1.0521-.274-.7541-.438-1.1686-1.34-1.1686-2.54 0-2.365 1.6562-5.252 3.6914-6.437 1.0323-.6 2.0164-.687 2.7694-.251.7531.439 1.1686 1.34 1.1686 2.54 0 2.367-1.6561 5.254-3.6913 6.437-.6011.348-1.1854.525-1.7174.525"/>
  <path fill="#000" d="M41.7598 138.695c-1.97 1.145-3.568.216-3.568-2.074s1.598-5.075 3.568-6.22c1.971-1.146 3.568-.218 3.568 2.073 0 2.29-1.597 5.075-3.568 6.221zm0-11.114c-3.3094 1.925-5.993 6.602-5.993 10.449 0 3.848 2.6836 5.407 5.993 3.483 3.3104-1.923 5.993-6.601 5.993-10.448 0-3.847-2.6826-5.407-5.993-3.484z"/>
  <path fill="#000" d="M43.3524 130.157c-.4452 0-.9456.154-1.4697.459-1.8989 1.103-3.4446 3.798-3.4446 6.005 0 1.015.3277 1.765.9229 2.11.5951.347 1.4015.258 2.275-.251 1.8999-1.104 3.4456-3.798 3.4456-6.006 0-1.014-.3277-1.763-.9219-2.109-.2378-.139-.5103-.208-.8073-.208zm-3.187 9.279c-.382 0-.7363-.092-1.0512-.274-.754-.439-1.1696-1.341-1.1696-2.541 0-2.365 1.6562-5.253 3.6914-6.436 1.0334-.6 2.0174-.689 2.7705-.251.753.438 1.1686 1.34 1.1686 2.54 0 2.366-1.6562 5.253-3.6924 6.437-.601.349-1.1844.525-1.7173.525zm4.2707-12.432c-.7778 0-1.6473.267-2.5534.794-3.2363 1.88-5.8696 6.47-5.8696 10.233 0 1.767.5794 3.078 1.6325 3.69 1.0511.611 2.4684.462 3.9904-.422 3.2373-1.882 5.8706-6.473 5.8706-10.235 0-1.767-.5803-3.078-1.6325-3.689-.4254-.248-.911-.371-1.438-.371zm-5.3535 15.585c-.6129 0-1.1814-.146-1.6838-.438-1.212-.704-1.8792-2.167-1.8792-4.12 0-3.92 2.7438-8.704 6.1164-10.664 1.6798-.977 3.2728-1.127 4.4849-.423 1.212.705 1.8792 2.167 1.8792 4.12 0 3.92-2.7448 8.705-6.1174 10.665-.983.571-1.9355.86-2.8001.86"/>
  <path fill="#000" d="M42.0015 133.124c0 .733-.5113 1.625-1.143 1.993-.6307.366-1.1429.069-1.1429-.665 0-.733.5122-1.626 1.1429-1.993.6317-.367 1.143-.069 1.143.665z"/>
  <path fill="#379BA7" d="M28.2132 102.873l26.4386 15.361V81.9725L28.2132 66.6119v36.2611z"/>
  <path fill="#000" d="M28.4599 102.729l25.945 15.075V82.116l-25.945-15.0755v35.6885zm26.1918 15.753c-.0425 0-.0859-.011-.1234-.033l-26.4386-15.361c-.076-.045-.1233-.127-.1233-.215V66.6113c0-.0884.0473-.1709.1233-.2156.076-.0447.1708-.0447.2468 0L54.775 81.7573c.076.0447.1234.1272.1234.2156v36.2611c0 .087-.0474.17-.1234.215-.0385.022-.0809.033-.1233.033"/>
  <path fill="#DDECF0" d="M28.2132 102.873l26.4386 15.361V96.3714L28.2132 81.0108v21.8622zM142.32.249245L168.789 15.6248 54.682 81.9722 28.2128 66.5966 142.32.249245z"/>
  <path fill="#000" d="M28.7066 66.5963l25.9757 15.0894L168.296 15.6244 142.32.536051 28.7066 66.5963zm25.9757 15.6249c-.0425 0-.0849-.0109-.1234-.0338L28.0897 66.8119c-.076-.0447-.1233-.1262-.1233-.2156 0-.0884.0464-.1709.1233-.2156L142.197.0333322c.076-.0447078.171-.0447078.247 0L168.913 15.4098c.076.0438.123.1252.123.2146 0 .0885-.047.1709-.123.2156L54.8056 82.1874c-.0375.0229-.0809.0338-.1233.0338z"/>
  <path fill="#7BC43B" d="M168.79 51.3648L54.6519 117.697V81.9718L168.79 15.6244v35.7404z"/>
  <path fill="#056575" d="M30.736 96.4213c-.0118.007-.0237.0189-.0345.0259-3.2314 1.9989-6.0118 20.3718-6.0118 25.5308v19.825l6.301-3.662s1.3363-.703 1.591-2.182c.2546-1.479 1.2949-7.854 5.4097-10.245 2.8633-1.664 9.0369-5.252 9.0369-5.252V86.9532s-14.8917 8.6544-16.2923 9.4681z"/>
  <path fill="#000" d="M30.87 96.6296c-.0139.011-.0356.0269-.0444.0318-3.1022 1.9195-5.8884 20.3166-5.8884 25.3176v19.393l5.9298-3.447c.0217-.01 1.2416-.673 1.4716-2.009l.0109-.064c1.1251-6.561 3.6212-9.251 5.5182-10.353l8.9136-5.18V87.3821c-2.3007 1.3372-14.5848 8.4786-15.9113 9.2475zm-6.1796 45.4214c-.0424 0-.0859-.011-.1234-.033-.076-.045-.1233-.127-.1233-.216v-19.823c0-5.378 2.7576-23.6584 6.1282-25.7428.001 0 .0405-.0308.0405-.0308 1.4005-.8127 16.2922-9.4681 16.2922-9.4681.076-.0447.1708-.0447.2468 0 .076.0447.1233.1272.1233.2156v33.5091c0 .088-.0473.171-.1233.215l-9.0369 5.252c-1.8052 1.049-4.1858 3.636-5.2784 10.007l-.0109.065c-.2724 1.583-1.6621 2.329-1.7203 2.36l-6.2911 3.657c-.0385.022-.0809.033-.1234.033"/>
  <path fill="#DDECF0" d="M30.7011 96.4469c.0118-.0069.0227-.0189.0346-.0258 1.4005-.8137 16.2922-9.4681 16.2922-9.4681L24.5512 73.937S9.65943 82.5925 8.25987 83.4062c-3.24621 1.8856-6.04631 20.3788-6.04631 25.5568v19.824l5.9713 3.458.42737-.968 9.63697 5.581.4294 1.463 6.0117 3.481v-19.824c0-5.159 2.7804-23.5331 6.0108-25.5311z"/>
  <path fill="#000" d="M18.8877 138.156l5.5558 3.216v-19.393c0-5.374 2.7537-23.6308 6.1213-25.7391.0138-.0099.0375-.0288.0464-.0337 1.2703-.7372 13.6146-7.9123 15.9231-9.2536L24.5511 74.2238 8.38317 83.6214C5.25934 85.4366 2.46023 103.91 2.46023 108.963v19.681l5.61105 3.248.31584-.714c.02862-.065.08192-.115.14903-.136.0681-.023.13917-.013.19937.02l9.63598 5.581c.0553.032.0958.083.1135.144l.4027 1.369zm5.8025 3.895c-.0424 0-.0848-.011-.1233-.033l-6.0108-3.481c-.0553-.031-.0957-.083-.1135-.145l-.4027-1.369-9.31326-5.392-.31584.715c-.02862.065-.0829.114-.14903.135-.06613.024-.14016.015-.19938-.02l-5.97129-3.458c-.07699-.045-.12436-.126-.12436-.216v-19.824c0-5.274 2.84549-23.8404 6.16968-25.7718l16.29128-9.4681c.077-.0447.1708-.0447.2468 0L47.1512 86.737c.076.0448.1234.1262.1234.2156 0 .0885-.0464.1709-.1234.2156 0 0-14.8917 8.6555-16.2923 9.4682l-.1579-.1888.1293.2116c-3.107 1.9214-5.8933 20.3188-5.8933 25.3198v19.823c0 .089-.0464.171-.1234.216-.0385.022-.0809.033-.1234.033z"/>
  <path fill="#DDECF0" d="M43.9658 80.2423l-16.3021-9.4254-4.099 2.3824 16.3012 9.4255 4.0999-2.3825z"/>
  <path fill="#000" d="M24.0587 73.1985l15.8077 9.1393 3.6045-2.0943-15.8067-9.1403-3.6055 2.0953zm15.8077 9.6738c-.0425 0-.0849-.0099-.1224-.0328l-16.3031-9.4244c-.076-.0447-.1234-.1262-.1234-.2156 0-.0884.0464-.1709.1234-.2156l4.0999-2.3824c.076-.0447.1698-.0447.2458 0l16.3021 9.4254c.077.0447.1234.1262.1234.2156 0 .0884-.0464.1709-.1234.2156l-4.0989 2.3814c-.0385.0229-.081.0328-.1234.0328"/>
  <path fill="#DDECF0" d="M23.5644 73.1996c-2.1793 1.2667-7.1863 9.1074-7.1863 9.1074l6.3335 3.6621c.385-.3358.8972-.5544 1.5526-.5544 1.7321 0 2.5119 1.4724 2.3569 2.8146l6.0592 3.5031s5.006-7.8407 7.1862-9.1074l-16.3021-9.4254z"/>
  <path fill="#000" d="M39.9894 82.409l-16.3021-9.4244c-.076-.0447-.1698-.0447-.2468 0-2.2059 1.2826-7.0639 8.8661-7.2701 9.189-.0366.0566-.0484.1271-.0316.1927.0158.0656.0582.1222.1164.156l3.645 2.0973s.3237-.2007.4718-.3001l-3.645-2.0963c.8113-1.2488 4.8876-7.4433 6.8418-8.7349l15.8314 9.1532c-2.1388 1.6313-6.0295 7.5666-6.7994 8.7578l-3.6548-2.1122-.2053.454 3.8167 2.2066c.0385.0218.0809.0328.1233.0328.081 0 .1599-.0408.2073-.1143.0494-.0785 4.9981-7.804 7.1024-9.026.076-.0447.1234-.1272.1234-.2156 0-.0894-.0474-.1709-.1244-.2156z"/>
  <path fill="#fff" d="M22.2943 81.1601c-1.133 1.4624-2.271 3.2438-2.271 3.2438l2.7764 1.6055c.4569-.2375.9396-.3756 1.5259-.4084 1.3808-.0774 2.4102 1.2002 2.4674 2.4838.004.0785-.0079.151-.0118.2265l2.2474 1.2995s1.1281-1.7664 2.2572-3.2259l-8.9915-5.2248z"/>
  <path fill="#000" d="M31.4091 86.1696l-8.9915-5.2248c-.1056-.0616-.2428-.0368-.3178.0636-1.1271 1.4535-2.273 3.2428-2.2849 3.2616-.0355.0567-.0483.1262-.0315.1928.0158.0665.0582.1222.1164.156l.4728-.2991c.3227-.4938 1.1469-1.7366 1.9848-2.8364l8.5602 4.9744c-.8429 1.1128-1.6601 2.3487-1.968 2.8206l-.2646.4322c.0385.0218.3109.1778.3109.1778s.1935-.0695.2409-.1431c.0108-.0178 1.134-1.7744 2.2434-3.208.0444-.0566.0612-.1291.0484-.1997-.0148-.0705-.0583-.1321-.1195-.1679z"/>
  <path fill="#808184" d="M22.2943 81.1596c-1.134 1.4624-2.271 3.2437-2.271 3.2437l7.8377-.0059-5.5667-3.2378z"/>
  <path fill="#DDECF0" d="M44.8994 83.1513c0-1.8738-.9337-2.909-.9337-2.909s-1.9197 1.1157-4.0989 2.3814c-2.1803 1.2677-7.1863 9.1085-7.1863 9.1085l11.2852-6.5592v-1.366l.9337-.6557z"/>
  <path fill="#000" d="M43.9019 80.5667l-3.9115 2.2731c-1.6779.9747-5.162 6.0823-6.5319 8.1537l10.2608-5.964v-1.222c0-.0815.0394-.157.1056-.2037l.8261-.5802c-.0306-1.2756-.5182-2.1241-.7491-2.4569zM32.6807 91.9801c-.0661 0-.1302-.0258-.1786-.0765-.079-.0835-.0908-.2096-.0296-.305.2063-.3239 5.0642-7.9073 7.2712-9.19l4.0989-2.3814c.0987-.0586.2271-.0387.306.0487.0415.0447.9979 1.1286.9979 3.0759 0 .0815-.0395.157-.1056.2037l-.8281.5822v1.2359c0 .0884-.0474.1709-.1234.2156l-11.2853 6.5581c-.0385.0229-.0809.0328-.1234.0328"/>
  <path fill="#fff" d="M24.2431 82.2934l-4.2194 2.1102c.9662-1.532 2.2711-3.2438 2.2711-3.2438l1.9483 1.1336z"/>
  <path fill="#000" d="M22.3594 81.4849c-.2813.3746-.9702 1.3075-1.6285 2.2881l2.9906-1.4963-1.3621-.7918zm-2.3362 3.1673c-.0681 0-.1352-.0288-.1836-.0824-.074-.0835-.0839-.2057-.0246-.2991.9613-1.524 2.271-3.2448 2.2839-3.2617.076-.0993.2131-.1252.3188-.0646l1.9483 1.1336c.0789.0467.1263.1322.1233.2226-.0029.0914-.0552.1738-.1362.2146l-4.2203 2.1102c-.0346.0179-.0731.0268-.1096.0268z"/>
  <path fill="#DDECF0" d="M30.7011 96.4469L8.25987 83.4061c-.40565.2355-.80538.7303-1.19228 1.4267v.001C4.35731 89.708 2.21356 104.432 2.21356 108.963v19.824l5.97426 3.46.42441-.97 9.63697 5.581.4323 1.465 6.0088 3.479v-19.824c0-5.159 2.7804-23.5331 6.0108-25.5311z"/>
  <path fill="#000" d="M18.8901 138.157l5.5528 3.215v-19.393c0-5.21 2.5889-22.531 5.8154-25.5016L8.26614 83.6979c-.31682.2295-.64648.6518-.98304 1.2568-2.73594 4.9198-4.82244 19.5623-4.82244 24.0083v19.681l5.61203 3.249.31387-.714c.02862-.066.0829-.116.14903-.137.06712-.023.13917-.013.19938.02l9.63703 5.581c.0542.032.0947.083.1135.144l.4046 1.37zm5.7996 3.894c-.0425 0-.0849-.011-.1224-.033l-6.0088-3.48c-.0553-.031-.0957-.083-.1135-.145l-.4047-1.37-9.31323-5.391-.31386.714c-.02764.066-.08192.115-.14904.136-.06613.023-.13917.015-.19937-.02l-5.97426-3.459c-.07699-.045-.12338-.126-.12338-.216v-19.824c0-4.484 2.11414-19.2663 4.88463-24.2507.42835-.77.84881-1.2677 1.28407-1.5211.076-.0447.17075-.0447.24675 0L30.8248 96.232c.075.0437.1214.1242.1234.2116.001.0884-.0434.1699-.1175.2146-3.108 1.9224-5.8943 20.3198-5.8943 25.3208v19.823c0 .089-.0464.171-.1233.216-.0375.022-.08.033-.1234.033z"/>
  <path fill="#000" d="M6.93495 91.9836s-2.4507 9.3424-2.4507 13.8584l.43823.367.01283.01s1.9572 2.032 7.65909 5.353c5.7028 3.321 10.0456 4.956 10.0456 4.956l.5882.111s.8064-7.198 2.2701-13.126c.0523-.21.1026-.423.1559-.63L6.93495 91.9836z"/>
  <path fill="#000" d="M4.73154 105.726l.34841.292c.05132.048 2.04406 2.082 7.63835 5.339 5.6199 3.273 9.9656 4.923 10.0081 4.939l.2872.052c.1618-1.353.9514-7.654 2.2454-12.895l.1105-.448L7.09243 92.3628c-.41948 1.6512-2.32338 9.3622-2.36089 13.3632zm18.49626 11.163c-.0148 0-.0306-.001-.0454-.004l-.5873-.112c-.0849-.028-4.4691-1.693-10.1236-4.985-5.66727-3.301-7.63336-5.311-7.7143-5.396l-.43032-.358c-.05626-.047-.08982-.118-.08982-.191 0-4.496 2.35891-13.5398 2.45958-13.9223.01974-.0755.07205-.1361.14312-.1659.07205-.0298.15101-.0228.21812.0139L25.7781 102.668c.0958.057.1432.17.1145.279l-.1549.627c-1.443 5.845-2.2573 13.022-2.2642 13.095-.0079.068-.0434.13-.0987.172-.0434.032-.0947.048-.147.048zm1.475 15.294L2.2132 119.124v1.827l5.03957 2.927.00889 4.592 12.05704 6.991.3307-4.386 5.0534 2.935v-1.827z"/>
  <path fill="#000" d="M7.50777 128.327l11.59423 6.722.301-3.992c.0069-.086.0562-.161.1313-.201.075-.04.1658-.039.2388.004l4.6823 2.72v-1.253L2.46029 119.554v1.254l4.91621 2.855c.076.045.12337.126.12337.215l.0079 4.449zm11.81033 7.382c-.0424 0-.0849-.01-.1234-.033l-12.05607-6.991c-.07698-.044-.12337-.126-.12337-.214l-.00888-4.449-4.91621-2.855c-.076-.045-.12337-.128-.12337-.216v-1.827c0-.089.04737-.171.12337-.216.076-.043.17075-.043.24675 0l22.48858 13.06c.077.045.1234.127.1234.216v1.827c0 .088-.0464.17-.1234.214-.076.045-.1697.045-.2467 0l-4.7129-2.737-.301 3.991c-.007.085-.0563.161-.1313.201-.0365.02-.076.029-.1155.029"/>
  <path fill="#808184" d="M47.028 86.9528l-3.0626-1.7794-11.2853 6.5591h6.1095l8.2384-4.7797z"/>
  <path fill="#379BA7" d="M31.4253 99.5003c1.2041-.6995 10.8915-6.4866 10.8915-6.4866v24.8723s-2.9166 1.81-5.3791 3.242c-3.5394 2.056-5.3337 8.024-5.5529 9.297-.2181 1.273-1.3679 1.877-1.3679 1.877l-3.792 2.282v-13.1c0-4.454 2.4082-20.361 5.2004-21.9837"/>
  <path fill="#000" d="M31.549 99.7154c-2.5524 1.4826-5.0771 16.7856-5.0771 21.7676v12.663l3.4179-2.057c.0227-.012 1.0581-.575 1.2515-1.707.1955-1.129 1.9632-7.314 5.6723-9.47 2.1556-1.252 4.6872-2.813 5.2567-3.165V93.4503c-1.7914 1.069-9.4643 5.6511-10.5213 6.2651zm-5.5706 35.3066v-13.539c0-3.993 2.2651-20.421 5.3238-22.1988 1.1894-.6905 10.7918-6.426 10.8885-6.4836l.3731-.2236v25.448l-.1174.072c-.0297.018-2.9472 1.829-5.3861 3.246-3.4979 2.033-5.2547 8.093-5.4324 9.124-.2368 1.378-1.4449 2.028-1.4972 2.055l-4.1523 2.5z"/>
  <path fill="#000" d="M39.727 97.4726l-7.6255 4.5774c-.5241.305-1.2545 1.412-1.4005 1.923l-2.0007 8.144c0 .456.2379.707.5764.678.0405-.003.0879-.033.1303-.044.079-.022.155-.034.2408-.084l2.5652-1.49c.2714-.159.531-.445.7107-.787l1.1014-2.095c.1797-.342.4393-.629.7117-.787l4.9902-2.9c.0642-.038.1204-.099.1816-.148.4333-.354.7659-.971.7659-1.504v-4.933c0-.608-.4244-.8544-.9475-.5504z"/>
  <path fill="#000" d="M39.8516 97.687l-7.6245 4.577c-.4669.271-1.1637 1.336-1.289 1.778l-1.9987 8.134c.0069.113.0484.246.1244.315.0483.045.1075.062.1924.057.0119-.005.079-.035.0908-.038.0987-.025.1382-.035.1767-.058l2.5652-1.491c.2329-.134.458-.385.6169-.687l1.1014-2.096c.2014-.382.4945-.705.8054-.886l4.9913-2.9c.0197-.012.0503-.039.0799-.065l.0691-.061c.3908-.319.6751-.869.6751-1.309v-4.9332c0-.1987-.0573-.3457-.155-.4023-.0967-.0567-.2507-.0328-.4214.0655zm-10.627 15.359c-.1914 0-.3602-.064-.4954-.188-.1806-.168-.2764-.424-.2764-.74l2.0085-8.204c.159-.559.915-1.729 1.5161-2.079l7.6235-4.5762c.001-.001.001-.001.003-.002.3316-.1917.6573-.2155.9159-.0655.2586.15.4017.4461.4017.8325v4.9332c0 .587-.3524 1.283-.8577 1.696l-.0513.044c-.0454.041-.0968.088-.1609.125l-4.9922 2.901c-.2329.135-.457.386-.6169.688l-1.1005 2.095c-.2013.383-.4955.706-.8064.886l-2.5651 1.491c-.0987.057-.1876.079-.2586.097l-.0652.02c-.0365.016-.0858.037-.1461.043-.0256.002-.0513.003-.076.003m10.1682-3.225l-.6218.534v2.135l1.2436-.724v-2.478l-.6218.533z"/>
  <path fill="#000" d="M39.0174 110.47v1.59l.7511-.437v-1.797l-.7511.644zm-.2468 2.269c-.0424 0-.0859-.011-.1234-.033-.076-.044-.1233-.127-.1233-.215v-2.135c0-.073.0315-.142.0868-.19l1.2446-1.067c.0721-.062.1757-.078.2635-.036.0869.04.1432.128.1432.226v2.478c0 .089-.0474.171-.1234.215l-1.2446.724c-.0385.022-.0809.033-.1234.033z"/>
  <path fill="#909295" d="M24.9938 140.059l1.3196-.743v-.904l-1.3196.743v.904z"/>
  <path fill="#056575" d="M24.9939 137.507l-5.6752-3.295v1.648l5.6752 3.294 1.3196-.743v-1.647l-1.3196.743z"/>
  <path fill="#000" d="M19.5653 135.716l5.4305 3.153 1.0709-.604v-1.078l-.9525.536c-.076.043-.1688.043-.2438-.001l-5.3051-3.08v1.074zm5.4285 3.686c-.0424 0-.0859-.01-.1234-.032l-5.6752-3.296c-.076-.044-.1234-.127-.1234-.214v-1.649c0-.088.0474-.17.1234-.214.076-.045.1708-.045.2468 0l5.5538 3.225 1.1972-.675c.076-.044.1697-.043.2448.002.076.045.1223.126.1223.215v1.647c0 .09-.0483.173-.1263.217l-1.3196.743c-.0375.021-.079.031-.1204.031z"/>
  <path fill="#909295" d="M24.9939 140.059l-5.6752-3.295v-.905l5.6752 3.296v.904z"/>
  <path fill="#fff" d="M25.6824 133.459l-.9781.551-5.0544-2.935-.3316.196v2.941l5.6752 3.295 1.3196-.743v-2.941l-.6307-.364z"/>
  <path fill="#000" d="M19.5653 134.068l5.4305 3.154 1.0709-.604v-2.652l-.386-.222-.8557.482c-.077.043-.1688.044-.2448-.001l-4.93-2.863-.0849.051v2.655zm5.4285 3.687c-.0424 0-.0859-.011-.1234-.033l-5.6752-3.295c-.076-.045-.1234-.127-.1234-.215v-2.94c0-.089.0464-.17.1214-.215l.3307-.197c.078-.043.1717-.046.2487 0l4.933 2.864.8567-.481c.076-.043.1678-.044.2428.001l.6307.363c.077.044.1243.126.1243.216v2.941c0 .09-.0483.172-.1263.216l-1.3196.743c-.0375.021-.079.032-.1204.032z"/>
  <path fill="#909295" d="M7.26811 129.751l-5.05833-2.947v-.904l4.7188 2.748.33953-.177v1.28z"/>
  <path fill="#056575" d="M6.92172 127.011l-5.6752-3.294v1.647l5.6752 3.294v-1.647z"/>
  <path fill="#000" d="M1.4935 125.22l5.1817 3.008v-1.074l-5.1817-3.008v1.074zm5.42845 3.686c-.04244 0-.08488-.01-.12337-.032l-5.67521-3.296C1.04738 125.534 1 125.451 1 125.364v-1.649c0-.088.04738-.17.12337-.214.076-.045.17075-.045.24675 0l5.6752 3.294c.076.045.12338.127.12338.216v1.647c0 .089-.04738.171-.12338.216-.03849.022-.08093.032-.12337.032z"/>
  <path fill="#fff" d="M7.26809 128.471l-.0148-4.594-5.03958-2.925v-.719l-.96528.543-.00197-.001v2.941l5.6752 3.295v1.647l.34643-.187z"/>
  <path fill="#000" d="M1.4935 123.573l5.52221 3.207-.00888-2.758-4.9162-2.855c-.076-.044-.12338-.126-.12338-.215v-.296l-.47375.267v2.65zm5.42845 5.334c-.04343 0-.08784-.012-.12634-.035-.07501-.045-.12041-.126-.12041-.214v-1.504l-5.55183-3.223C1.04738 123.887 1 123.804 1 123.717v-2.941c0-.087.04441-.166.11745-.212.01086-.007.02369-.014.03553-.019l.93962-.528c.07797-.044.17075-.041.24576.002.076.045.12239.126.12239.214v.576l4.91522 2.854c.07698.045.12337.126.12337.215l.01579 4.593c0 .092-.05034.175-.13028.218l-.34644.188c-.03651.02-.07599.03-.11646.03z"/>
  <path fill="#056575" d="M54.6515 118.234L168.789 51.901V15.6241L54.6515 81.9715v36.2625z"/>
  <path fill="#000" d="M54.8979 82.1161v35.6879L168.543 51.7575V16.0548L54.8979 82.1161zm-.2468 36.3659c-.0424 0-.0849-.011-.1234-.033-.076-.045-.1233-.128-.1233-.215V81.972c0-.0874.0473-.1699.1233-.2146L168.666 15.409c.076-.0447.17-.0447.247 0 .076.0448.123.1272.123.2156v36.277c0 .0884-.047.1708-.123.2155L54.7745 118.449c-.0385.022-.081.033-.1234.033z"/>
  <path fill="#056575" d="M57.6122 83.6926L165.829 20.7877v29.3929L57.6122 113.071V83.6926z"/>
  <path fill="#000" d="M57.859 83.8361v28.8049l107.723-62.605V21.2174L57.859 83.8361zm-.2468 29.4829c-.0424 0-.0849-.01-.1233-.032-.076-.045-.1234-.127-.1234-.216V83.6921c0-.0875.0474-.1699.1234-.2146L165.706 20.5716c.076-.0447.169-.0447.246 0 .076.0447.124.1272.124.2156v29.3929c0 .0884-.048.1709-.124.2156L57.7356 113.287c-.0385.022-.0809.032-.1234.032"/>
  <path fill="#BBBDBF" d="M167.68 108.064l6.643 4.151-6.643-4.151zm-2.26 18.772l6.644 4.151-6.644-4.151zm3.822-2.076l-1.563-16.696 1.563 16.696zm0 0l-3.822 2.075 3.822-2.075zm-9.402 7.665l7.795-4.205-7.795 4.205zm2.214 1.384l7.795-4.206-7.795 4.206zm5.581-5.59l2.259-18.771-2.259 18.771z"/>
</svg>
