<svg width="88" height="88" viewBox="0 0 88 88" fill="none" xmlns="http://www.w3.org/2000/svg">
<path d="M44 88C68.2347 88 88 68.2339 88 44C88 19.7653 68.2347 0 44 0C19.7653 0 0 19.7661 0 44C0 68.2339 19.7661 88 44 88Z" fill="url(#paint0_linear)"/>
<path d="M29.4047 24.7999H58.2047C59.0884 24.7999 59.8048 25.5163 59.8048 26.4V65.5999C59.8048 66.4836 59.0884 67.2 58.2047 67.2H29.4047C28.521 67.2 27.8047 66.4836 27.8047 65.5999V26.4C27.8048 25.5163 28.5211 24.7999 29.4047 24.7999Z" fill="#99D2E0"/>
<path d="M29.4047 24.7999H55.8047C56.6884 24.7999 57.4048 25.5163 57.4048 26.4V65.5999C57.4048 66.4836 56.6884 67.2 55.8047 67.2H29.4047C28.521 67.2 27.8047 66.4836 27.8047 65.5999V26.4C27.8048 25.5163 28.5211 24.7999 29.4047 24.7999Z" fill="#DDECF0"/>
<path d="M56.6048 28.8001V59.2001H40.6048C40.6048 61.8511 38.4557 64.0001 35.8048 64.0001C33.1538 64.0001 31.0048 61.8511 31.0048 59.2001V28.8001C31.0061 28.3588 31.3634 28.0013 31.8047 28.0001H55.8047C56.2461 28.0013 56.6035 28.3587 56.6048 28.8001Z" fill="white"/>
<path d="M51.8047 24.8V27.9999C51.8034 28.4412 51.446 28.7987 51.0048 28.7999H36.6048C36.1635 28.7986 35.806 28.4412 35.8048 27.9999V24.8C35.8061 24.3587 36.1635 24.0012 36.6048 24H40.6048C40.6026 22.6969 41.395 21.5241 42.6048 21.04C42.9841 20.8785 43.3926 20.7968 43.8048 20.8C44.6535 20.7998 45.4676 21.1369 46.0678 21.737C46.668 22.3372 47.005 23.1513 47.0048 24.0001H51.0049C51.446 24.0012 51.8034 24.3587 51.8047 24.8Z" fill="#99D2E0"/>
<path d="M49.4048 24.8V27.9999C49.4034 28.4412 49.0461 28.7987 48.6048 28.7999H36.6048C36.1635 28.7986 35.806 28.4412 35.8048 27.9999V24.8C35.8061 24.3587 36.1635 24.0012 36.6048 24H40.6048C40.6026 22.6969 41.395 21.5242 42.6048 21.04C43.8146 21.5242 44.607 22.6969 44.6048 24H48.6048C49.046 24.0012 49.4034 24.3587 49.4048 24.8Z" fill="#DDECF0"/>
<path d="M66.2048 59.1999C66.2027 61.85 64.0549 63.9979 61.4048 63.9999H35.8047C36.3504 64.0013 36.8921 63.9065 37.4048 63.7198C39.3236 63.0463 40.6071 61.2335 40.6047 59.1998H66.2048V59.1999Z" fill="#23A2B5"/>
<path d="M63.8048 59.1999C63.8027 61.85 61.6549 63.9979 59.0048 63.9999H35.8047C36.3504 64.0013 36.8921 63.9065 37.4048 63.7198C39.3236 63.0463 40.6071 61.2335 40.6047 59.1998H63.8048V59.1999Z" fill="#99D2E0"/>
<path d="M35.0048 32.7999H41.4048C41.8467 32.7999 42.2048 33.1581 42.2048 33.5999V39.9999C42.2048 40.4418 41.8467 40.7999 41.4048 40.7999H35.0048C34.563 40.7999 34.2048 40.4417 34.2048 39.9999V33.5999C34.2047 33.1581 34.563 32.7999 35.0048 32.7999Z" fill="#DDECF0"/>
<path d="M35.0048 43.9999H41.4048C41.8467 43.9999 42.2048 44.3581 42.2048 44.7998V51.1999C42.2048 51.6417 41.8467 51.9998 41.4048 51.9998H35.0048C34.563 51.9998 34.2048 51.6417 34.2048 51.1999V44.7998C34.2047 44.358 34.563 43.9999 35.0048 43.9999Z" fill="#DDECF0"/>
<path d="M42.2047 56V59.2H40.6047C40.607 61.2336 39.3235 63.0464 37.4047 63.7199C35.486 63.0464 34.2024 61.2335 34.2048 59.2V56C34.2061 55.5588 34.5635 55.2013 35.0047 55.2001H41.4048C41.846 55.2013 42.2034 55.5588 42.2047 56Z" fill="#DDECF0"/>
<path d="M56.6048 28.8001V59.2001H54.2048V28.8001C54.2034 28.3588 53.8461 28.0013 53.4048 28.0001H55.8048C56.2461 28.0013 56.6034 28.3587 56.6048 28.8001Z" fill="#DDECF0"/>
<path d="M31.8047 24.8H29.4047C28.5222 24.8026 27.8073 25.5174 27.8047 26.4001V65.6C27.8073 66.4826 28.5222 67.1975 29.4047 67.2001H31.8047C30.9222 67.1975 30.2073 66.4826 30.2047 65.6V26.4001C30.2073 25.5174 30.9222 24.8026 31.8047 24.8Z" fill="white"/>
<path d="M39.0047 24H36.6047C36.1634 24.0013 35.806 24.3587 35.8047 24.8H38.2047C38.2061 24.3587 38.5634 24.0012 39.0047 24Z" fill="white"/>
<path d="M28.6047 26.4V36.8V65.6H27.0047V36.8V26.4H28.6047Z" fill="white"/>
<path d="M27.0047 65.6C27.0061 66.9249 28.0798 67.9986 29.4047 68H58.2047C59.5296 67.9986 60.6033 66.9249 60.6047 65.6V64.8H61.4047C64.496 64.7965 67.0011 62.2914 67.0046 59.2001C67.0047 58.9879 66.9204 58.7844 66.7704 58.6343C66.6204 58.4843 66.4168 58.4 66.2046 58.4H60.6046V26.4C60.6032 25.0752 59.5295 24.0014 58.2046 24H52.3822C52.0986 23.5067 51.5738 23.2019 51.0048 23.2001H47.7243C47.344 21.3376 45.7056 20 43.8047 20C41.9038 20 40.2655 21.3376 39.8852 23.2H36.6047C36.0357 23.2018 35.5108 23.5067 35.2273 23.9999H29.4047C28.0798 24.0013 27.0061 25.0751 27.0047 26.3999V29.6C27.0047 30.0418 27.3629 30.4 27.8047 30.4C28.2464 30.4 28.6046 30.0417 28.6046 29.6V26.4C28.6051 25.9584 28.9629 25.6004 29.4046 25.6001H35.0046V27.2H31.8047C30.9215 27.201 30.2057 27.9167 30.2047 28.8V59.2001C30.2082 62.2914 32.7133 64.7965 35.8046 64.8H59.0047V65.6C59.0042 66.0417 58.6464 66.3996 58.2047 66.4H29.4047C28.963 66.3995 28.6051 66.0417 28.6047 65.6V36C28.6047 35.5582 28.2465 35.2001 27.8048 35.2001C27.363 35.2001 27.0048 35.5582 27.0048 36V65.6H27.0047ZM61.4048 63.2H39.7163C40.595 62.3411 41.166 61.2163 41.3408 60H65.3242C64.9417 61.8611 63.3047 63.1975 61.4048 63.2ZM41.4047 58.4H40.6047C40.3926 58.3999 40.189 58.4842 40.0389 58.6343C39.8889 58.7843 39.8047 58.9878 39.8047 59.2001C39.8018 60.7834 38.8654 62.2162 37.4165 62.8545C35.9539 62.2286 35.0051 60.791 35.0047 59.2001V56H41.4047V58.4ZM59.0048 26.4V58.4H57.4047V28.8C57.4037 27.9168 56.688 27.201 55.8047 27.2H52.6047V25.6H58.2047C58.6464 25.6004 59.0043 25.9584 59.0048 26.4ZM40.6047 24.8C40.8169 24.8001 41.0204 24.7158 41.1705 24.5657C41.3205 24.4157 41.4048 24.2122 41.4048 23.9999C41.4048 22.6745 42.4794 21.5999 43.8048 21.5999C45.1302 21.5999 46.2048 22.6745 46.2048 23.9999C46.2047 24.2121 46.289 24.4156 46.4391 24.5657C46.5891 24.7157 46.7926 24.8 47.0049 24.8L51.0049 24.8023V28H36.6049V24.8H40.6047ZM31.8047 59.2V28.8H35.2273C35.5109 29.2933 36.0357 29.5981 36.6047 29.6H51.0047C51.5737 29.5981 52.0986 29.2933 52.3821 28.8H55.8047V58.4H43.0047V56C43.0037 55.1168 42.288 54.401 41.4047 54.4H35.0047C34.1215 54.401 33.4057 55.1167 33.4046 56V59.2C33.405 60.6661 33.9807 62.0735 35.008 63.1195C33.1457 62.7385 31.8074 61.101 31.8047 59.2Z" fill="#28B8CE"/>
<path d="M27.8048 33.6C28.1282 33.5987 28.4194 33.4035 28.5434 33.1048C28.6675 32.8061 28.6002 32.4621 28.3728 32.232L28.2529 32.1359C28.2083 32.1056 28.1598 32.0813 28.1087 32.0637C28.0633 32.0406 28.0147 32.0246 27.9645 32.016C27.9117 32.007 27.8583 32.0017 27.8048 32C27.593 32.0029 27.3901 32.0858 27.2367 32.232C27.0427 32.419 26.9575 32.6922 27.0109 32.9563C27.0643 33.2205 27.2489 33.4391 27.5005 33.536C27.5967 33.577 27.7001 33.5987 27.8048 33.6Z" fill="#28B8CE"/>
<path d="M35.0048 41.6H41.4048C42.288 41.5989 43.0038 40.8832 43.0048 39.9999V36.0429L45.8287 34.2781C46.0709 34.1267 46.214 33.8575 46.204 33.572C46.194 33.2864 46.0325 33.0279 45.7802 32.8939C45.5279 32.7598 45.2233 32.7704 44.981 32.9218L43.0048 34.1567V33.5999C43.0038 32.7167 42.2881 32.0009 41.4048 31.9999H35.0048C34.1215 32.0009 33.4058 32.7166 33.4047 33.5999V39.9999C33.4058 40.8832 34.1214 41.5989 35.0048 41.6ZM35.0048 33.6H41.4048L41.4051 35.1566L39.1204 36.5843L37.9703 35.4344C37.6571 35.1268 37.1546 35.1292 36.8442 35.4395C36.5338 35.7499 36.5316 36.2524 36.8392 36.5656L38.4392 38.1656C38.7024 38.4292 39.113 38.4759 39.4286 38.2781L41.4054 37.0426L41.4059 40H35.0048V33.6Z" fill="#28B8CE"/>
<path d="M45.4047 36.8C45.4046 37.0122 45.4889 37.2157 45.639 37.3658C45.789 37.5158 45.9925 37.6001 46.2048 37.6001H53.4048C53.8466 37.6001 54.2048 37.2419 54.2048 36.8001C54.2048 36.3582 53.8466 36.0001 53.4048 36.0001H46.2048C45.9926 36 45.7891 36.0843 45.639 36.2344C45.4889 36.3843 45.4046 36.5878 45.4047 36.8Z" fill="#28B8CE"/>
<path d="M35.0048 52.8H41.4048C42.288 52.799 43.0038 52.0833 43.0048 51.2V47.243L45.8287 45.4781C46.0709 45.3267 46.214 45.0575 46.204 44.772C46.194 44.4864 46.0325 44.228 45.7802 44.0939C45.5279 43.9598 45.2233 43.9704 44.981 44.1219L43.0048 45.3569V44.8001C43.0038 43.9169 42.2881 43.2011 41.4048 43.2001H35.0048C34.1215 43.2011 33.4058 43.9168 33.4047 44.8001V51.2C33.4058 52.0832 34.1214 52.799 35.0048 52.8ZM35.0048 44.7999H41.4048L41.4051 46.3565L39.1204 47.7843L37.9703 46.6343C37.6571 46.3267 37.1546 46.3291 36.8442 46.6394C36.5338 46.9498 36.5316 47.4523 36.8392 47.7655L38.4392 49.3656C38.7024 49.6292 39.113 49.6759 39.4286 49.4781L41.4054 48.2425L41.4059 51.2H35.0048V44.7999Z" fill="#28B8CE"/>
<path d="M53.4047 47.2H46.2047C45.7628 47.2 45.4047 47.5581 45.4047 47.9999C45.4047 48.4418 45.7629 48.7999 46.2047 48.7999H53.4047C53.8465 48.7999 54.2046 48.4418 54.2046 47.9999C54.2046 47.5581 53.8465 47.2 53.4047 47.2Z" fill="#28B8CE"/>
<defs>
<linearGradient id="paint0_linear" x1="44" y1="0" x2="44" y2="88" gradientUnits="userSpaceOnUse">
<stop stop-color="#D2EEF5"/>
<stop offset="1" stop-color="#B6E9F0"/>
</linearGradient>
</defs>
</svg>
