<svg xmlns="http://www.w3.org/2000/svg" width="202" height="73">
  <g fill="none" fill-rule="evenodd">
    <path fill="#151515" d="M78.4908167 6.11954365H64.5480484v3.80486429h4.8604095V22.3207929h4.2220072V9.92440794h4.8603516V6.11954365zm15.1705008 0h-6.3576048V22.3207929h4.222181v-5.0321334h2.1354238c3.5593873 0 6.2596341-2.2338579 6.2596341-5.5967825 0-3.43667779-2.7002468-5.57233335-6.2596341-5.57233335zm.0246809 3.6822127c1.1781389 0 1.9391929.76088015 1.9391929 1.89012065 0 1.1536897-.761054 1.9147436-1.9391929 1.9147436h-2.1601047V9.80175635h2.1601047zM117.153413 22.3207929h4.541237l-7.364194-16.49568258h-1.349978l-7.364194 16.49568258h4.541237l.589099-1.3501524h5.817694l.589099 1.3501524zm-2.08641-4.7377h-2.822956l1.423732-3.7555604 1.399224 3.7555604zm29.604165-11.46354925h-4.222007v5.91589685h-5.915839V6.11954365h-4.222181V22.3207929h4.222181v-6.4804881h5.915839v6.4804881h4.222007V6.11954365zm18.116167-.29443333c-4.909308 0-8.763302 3.63290873-8.763302 8.39505798 0 4.7868301 3.853994 8.3952317 8.738853 8.3952317 3.264722 0 5.964969-1.5956294 7.437773-4.3448325l-3.215592-2.1847278c-.981966 1.6692087-2.307438 2.6511166-4.222181 2.6511166-2.577422 0-4.41847-1.7674111-4.41847-4.492165 0-2.7246961 1.841048-4.54123733 4.41847-4.54123733 1.914743 0 3.240215.98190793 4.222181 2.65111663l3.215592-2.1847277c-1.472804-2.74937703-4.173051-4.34483258-7.413324-4.34483258zM73.851319 35.281769c-4.9093079 0-8.7633023 3.6329088-8.7633023 8.3951159 0 4.7867722 3.8539944 8.3952318 8.7388531 8.3952318 3.2647223 0 5.9649691-1.5956294 7.4377731-4.3448326l-3.2155921-2.1847857c-.9819659 1.6692667-2.3074373 2.6511746-4.222181 2.6511746-2.5774214 0-4.4184119-1.767469-4.4184119-4.4921651 0-2.7247539 1.8409905-4.5412952 4.4184119-4.5412952 1.9147437 0 3.2402151.9819659 4.222181 2.6511746l3.2155921-2.1847278c-1.472804-2.749377-4.1730508-4.3448905-7.4133239-4.3448905zm28.008825.2944913H90.6175071v16.2012492h11.5371289v-3.8048643h-7.3149479v-2.8229563h5.0075103v-3.5347064h-5.0075103v-2.2338579h7.0204559v-3.8048643zm16.226046 0h-6.357604v16.2012492h4.222123v-5.0321912h2.135481c3.559388 0 6.259635-2.233858 6.259635-5.5967826 0-3.4366198-2.700247-5.5722754-6.259635-5.5722754zm.024681 3.6821548c1.178139 0 1.939193.7608801 1.939193 1.8901206 0 1.1537476-.761054 1.9147437-1.939193 1.9147437h-2.160162v-3.8048643h2.160162zm25.799417 3.8293714c.613722-.6873008.981966-1.6201365.981966-2.724754 0-2.8720285-2.381017-4.7867722-5.473957-4.7867722h-5.842318v16.2012492h7.560483c3.117563 0 5.474131-1.9638738 5.474131-4.8112793 0-1.9147437-1.055545-3.21565-2.700305-3.8784437zm-4.762149-3.9521968c1.006589 0 1.620136.5646492 1.620136 1.4238476 0 .8590825-.613547 1.4237317-1.620136 1.4237317h-1.521934v-2.8475793h1.521934zm1.718339 9.0825325h-3.240273v-2.8474055h3.240273c.981908 0 1.620136.4664468 1.620136 1.4237317 0 .9572849-.638228 1.4236738-1.620136 1.4236738zm28.229737-12.9363532l-9.033286 8.6405929v-8.3461016h-4.222181v16.4958564h1.350152l9.033287-8.7634762v8.468869h4.22218V35.281769h-1.350152zm19.466261 0c-4.909308 0-8.763244 3.6329088-8.763244 8.3951159 0 4.7867722 3.853936 8.3952318 8.738795 8.3952318 3.264722 0 5.964969-1.5956294 7.437773-4.3448326l-3.215592-2.1847857c-.981908 1.6692667-2.307437 2.6511746-4.222181 2.6511746-2.577421 0-4.418412-1.767469-4.418412-4.4921651 0-2.7247539 1.840991-4.5412952 4.418412-4.5412952 1.914744 0 3.240273.9819659 4.222181 2.6511746l3.215592-2.1847278c-1.472804-2.749377-4.173051-4.3448905-7.413324-4.3448905z"/>
    <path fill="#0B606E" d="M65.7408452 65.9194635v1.0269246c0 2.1158992-.3526015 2.8316468-1.1927968 2.9354111v1.2343373c1.4729778-.0829071 2.5828675-.9127897 2.5828675-3.5475103v-.4667365h1.2862484v3.952023h1.3898389v-5.1344492h-4.066158zm7.9664437-.1141349c-1.5352016 0-2.7488556 1.1617428-2.7488556 2.6760873 0 1.5248889 1.213654 2.6866317 2.7383691 2.6866317 1.5248309 0 2.7695389-1.1617428 2.7695389-2.6866317 0-1.5143445-1.244708-2.6760873-2.7590524-2.6760873zm0 1.2758777c.7571143 0 1.3276151.6015548 1.3276151 1.4105802 0 .7988286-.5705008 1.3900127-1.3276151 1.3900127-.7779714 0-1.3277889-.5808714-1.3277889-1.3900127 0-.8090254.5498175-1.4105802 1.3277889-1.4105802zm7.7171428-1.1617428h-3.8170309v5.1344492h1.4002675v-3.952023h2.4167634v-1.1824262zm5.2694993-.1141349l-2.9666389 2.8525039v-2.738369h-1.4002675v5.2589548h.4667365l2.966523-2.8628746v2.738369h1.3900127v-5.2485841h-.4563658zm4.3564777 0c-1.5352016 0-2.7488555 1.1617428-2.7488555 2.6760873 0 1.5248889 1.2136539 2.6970024 2.7488555 2.6970024 1.0164381 0 1.8047223-.508277 2.2300921-1.2759358l-.9750135-.7467436c-.3008643.425196-.6742071.7364309-1.2343952.7364309-.7985969 0-1.3484723-.6015547-1.3484723-1.4107539 0-.7986548.5498754-1.4002096 1.3484723-1.4002096.5705587 0 .9440174.311235 1.2343952.7467437l.9750135-.7571143c-.4253698-.7676008-1.2033413-1.2655071-2.2300921-1.2655071zm7.3230008.1037643h-4.6365428v1.1824841h1.6181666v3.9623357h1.3898969V67.091577h1.6284793v-1.1824841zm5.2279005-.1037643l-2.966639 2.8525039v-2.738369h-1.4002091v5.2589548h.4667365l2.9664646-2.8628746v2.738369h1.390071v-5.2485841h-.456424zm4.926921.1141349v2.0952159c-.259324.082965-.539331.1348182-.788342.1348182-.694833 0-1.140886-.394142-1.140886-1.2239666v-1.0060675h-1.390013v1.099519c0 1.5455723 1.058095 2.4167635 2.416938 2.4167635.342289 0 .642979-.0622238.902303-.1348182v1.7529849h1.400383v-5.1344492h-1.400383zm7.655209 2.2716325c0-1.3278468-.975014-2.3857674-2.416822-2.3857674-1.514518 0-2.686631 1.1721135-2.686631 2.6864579 0 1.5145183 1.182484 2.6866318 2.811137 2.6866318.788284 0 1.472804-.2800072 2.053675-.7676008l-.580871-.9543302c-.414826.3215476-.871249.5185897-1.431438.5185897-.736373 0-1.275703-.3629143-1.452062-1.0163802h3.609734c.041367-.1764166.093278-.4772809.093278-.7676008zm-2.468675-1.2552523c.591184 0 1.099519.3838293 1.109832 1.0372952h-2.344169c.165872-.6429794.643095-1.0372952 1.234337-1.0372952zm6.016185-1.1305151c-1.535202 0-2.748856 1.1617428-2.748856 2.6760873 0 1.5248889 1.213654 2.6970024 2.748856 2.6970024 1.016438 0 1.804722-.508277 2.230092-1.2759358l-.975013-.7467436c-.300865.425196-.674208.7364309-1.234396.7364309-.798596 0-1.348472-.6015547-1.348472-1.4107539 0-.7986548.549876-1.4002096 1.348472-1.4002096.570559 0 .944018.311235 1.234396.7467437l.975013-.7571143c-.42537-.7676008-1.203341-1.2655071-2.230092-1.2655071zm8.412207 5.2485841l-2.116131-2.8109635 1.960572-2.3234857h-1.607796l-1.929344 2.3338563v-2.3338563h-1.400268v5.1344492h1.400268v-2.7799095l2.095216 2.7799095h1.597483zm5.196673-5.2485841l-2.966639 2.8525039v-2.738369h-1.400209v5.2589548h.466736l2.966465-2.8628746v2.738369h1.390071v-5.2485841h-.456424zm6.711076 2.3857674c0-1.3278468-.975014-2.3857674-2.416764-2.3857674-1.514576 0-2.686632 1.1721135-2.686632 2.6864579 0 1.5145183 1.182427 2.6866318 2.81108 2.6866318.788284 0 1.472804-.2800072 2.053675-.7676008l-.580871-.9543302c-.414826.3215476-.87125.5185897-1.43138.5185897-.736431 0-1.275762-.3629143-1.45212-1.0163802h3.609734c.041366-.1764166.093278-.4772809.093278-.7676008zm-2.468675-1.2552523c.591184 0 1.099519.3838293 1.109832 1.0372952h-2.344169c.165872-.6429794.643095-1.0372952 1.234337-1.0372952zm9.44956-1.1305151c-.705319 0-1.296561.2696365-1.649336.7469174v-.6327825h-1.286075v7.001569h1.40021v-2.3650841c.363146.3942.902477.6224699 1.535201.6224699 1.441808 0 2.489416-1.1514302 2.489416-2.6970024s-1.037295-2.6760873-2.489416-2.6760873zm-.259266 4.0971539c-.653523 0-1.306989-.4459952-1.306989-1.4210666 0-.9853842.663836-1.4105802 1.306989-1.4105802.726061 0 1.317245.5497016 1.317245 1.4209508 0 .8713651-.601555 1.410696-1.317245 1.410696zm8.661103-1.7113865c0-1.3278468-.975014-2.3857674-2.416822-2.3857674-1.514518 0-2.686631 1.1721135-2.686631 2.6864579 0 1.5145183 1.182484 2.6866318 2.811137 2.6866318.788284 0 1.472804-.2800072 2.053675-.7676008l-.580871-.9543302c-.414826.3215476-.871249.5185897-1.431437.5185897-.736373 0-1.275704-.3629143-1.452121-1.0163802h3.609792c.041367-.1764166.093278-.4772809.093278-.7676008zm-2.468675-1.2552523c.591184 0 1.099519.3838293 1.109832 1.0372952h-2.344227c.165872-.6429794.643153-1.0372952 1.234395-1.0372952zm11.24397-1.0163802h-1.389897v3.952023h-1.732301v-3.952023h-1.389839v3.952023h-1.732302v-3.952023h-1.389897v5.1344492h7.634236v-5.1344492zm6.265196 2.2716325c0-1.3278468-.975071-2.3857674-2.416821-2.3857674-1.514519 0-2.686632 1.1721135-2.686632 2.6864579 0 1.5145183 1.182426 2.6866318 2.811137 2.6866318.788284 0 1.472804-.2800072 2.053676-.7676008l-.580872-.9543302c-.414883.3215476-.871249.5185897-1.431437.5185897-.736431 0-1.275762-.3629143-1.452121-1.0163802h3.609792c.041367-.1764166.093278-.4772809.093278-.7676008zm-2.468732-1.2552523c.591242 0 1.099519.3838293 1.109889 1.0372952h-2.344227c.165872-.6429794.643095-1.0372952 1.234338-1.0372952zm8.339612-1.0163802h-1.389897v1.8774325h-1.939714v-1.8774325h-1.400209v5.1344492h1.400209v-2.0642198h1.939714v2.0642198h1.389897v-5.1344492zm5.860684-.1141349l-2.966639 2.8525039v-2.738369h-1.400268v5.2589548h.466795l2.966465-2.8628746v2.738369h1.390012v-5.2485841h-.456365zm4.03493.1141349c-1.234338 0-2.157614.705377-2.157614 1.9188571 0 .705377.321548 1.2448238.840195 1.5664294l-1.337985 1.6491627h1.555885l1.120202-1.3069317h.985384v1.3069317h1.400383v-5.1344492h-2.40645zm1.006067 2.6450913h-.902419c-.48742 0-.840195-.280181-.840195-.7469175s.352775-.7157476.840195-.7157476h.902419v1.4626651zM49.7992675 18.7652294H33.4525397c-1.599627 0-2.8963619-1.2966191-2.8963619-2.8961881V8.59366429c0-1.59812064-1.2937802-2.89404445-2.8916111-2.89763651h-.0372532c-1.1793556 0-2.3373325.09258254-3.4670365.27114285-1.4286564.22560477-2.4982802 1.42645477-2.4982802 2.8730135V46.6660032c0 1.4462111 1.0696238 2.6470611 2.4982802 2.8731873 1.129704.1780389 2.2876809.270969 3.4670365.270969l.0965802-.0002897c1.5652706-.0033023 2.8322841-1.2730968 2.8322841-2.8380777V40.585219c0-1.599569 1.2967349-2.8963039 2.8963619-2.8963039l14.7793135.0260714 2.5332738-.0260714c1.1458103-.022827 1.928996 1.1804563 1.4175905 2.2057587-4.8756469 9.7757429-15.6172492 18.1343587-23.1908254 25.7444349-1.1594834 1.2049635-1.9507223.5951818-2.6063318-.0901492C15.8422167 54.5235841.20608016 44.5387484.20608016 27.7531516c0-7.5717802 3.06976587-14.427523 8.03196984-19.389727C13.1999063 3.40122063 20.0556492.33180238 27.6273135.33180238c7.5724175 0 14.4278706 3.06941825 19.3900746 8.03162222 2.1116698 2.1116698 3.8804135 4.5663817 5.2157341 7.2738706.7094905 1.4389691-.3389285 3.1279342-1.9436539 3.1279342h-.4902008z"/>
  </g>
</svg>