<svg width="88" height="88" viewBox="0 0 88 88" fill="none" xmlns="http://www.w3.org/2000/svg">
<path d="M44 88C68.2347 88 88 68.2339 88 44C88 19.7653 68.2347 0 44 0C19.7653 0 0 19.7661 0 44C0 68.2339 19.7661 88 44 88Z" fill="url(#paint0_linear)"/>
<path d="M58.7999 48.0001V62.4001C58.7973 63.2826 58.0825 63.9975 57.1999 64.0001H42.7999C41.9174 63.9975 41.2025 63.2827 41.1999 62.4001V48.0001C41.2025 47.1175 41.9173 46.4027 42.7999 46.4001V44.8H57.1999V46.4001C58.0825 46.4027 58.7974 47.1175 58.7999 48.0001Z" fill="#99D2E0"/>
<path d="M42.8009 28.8002H57.2009C58.0846 28.8002 58.8009 29.5165 58.8009 30.4002V44.8002C58.8009 45.6839 58.0846 46.4002 57.2009 46.4002H42.8009C41.9172 46.4002 41.2009 45.6839 41.2009 44.8002V30.4002C41.2009 29.5165 41.9172 28.8002 42.8009 28.8002Z" fill="#99D2E0"/>
<path d="M56.3999 48.0001V62.4001C56.3973 63.2826 55.6825 63.9975 54.7999 64.0001H42.7999C41.9174 63.9975 41.2025 63.2827 41.1999 62.4001V48.0001C41.2025 47.1175 41.9173 46.4027 42.7999 46.4001C41.9174 46.3975 41.2025 45.6827 41.1999 44.8H54.7999V46.4001C55.6825 46.4027 56.3974 47.1175 56.3999 48.0001Z" fill="#DDECF0"/>
<path d="M42.8009 28.8002H54.8009C55.6845 28.8002 56.4009 29.5165 56.4009 30.4002V44.8002C56.4009 45.6839 55.6845 46.4002 54.8009 46.4002H42.8009C41.9172 46.4002 41.2009 45.6839 41.2009 44.8002V30.4002C41.2009 29.5165 41.9172 28.8002 42.8009 28.8002Z" fill="#DDECF0"/>
<path d="M52.4 52.8L50 50.4L47.6 52.8V46.4H52.4V52.8Z" fill="#99D2E0"/>
<path d="M38 28.8002H39.6C40.4837 28.8002 41.2 29.5165 41.2 30.4002V65.6001H38V28.8002Z" fill="#DDECF0"/>
<path d="M29.2 67.1999C32.2928 67.1999 34.8 64.6927 34.8 61.6C34.8 58.5072 32.2928 56 29.2 56C26.1072 56 23.6 58.5072 23.6 61.6C23.6 64.6927 26.1072 67.1999 29.2 67.1999Z" fill="#99D2E0"/>
<path d="M28 67.1999C30.43 67.1999 32.4 64.6927 32.4 61.6C32.4 58.5072 30.43 56 28 56C25.57 56 23.6 58.5072 23.6 61.6C23.6 64.6927 25.57 67.1999 28 67.1999Z" fill="#DDECF0"/>
<path d="M29.2 63.9999C30.5255 63.9999 31.6 62.9254 31.6 61.5999C31.6 60.2745 30.5255 59.2 29.2 59.2C27.8746 59.2 26.8 60.2745 26.8 61.5999C26.8 62.9254 27.8746 63.9999 29.2 63.9999Z" fill="#E3E7F2"/>
<path d="M23.6001 20.8H30.8001C31.6837 20.8 32.4001 21.5164 32.4001 22.4001C32.4001 23.2838 31.6837 24.0001 30.8001 24.0001H23.6001C22.7164 24.0001 22 23.2838 22 22.4001C22 21.5164 22.7164 20.8 23.6001 20.8Z" fill="#DDECF0"/>
<path d="M38 64H60.4C61.2836 64 62 64.7163 62 65.6C62 66.4837 61.2836 67.2001 60.4 67.2001H38V64Z" fill="#99D2E0"/>
<path d="M38 64H57.9999C58.8836 64 59.6 64.7163 59.6 65.6C59.6 66.4837 58.8836 67.2001 57.9999 67.2001H38V64Z" fill="#DDECF0"/>
<path d="M52.4 35.2001L50 32.8001L47.6 35.2001V28.8002H52.4V35.2001Z" fill="#99D2E0"/>
<path d="M29.872 67.152C29.6494 67.1839 29.4248 67.1999 29.2 67.2C28.9755 67.1986 28.7511 67.1853 28.528 67.16C28.3531 67.1852 28.1767 67.1986 28 67.2C25.568 67.2 23.6 64.696 23.6 61.6001C23.6 58.5041 25.568 56 28 56C28.1767 56.0014 28.3531 56.0147 28.528 56.04C28.7511 56.0147 28.9755 56.0014 29.2 56C29.4248 56 29.6494 56.0161 29.872 56.048C27.688 56.376 26 58.736 26 61.6C26 64.4639 27.688 66.824 29.872 67.152Z" fill="white"/>
<path d="M26.0001 24.0001H23.6001C22.7164 24.0001 22 23.2838 22 22.4001C22 21.5164 22.7164 20.8 23.6001 20.8H26.0001C25.1164 20.8 24.4 21.5164 24.4 22.4001C24.4 23.2838 25.1164 24.0001 26.0001 24.0001Z" fill="white"/>
<path d="M52.4 43.9999C52.8418 43.9999 53.1999 43.6418 53.1999 43.2V40.8C53.1999 40.3581 52.8418 40 52.4 40C51.9581 40 51.6 40.3582 51.6 40.8V43.2C51.5999 43.6418 51.9581 43.9999 52.4 43.9999Z" fill="#28B8CE"/>
<path d="M49.1999 43.9999C49.6417 43.9999 49.9999 43.6418 49.9999 43.2V40.8C49.9999 40.3581 49.6417 40 49.1999 40C48.7581 40 48.3999 40.3582 48.3999 40.8V43.2C48.3999 43.6418 48.7581 43.9999 49.1999 43.9999Z" fill="#28B8CE"/>
<path d="M55.5999 43.9999C56.0417 43.9999 56.3999 43.6418 56.3999 43.2V40.8C56.3999 40.3581 56.0417 40 55.5999 40C55.1581 40 54.7999 40.3582 54.7999 40.8V43.2C54.7999 43.6418 55.1581 43.9999 55.5999 43.9999Z" fill="#28B8CE"/>
<path d="M52.4 57.6C51.9581 57.6 51.6 57.9582 51.6 58.3999V60.7999C51.6 61.2418 51.9581 61.5999 52.4 61.5999C52.8418 61.5999 53.1999 61.2417 53.1999 60.7999V58.3999C53.1999 57.9581 52.8418 57.6 52.4 57.6Z" fill="#28B8CE"/>
<path d="M49.1999 57.6C48.7581 57.6 48.3999 57.9582 48.3999 58.3999V60.7999C48.3999 61.2418 48.7581 61.5999 49.1999 61.5999C49.6417 61.5999 49.9999 61.2417 49.9999 60.7999V58.3999C50 57.9581 49.6417 57.6 49.1999 57.6Z" fill="#28B8CE"/>
<path d="M55.5999 57.6C55.1581 57.6 54.7999 57.9582 54.7999 58.3999V60.7999C54.7999 61.2418 55.1581 61.5999 55.5999 61.5999C56.0417 61.5999 56.3999 61.2417 56.3999 60.7999V58.3999C56.3999 57.9581 56.0417 57.6 55.5999 57.6Z" fill="#28B8CE"/>
<path d="M33.2 21.6H33.0526C32.7158 20.6439 31.8137 20.0031 30.8 20H23.6C22.2746 20 21.2 21.0746 21.2 22.4C21.2 23.7254 22.2746 24.8 23.6 24.8H30.8C31.8137 24.7969 32.7158 24.1561 33.0526 23.2H33.2C35.4081 23.2026 37.1974 24.9919 37.2 27.2V28H34C30.9087 28.0034 28.4036 30.5086 28.4001 33.5999V55.2555C25.0993 55.67 22.6672 58.5452 22.8057 61.869C22.9441 65.1929 25.6071 67.8558 28.9309 67.9943C32.2547 68.1328 35.1299 65.7006 35.5445 62.3999H37.1999V67.1999C37.1999 67.6417 37.5581 67.9998 37.9999 67.9998H60.3998C61.7252 67.9998 62.7998 66.9254 62.7998 65.5998C62.7998 64.2743 61.7252 63.1998 60.3998 63.1998H59.4524C59.5473 62.9436 59.5971 62.673 59.5998 62.3999V47.9999C59.5979 47.4075 59.3753 46.837 58.9756 46.3999C59.3754 45.9627 59.598 45.3922 59.5998 44.7998V30.3999C59.5983 29.075 58.5246 28.0013 57.1998 27.9999H42.7998C42.2074 28.0017 41.6369 28.2243 41.1998 28.624C40.7626 28.2242 40.1921 28.0016 39.5997 27.9999H38.7998V27.2C38.7965 24.1087 36.2913 21.6035 33.2 21.6ZM30.8 23.2H23.6C23.1582 23.2 22.8 22.8417 22.8 22.4C22.8 21.9582 23.1583 21.6 23.6 21.6H30.8C31.2418 21.6 31.6 21.9582 31.6 22.4C31.6 22.8417 31.2418 23.2 30.8 23.2ZM35.6 44.7999V42.3999H37.1999V44.7999H35.6ZM37.1999 46.4V48.7999H35.5999V46.4H37.1999ZM35.6 40.8V38.4H37.1999V40.8H35.6ZM35.6 36.8V34.4H37.1999V36.8H35.6ZM35.6 50.4H37.1999V52.8H35.5999V50.4H35.6ZM37.1999 32.7999H35.5999V29.6H37.1999V32.7999ZM35.6 54.3999H37.1999V56.7999H35.5999V54.3999H35.6ZM34 29.6V57.381C32.9711 56.2075 31.5482 55.4514 29.9999 55.2556V33.6C30.0026 31.3919 31.7919 29.6026 34 29.6ZM29.2 66.3999C26.549 66.3999 24.4 64.2509 24.4 61.5999C24.4 58.9489 26.549 56.7999 29.2 56.7999C31.8509 56.7999 34 58.9489 34 61.5999C33.9971 64.2497 31.8497 66.397 29.2 66.3999ZM35.6 60.7999V58.3999H37.1999V60.7999H35.6ZM61.1999 65.5999C61.1993 66.0415 60.8415 66.3993 60.3999 66.3999H38.7999V64.7999H60.3999C60.8415 64.8005 61.1993 65.1584 61.1999 65.5999ZM42.8 63.1999C42.3584 63.1994 42.0006 62.8415 42 62.4V48C42.0006 47.5584 42.3584 47.2006 42.8 47.2H46.7999V52.8C46.7999 53.1235 46.9948 53.4153 47.2938 53.539C47.5927 53.6628 47.9368 53.5943 48.1656 53.3656L50 51.5313L51.8344 53.3657C52.0631 53.5945 52.4073 53.6629 52.7061 53.5391C53.0051 53.4153 53.2 53.1236 53.1999 52.8V47.2H57.1999C57.6415 47.2006 57.9993 47.5584 57.9999 48V62.4C57.9993 62.8415 57.6415 63.1994 57.1999 63.1999H42.8ZM48.3999 47.1999H51.5999V50.8686L50.5655 49.8342C50.4155 49.6841 50.212 49.5998 49.9999 49.5998C49.7877 49.5998 49.5843 49.6841 49.4343 49.8342L48.3999 50.8686V47.1999ZM51.5999 29.6V33.2687L50.5655 32.2344C50.4156 32.0843 50.2121 32 50 32C49.7878 32 49.5844 32.0843 49.4344 32.2344L48.4 33.2688V29.6H51.5999ZM42.8 29.6H46.7999V35.1999C46.7999 35.5235 46.9948 35.8152 47.2938 35.939C47.5927 36.0628 47.9368 35.9943 48.1656 35.7655L50 33.9312L51.8344 35.7656C52.0631 35.9945 52.4073 36.0629 52.7061 35.9391C53.0051 35.8152 53.2 35.5236 53.1999 35.1999V29.6H57.1999C57.6415 29.6005 57.9993 29.9584 57.9999 30.4V44.7999C57.9993 45.2415 57.6415 45.5993 57.1999 45.5999H42.8C42.3584 45.5993 42.0006 45.2415 42 44.7999V30.4C42.0006 29.9584 42.3583 29.6005 42.8 29.6ZM40.4 30.4V63.1999H38.7999V29.6H39.5999C40.0416 29.6005 40.3994 29.9584 40.4 30.4Z" fill="#28B8CE"/>
<path d="M29.2 58.3999C27.4327 58.3999 26.0001 59.8326 26.0001 61.5999C26.0001 63.3671 27.4327 64.7998 29.2 64.7998C30.9673 64.7998 32.4 63.3671 32.4 61.5999C32.398 59.8334 30.9665 58.402 29.2 58.3999ZM29.2 63.1999C28.3163 63.1999 27.6 62.4836 27.6 61.5999C27.6 60.7162 28.3163 59.9998 29.2 59.9998C30.0837 59.9998 30.8001 60.7162 30.8001 61.5999C30.7991 62.4832 30.0833 63.199 29.2 63.1999Z" fill="#28B8CE"/>
<defs>
<linearGradient id="paint0_linear" x1="44" y1="0" x2="44" y2="88" gradientUnits="userSpaceOnUse">
<stop stop-color="#D2EEF5"/>
<stop offset="1" stop-color="#B6E9F0"/>
</linearGradient>
</defs>
</svg>
