<svg width="17" height="10" viewBox="0 0 17 10" fill="none" xmlns="http://www.w3.org/2000/svg">
<g clip-path="url(#clip0)">
<path d="M16.105 0.0102539H0.0878906V9.83897H16.105V0.0102539Z" fill="#F0F0F0"/>
<path d="M16.105 1.23804H0.0878906V2.46651H16.105V1.23804Z" fill="#C2C2C2"/>
<path d="M16.105 3.6953H0.0878906V4.92377H16.105V3.6953Z" fill="#C2C2C2"/>
<path d="M16.105 6.15224H0.0878906V7.38071H16.105V6.15224Z" fill="#C2C2C2"/>
<path d="M16.105 8.60949H0.0878906V9.83797H16.105V8.60949Z" fill="#C2C2C2"/>
<path d="M8.09647 0.0102539H0.0878906V5.30264H8.09647V0.0102539Z" fill="#C2C2C2"/>
<path d="M3.21001 2.17767L3.08103 2.5429H2.66384L3.00142 2.76851L2.87243 3.13371L3.21001 2.90811L3.54738 3.13371L3.41842 2.76851L3.756 2.5429H3.33878L3.21001 2.17767Z" fill="#F0F0F0"/>
<path d="M3.33878 3.8609L3.21001 3.49569L3.08103 3.8609H2.66384L3.00142 4.08653L2.87243 4.45174L3.21001 4.2261L3.54738 4.45174L3.41842 4.08653L3.756 3.8609H3.33878Z" fill="#F0F0F0"/>
<path d="M1.57561 3.8609L1.44681 3.49569L1.31783 3.8609H0.900635L1.23821 4.08653L1.10923 4.45174L1.44681 4.2261L1.78421 4.45174L1.65526 4.08653L1.99277 3.8609H1.57561Z" fill="#F0F0F0"/>
<path d="M1.44681 2.17767L1.31783 2.5429H0.900635L1.23821 2.76851L1.10923 3.13371L1.44681 2.90811L1.78421 3.13371L1.65526 2.76851L1.99277 2.5429H1.57561L1.44681 2.17767Z" fill="#F0F0F0"/>
<path d="M3.21001 0.859619L3.08103 1.22488H2.66384L3.00142 1.45052L2.87243 1.81572L3.21001 1.59008L3.54738 1.81572L3.41842 1.45052L3.756 1.22488H3.33878L3.21001 0.859619Z" fill="#F0F0F0"/>
<path d="M1.44681 0.859619L1.31783 1.22488H0.900635L1.23821 1.45052L1.10923 1.81572L1.44681 1.59008L1.78421 1.81572L1.65526 1.45052L1.99277 1.22488H1.57561L1.44681 0.859619Z" fill="#F0F0F0"/>
<path d="M4.97318 2.17767L4.84423 2.5429H4.42704L4.76458 2.76851L4.63567 3.13371L4.97318 2.90811L5.31061 3.13371L5.18162 2.76851L5.5192 2.5429H5.10201L4.97318 2.17767Z" fill="#F0F0F0"/>
<path d="M5.10201 3.8609L4.97318 3.49569L4.84423 3.8609H4.42704L4.76458 4.08653L4.63567 4.45174L4.97318 4.2261L5.31061 4.45174L5.18162 4.08653L5.5192 3.8609H5.10201Z" fill="#F0F0F0"/>
<path d="M6.86521 3.8609L6.73642 3.49569L6.60743 3.8609H6.19027L6.52779 4.08653L6.39884 4.45174L6.73642 4.2261L7.07381 4.45174L6.94483 4.08653L7.28241 3.8609H6.86521Z" fill="#F0F0F0"/>
<path d="M6.73642 2.17767L6.60743 2.5429H6.19027L6.52779 2.76851L6.39884 3.13371L6.73642 2.90811L7.07381 3.13371L6.94483 2.76851L7.28241 2.5429H6.86521L6.73642 2.17767Z" fill="#F0F0F0"/>
<path d="M4.97318 0.859619L4.84423 1.22488H4.42704L4.76458 1.45052L4.63567 1.81572L4.97318 1.59008L5.31061 1.81572L5.18162 1.45052L5.5192 1.22488H5.10201L4.97318 0.859619Z" fill="#F0F0F0"/>
<path d="M6.73642 0.859619L6.60743 1.22488H6.19027L6.52779 1.45052L6.39884 1.81572L6.73642 1.59008L7.07381 1.81572L6.94483 1.45052L7.28241 1.22488H6.86521L6.73642 0.859619Z" fill="#F0F0F0"/>
</g>
<defs>
<clipPath id="clip0">
<rect width="16.0171" height="9.84781" fill="white" transform="translate(0.0878906)"/>
</clipPath>
</defs>
</svg>
